<?xml version="1.0" encoding="UTF-8"?>
<!DOCTYPE svg PUBLIC "-//W3C//DTD SVG 1.1//EN" "http://www.w3.org/Graphics/SVG/1.1/DTD/svg11.dtd">
<svg width="160mm" height="90mm" viewBox="0 0 16000 9000" version="1.1" xmlns="http://www.w3.org/2000/svg" stroke-width="28.222" stroke-linejoin="round" xml:space="preserve">
 <path fill="rgb(255,255,255)" stroke="none" d="M 8000,8999 L 0,8999 0,20 15999,20 15999,8999 8000,8999 Z"/>
 <path fill="none" stroke="rgb(179,179,179)" stroke-linejoin="round" d="M 9477,5404 L 3275,5404 3275,200 15679,200 15679,5404 9477,5404 Z"/>
 <path fill="none" stroke="rgb(179,179,179)" stroke-linejoin="round" d="M 15679,5403 L 3275,5403"/>
 <path fill="none" stroke="rgb(179,179,179)" stroke-linejoin="round" d="M 15679,4659 L 3275,4659"/>
 <path fill="none" stroke="rgb(179,179,179)" stroke-linejoin="round" d="M 15679,3916 L 3275,3916"/>
 <path fill="none" stroke="rgb(179,179,179)" stroke-linejoin="round" d="M 15679,3173 L 3275,3173"/>
 <path fill="none" stroke="rgb(179,179,179)" stroke-linejoin="round" d="M 15679,2428 L 3275,2428"/>
 <path fill="none" stroke="rgb(179,179,179)" stroke-linejoin="round" d="M 15679,1685 L 3275,1685"/>
 <path fill="none" stroke="rgb(179,179,179)" stroke-linejoin="round" d="M 15679,942 L 3275,942"/>
 <path fill="none" stroke="rgb(179,179,179)" stroke-linejoin="round" d="M 15679,198 L 3275,198"/>
 <path fill="none" stroke="rgb(179,179,179)" stroke-linejoin="round" d="M 3275,5553 L 3275,5403"/>
 <path fill="none" stroke="rgb(179,179,179)" stroke-linejoin="round" d="M 3275,5553 L 3275,5403"/>
 <path fill="none" stroke="rgb(179,179,179)" stroke-linejoin="round" d="M 4229,5553 L 4229,5403"/>
 <path fill="none" stroke="rgb(179,179,179)" stroke-linejoin="round" d="M 4229,5553 L 4229,5403"/>
 <path fill="none" stroke="rgb(179,179,179)" stroke-linejoin="round" d="M 5183,5553 L 5183,5403"/>
 <path fill="none" stroke="rgb(179,179,179)" stroke-linejoin="round" d="M 5183,5553 L 5183,5403"/>
 <path fill="none" stroke="rgb(179,179,179)" stroke-linejoin="round" d="M 6137,5553 L 6137,5403"/>
 <path fill="none" stroke="rgb(179,179,179)" stroke-linejoin="round" d="M 6137,5553 L 6137,5403"/>
 <path fill="none" stroke="rgb(179,179,179)" stroke-linejoin="round" d="M 7091,5553 L 7091,5403"/>
 <path fill="none" stroke="rgb(179,179,179)" stroke-linejoin="round" d="M 7091,5553 L 7091,5403"/>
 <path fill="none" stroke="rgb(179,179,179)" stroke-linejoin="round" d="M 8045,5553 L 8045,5403"/>
 <path fill="none" stroke="rgb(179,179,179)" stroke-linejoin="round" d="M 8045,5553 L 8045,5403"/>
 <path fill="none" stroke="rgb(179,179,179)" stroke-linejoin="round" d="M 8999,5553 L 8999,5403"/>
 <path fill="none" stroke="rgb(179,179,179)" stroke-linejoin="round" d="M 8999,5553 L 8999,5403"/>
 <path fill="none" stroke="rgb(179,179,179)" stroke-linejoin="round" d="M 9953,5553 L 9953,5403"/>
 <path fill="none" stroke="rgb(179,179,179)" stroke-linejoin="round" d="M 9953,5553 L 9953,5403"/>
 <path fill="none" stroke="rgb(179,179,179)" stroke-linejoin="round" d="M 10907,5553 L 10907,5403"/>
 <path fill="none" stroke="rgb(179,179,179)" stroke-linejoin="round" d="M 10907,5553 L 10907,5403"/>
 <path fill="none" stroke="rgb(179,179,179)" stroke-linejoin="round" d="M 11862,5553 L 11862,5403"/>
 <path fill="none" stroke="rgb(179,179,179)" stroke-linejoin="round" d="M 11862,5553 L 11862,5403"/>
 <path fill="none" stroke="rgb(179,179,179)" stroke-linejoin="round" d="M 12816,5553 L 12816,5403"/>
 <path fill="none" stroke="rgb(179,179,179)" stroke-linejoin="round" d="M 12816,5553 L 12816,5403"/>
 <path fill="none" stroke="rgb(179,179,179)" stroke-linejoin="round" d="M 13770,5553 L 13770,5403"/>
 <path fill="none" stroke="rgb(179,179,179)" stroke-linejoin="round" d="M 13770,5553 L 13770,5403"/>
 <path fill="none" stroke="rgb(179,179,179)" stroke-linejoin="round" d="M 14724,5553 L 14724,5403"/>
 <path fill="none" stroke="rgb(179,179,179)" stroke-linejoin="round" d="M 14724,5553 L 14724,5403"/>
 <path fill="none" stroke="rgb(179,179,179)" stroke-linejoin="round" d="M 15679,5553 L 15679,5403"/>
 <path fill="none" stroke="rgb(179,179,179)" stroke-linejoin="round" d="M 15679,5553 L 15679,5403"/>
 <path fill="none" stroke="rgb(179,179,179)" stroke-linejoin="round" d="M 3275,5403 L 15679,5403"/>
 <path fill="none" stroke="rgb(179,179,179)" stroke-linejoin="round" d="M 3125,5403 L 3275,5403"/>
 <path fill="none" stroke="rgb(179,179,179)" stroke-linejoin="round" d="M 3125,5403 L 3275,5403"/>
 <path fill="none" stroke="rgb(179,179,179)" stroke-linejoin="round" d="M 3125,4659 L 3275,4659"/>
 <path fill="none" stroke="rgb(179,179,179)" stroke-linejoin="round" d="M 3125,4659 L 3275,4659"/>
 <path fill="none" stroke="rgb(179,179,179)" stroke-linejoin="round" d="M 3125,3916 L 3275,3916"/>
 <path fill="none" stroke="rgb(179,179,179)" stroke-linejoin="round" d="M 3125,3916 L 3275,3916"/>
 <path fill="none" stroke="rgb(179,179,179)" stroke-linejoin="round" d="M 3125,3173 L 3275,3173"/>
 <path fill="none" stroke="rgb(179,179,179)" stroke-linejoin="round" d="M 3125,3173 L 3275,3173"/>
 <path fill="none" stroke="rgb(179,179,179)" stroke-linejoin="round" d="M 3125,2428 L 3275,2428"/>
 <path fill="none" stroke="rgb(179,179,179)" stroke-linejoin="round" d="M 3125,2428 L 3275,2428"/>
 <path fill="none" stroke="rgb(179,179,179)" stroke-linejoin="round" d="M 3125,1685 L 3275,1685"/>
 <path fill="none" stroke="rgb(179,179,179)" stroke-linejoin="round" d="M 3125,1685 L 3275,1685"/>
 <path fill="none" stroke="rgb(179,179,179)" stroke-linejoin="round" d="M 3125,942 L 3275,942"/>
 <path fill="none" stroke="rgb(179,179,179)" stroke-linejoin="round" d="M 3125,942 L 3275,942"/>
 <path fill="none" stroke="rgb(179,179,179)" stroke-linejoin="round" d="M 3125,198 L 3275,198"/>
 <path fill="none" stroke="rgb(179,179,179)" stroke-linejoin="round" d="M 3125,198 L 3275,198"/>
 <path fill="none" stroke="rgb(179,179,179)" stroke-linejoin="round" d="M 3275,5403 L 3275,198"/>
 <path fill="rgb(0,132,209)" stroke="none" d="M 14963,5403 L 15440,5403 15440,2486 14963,2486 14963,5403 Z"/>
 <path fill="rgb(0,132,209)" stroke="none" d="M 14009,5403 L 14486,5403 14486,2983 14009,2983 14009,5403 Z"/>
 <path fill="rgb(0,132,209)" stroke="none" d="M 13054,5403 L 13531,5403 13531,1410 13054,1410 13054,5403 Z"/>
 <path fill="rgb(0,132,209)" stroke="none" d="M 12100,5403 L 12577,5403 12577,2746 12100,2746 12100,5403 Z"/>
 <path fill="rgb(0,132,209)" stroke="none" d="M 11146,5403 L 11623,5403 11623,2453 11146,2453 11146,5403 Z"/>
 <path fill="rgb(0,132,209)" stroke="none" d="M 10192,5403 L 10669,5403 10669,3135 10192,3135 10192,5403 Z"/>
 <path fill="rgb(0,132,209)" stroke="none" d="M 9237,5403 L 9715,5403 9715,2385 9237,2385 9237,5403 Z"/>
 <path fill="rgb(0,132,209)" stroke="none" d="M 8283,5403 L 8760,5403 8760,866 8283,866 8283,5403 Z"/>
 <path fill="rgb(0,132,209)" stroke="none" d="M 7330,5403 L 7807,5403 7807,2493 7330,2493 7330,5403 Z"/>
 <path fill="rgb(0,132,209)" stroke="none" d="M 6376,5403 L 6853,5403 6853,2093 6376,2093 6376,5403 Z"/>
 <path fill="rgb(0,132,209)" stroke="none" d="M 5422,5403 L 5899,5403 5899,2343 5422,2343 5422,5403 Z"/>
 <path fill="rgb(0,132,209)" stroke="none" d="M 4467,5403 L 4944,5403 4944,2512 4467,2512 4467,5403 Z"/>
 <path fill="rgb(0,132,209)" stroke="none" d="M 3513,5403 L 3990,5403 3990,1521 3513,1521 3513,5403 Z"/>
 <text class="TextShape" transform="translate(2226,7483) rotate(-44.9) translate(-2226,-7483)"><tspan class="TextParagraph" font-family="Liberation Sans" font-size="353px" font-weight="400"><tspan class="TextPosition" x="2226" y="7483"><tspan fill="rgb(0,0,0)" stroke="none">Distinct values</tspan></tspan></tspan></text>
 <text class="TextShape" transform="translate(3348,7314) rotate(-44.9) translate(-3348,-7314)"><tspan class="TextParagraph" font-family="Liberation Sans" font-size="353px" font-weight="400"><tspan class="TextPosition" x="3348" y="7314"><tspan fill="rgb(0,0,0)" stroke="none">Allowed units</tspan></tspan></tspan></text>
 <text class="TextShape" transform="translate(3853,7762) rotate(-44.9) translate(-3853,-7762)"><tspan class="TextParagraph" font-family="Liberation Sans" font-size="353px" font-weight="400"><tspan class="TextPosition" x="3853" y="7762"><tspan fill="rgb(0,0,0)" stroke="none">Allowed qualifiers</tspan></tspan></tspan></text>
 <text class="TextShape" transform="translate(5967,6605) rotate(-44.9) translate(-5967,-6605)"><tspan class="TextParagraph" font-family="Liberation Sans" font-size="353px" font-weight="400"><tspan class="TextPosition" x="5967" y="6605"><tspan fill="rgb(0,0,0)" stroke="none">One-of</tspan></tspan></tspan></text>
 <text class="TextShape" transform="translate(5352,8172) rotate(-44.9) translate(-5352,-8172)"><tspan class="TextParagraph" font-family="Liberation Sans" font-size="353px" font-weight="400"><tspan class="TextPosition" x="5352" y="8172"><tspan fill="rgb(0,0,0)" stroke="none">One-of qualifier value</tspan></tspan></tspan></text>
 <text class="TextShape" transform="translate(6024,8453) rotate(-44.9) translate(-6024,-8453)"><tspan class="TextParagraph" font-family="Liberation Sans" font-size="353px" font-weight="400"><tspan class="TextPosition" x="6024" y="8453"><tspan fill="rgb(0,0,0)" stroke="none">Item requires statement</tspan></tspan></tspan></text>
 <text class="TextShape" transform="translate(6866,8565) rotate(-44.9) translate(-6866,-8565)"><tspan class="TextParagraph" font-family="Liberation Sans" font-size="353px" font-weight="400"><tspan class="TextPosition" x="6866" y="8565"><tspan fill="rgb(0,0,0)" stroke="none">Value requires statement</tspan></tspan></tspan></text>
 <text class="TextShape" transform="translate(9710,6680) rotate(-44.9) translate(-9710,-6680)"><tspan class="TextParagraph" font-family="Liberation Sans" font-size="353px" font-weight="400"><tspan class="TextPosition" x="9710" y="6680"><tspan fill="rgb(0,0,0)" stroke="none">Inverse</tspan></tspan></tspan></text>
 <text class="TextShape" transform="translate(10289,7054) rotate(-44.9) translate(-10289,-7054)"><tspan class="TextParagraph" font-family="Liberation Sans" font-size="353px" font-weight="400"><tspan class="TextPosition" x="10289" y="7054"><tspan fill="rgb(0,0,0)" stroke="none">Symmetric</tspan></tspan></tspan></text>
 <text class="TextShape" transform="translate(11244,7054) rotate(-44.9) translate(-11244,-7054)"><tspan class="TextParagraph" font-family="Liberation Sans" font-size="353px" font-weight="400"><tspan class="TextPosition" x="11244" y="7054"><tspan fill="rgb(0,0,0)" stroke="none">Multi-value</tspan></tspan></tspan></text>
 <text class="TextShape" transform="translate(12047,7204) rotate(-44.9) translate(-12047,-7204)"><tspan class="TextParagraph" font-family="Liberation Sans" font-size="353px" font-weight="400"><tspan class="TextPosition" x="12047" y="7204"><tspan fill="rgb(0,0,0)" stroke="none">Single value</tspan></tspan></tspan></text>
 <text class="TextShape" transform="translate(12272,7930) rotate(-44.9) translate(-12272,-7930)"><tspan class="TextParagraph" font-family="Liberation Sans" font-size="353px" font-weight="400"><tspan class="TextPosition" x="12272" y="7930"><tspan fill="rgb(0,0,0)" stroke="none">Mandatory qualifier</tspan></tspan></tspan></text>
 <text class="TextShape" transform="translate(13413,7744) rotate(-44.9) translate(-13413,-7744)"><tspan class="TextParagraph" font-family="Liberation Sans" font-size="353px" font-weight="400"><tspan class="TextPosition" x="13413" y="7744"><tspan fill="rgb(0,0,0)" stroke="none">Single best value</tspan></tspan></tspan></text>
 <text class="TextShape"><tspan class="TextParagraph" font-family="Liberation Sans" font-size="352px" font-weight="400"><tspan class="TextPosition" x="2840" y="5524"><tspan fill="rgb(0,0,0)" stroke="none">1</tspan></tspan></tspan></text>
 <text class="TextShape"><tspan class="TextParagraph" font-family="Liberation Sans" font-size="352px" font-weight="400"><tspan class="TextPosition" x="2655" y="4779"><tspan fill="rgb(0,0,0)" stroke="none">10</tspan></tspan></tspan></text>
 <text class="TextShape"><tspan class="TextParagraph" font-family="Liberation Sans" font-size="352px" font-weight="400"><tspan class="TextPosition" x="2469" y="4036"><tspan fill="rgb(0,0,0)" stroke="none">100</tspan></tspan></tspan></text>
 <text class="TextShape"><tspan class="TextParagraph" font-family="Liberation Sans" font-size="352px" font-weight="400"><tspan class="TextPosition" x="2178" y="3293"><tspan fill="rgb(0,0,0)" stroke="none">1,000</tspan></tspan></tspan></text>
 <text class="TextShape"><tspan class="TextParagraph" font-family="Liberation Sans" font-size="352px" font-weight="400"><tspan class="TextPosition" x="1993" y="2549"><tspan fill="rgb(0,0,0)" stroke="none">10,000</tspan></tspan></tspan></text>
 <text class="TextShape"><tspan class="TextParagraph" font-family="Liberation Sans" font-size="352px" font-weight="400"><tspan class="TextPosition" x="1808" y="1805"><tspan fill="rgb(0,0,0)" stroke="none">100,000</tspan></tspan></tspan></text>
 <text class="TextShape"><tspan class="TextParagraph" font-family="Liberation Sans" font-size="352px" font-weight="400"><tspan class="TextPosition" x="1517" y="1062"><tspan fill="rgb(0,0,0)" stroke="none">1,000,000</tspan></tspan></tspan></text>
 <text class="TextShape"><tspan class="TextParagraph" font-family="Liberation Sans" font-size="352px" font-weight="400"><tspan class="TextPosition" x="1332" y="318"><tspan fill="rgb(0,0,0)" stroke="none">10,000,000</tspan></tspan></tspan></text>
 <text class="TextShape" transform="translate(837,6846) rotate(-90) translate(-837,-6846)"><tspan class="TextParagraph" font-family="Liberation Sans" font-size="318px" font-weight="400"><tspan class="TextPosition" x="837" y="6846"><tspan fill="rgb(0,0,0)" stroke="none">Number of additional derivations</tspan></tspan></tspan></text>
</svg>