<?xml version="1.0" encoding="UTF-8"?>
<!DOCTYPE svg PUBLIC "-//W3C//DTD SVG 1.1//EN" "http://www.w3.org/Graphics/SVG/1.1/DTD/svg11.dtd">
<svg width="160mm" height="90mm" viewBox="0 0 16000 9000" version="1.1" xmlns="http://www.w3.org/2000/svg" stroke-width="28.222" stroke-linejoin="round" xml:space="preserve">
 <path fill="rgb(255,255,255)" stroke="none" d="M 8000,8999 L 0,8999 0,20 15999,20 15999,8999 8000,8999 Z"/>
 <path fill="none" stroke="rgb(179,179,179)" stroke-linejoin="round" d="M 8971,5404 L 2264,5404 2264,200 15679,200 15679,5404 8971,5404 Z"/>
 <path fill="none" stroke="rgb(179,179,179)" stroke-linejoin="round" d="M 15679,5403 L 2264,5403"/>
 <path fill="none" stroke="rgb(179,179,179)" stroke-linejoin="round" d="M 15679,4659 L 2264,4659"/>
 <path fill="none" stroke="rgb(179,179,179)" stroke-linejoin="round" d="M 15679,3916 L 2264,3916"/>
 <path fill="none" stroke="rgb(179,179,179)" stroke-linejoin="round" d="M 15679,3173 L 2264,3173"/>
 <path fill="none" stroke="rgb(179,179,179)" stroke-linejoin="round" d="M 15679,2428 L 2264,2428"/>
 <path fill="none" stroke="rgb(179,179,179)" stroke-linejoin="round" d="M 15679,1685 L 2264,1685"/>
 <path fill="none" stroke="rgb(179,179,179)" stroke-linejoin="round" d="M 15679,942 L 2264,942"/>
 <path fill="none" stroke="rgb(179,179,179)" stroke-linejoin="round" d="M 15679,198 L 2264,198"/>
 <path fill="none" stroke="rgb(179,179,179)" stroke-linejoin="round" d="M 2264,5553 L 2264,5403"/>
 <path fill="none" stroke="rgb(179,179,179)" stroke-linejoin="round" d="M 2264,5553 L 2264,5403"/>
 <path fill="none" stroke="rgb(179,179,179)" stroke-linejoin="round" d="M 3053,5553 L 3053,5403"/>
 <path fill="none" stroke="rgb(179,179,179)" stroke-linejoin="round" d="M 3053,5553 L 3053,5403"/>
 <path fill="none" stroke="rgb(179,179,179)" stroke-linejoin="round" d="M 3842,5553 L 3842,5403"/>
 <path fill="none" stroke="rgb(179,179,179)" stroke-linejoin="round" d="M 3842,5553 L 3842,5403"/>
 <path fill="none" stroke="rgb(179,179,179)" stroke-linejoin="round" d="M 4631,5553 L 4631,5403"/>
 <path fill="none" stroke="rgb(179,179,179)" stroke-linejoin="round" d="M 4631,5553 L 4631,5403"/>
 <path fill="none" stroke="rgb(179,179,179)" stroke-linejoin="round" d="M 5420,5553 L 5420,5403"/>
 <path fill="none" stroke="rgb(179,179,179)" stroke-linejoin="round" d="M 5420,5553 L 5420,5403"/>
 <path fill="none" stroke="rgb(179,179,179)" stroke-linejoin="round" d="M 6209,5553 L 6209,5403"/>
 <path fill="none" stroke="rgb(179,179,179)" stroke-linejoin="round" d="M 6209,5553 L 6209,5403"/>
 <path fill="none" stroke="rgb(179,179,179)" stroke-linejoin="round" d="M 6999,5553 L 6999,5403"/>
 <path fill="none" stroke="rgb(179,179,179)" stroke-linejoin="round" d="M 6999,5553 L 6999,5403"/>
 <path fill="none" stroke="rgb(179,179,179)" stroke-linejoin="round" d="M 7788,5553 L 7788,5403"/>
 <path fill="none" stroke="rgb(179,179,179)" stroke-linejoin="round" d="M 7788,5553 L 7788,5403"/>
 <path fill="none" stroke="rgb(179,179,179)" stroke-linejoin="round" d="M 8576,5553 L 8576,5403"/>
 <path fill="none" stroke="rgb(179,179,179)" stroke-linejoin="round" d="M 8576,5553 L 8576,5403"/>
 <path fill="none" stroke="rgb(179,179,179)" stroke-linejoin="round" d="M 9365,5553 L 9365,5403"/>
 <path fill="none" stroke="rgb(179,179,179)" stroke-linejoin="round" d="M 9365,5553 L 9365,5403"/>
 <path fill="none" stroke="rgb(179,179,179)" stroke-linejoin="round" d="M 10154,5553 L 10154,5403"/>
 <path fill="none" stroke="rgb(179,179,179)" stroke-linejoin="round" d="M 10154,5553 L 10154,5403"/>
 <path fill="none" stroke="rgb(179,179,179)" stroke-linejoin="round" d="M 10943,5553 L 10943,5403"/>
 <path fill="none" stroke="rgb(179,179,179)" stroke-linejoin="round" d="M 10943,5553 L 10943,5403"/>
 <path fill="none" stroke="rgb(179,179,179)" stroke-linejoin="round" d="M 11733,5553 L 11733,5403"/>
 <path fill="none" stroke="rgb(179,179,179)" stroke-linejoin="round" d="M 11733,5553 L 11733,5403"/>
 <path fill="none" stroke="rgb(179,179,179)" stroke-linejoin="round" d="M 12522,5553 L 12522,5403"/>
 <path fill="none" stroke="rgb(179,179,179)" stroke-linejoin="round" d="M 12522,5553 L 12522,5403"/>
 <path fill="none" stroke="rgb(179,179,179)" stroke-linejoin="round" d="M 13311,5553 L 13311,5403"/>
 <path fill="none" stroke="rgb(179,179,179)" stroke-linejoin="round" d="M 13311,5553 L 13311,5403"/>
 <path fill="none" stroke="rgb(179,179,179)" stroke-linejoin="round" d="M 14100,5553 L 14100,5403"/>
 <path fill="none" stroke="rgb(179,179,179)" stroke-linejoin="round" d="M 14100,5553 L 14100,5403"/>
 <path fill="none" stroke="rgb(179,179,179)" stroke-linejoin="round" d="M 14889,5553 L 14889,5403"/>
 <path fill="none" stroke="rgb(179,179,179)" stroke-linejoin="round" d="M 14889,5553 L 14889,5403"/>
 <path fill="none" stroke="rgb(179,179,179)" stroke-linejoin="round" d="M 15679,5553 L 15679,5403"/>
 <path fill="none" stroke="rgb(179,179,179)" stroke-linejoin="round" d="M 15679,5553 L 15679,5403"/>
 <path fill="none" stroke="rgb(179,179,179)" stroke-linejoin="round" d="M 2264,5403 L 15679,5403"/>
 <path fill="none" stroke="rgb(179,179,179)" stroke-linejoin="round" d="M 2114,5403 L 2264,5403"/>
 <path fill="none" stroke="rgb(179,179,179)" stroke-linejoin="round" d="M 2114,5403 L 2264,5403"/>
 <path fill="none" stroke="rgb(179,179,179)" stroke-linejoin="round" d="M 2114,4659 L 2264,4659"/>
 <path fill="none" stroke="rgb(179,179,179)" stroke-linejoin="round" d="M 2114,4659 L 2264,4659"/>
 <path fill="none" stroke="rgb(179,179,179)" stroke-linejoin="round" d="M 2114,3916 L 2264,3916"/>
 <path fill="none" stroke="rgb(179,179,179)" stroke-linejoin="round" d="M 2114,3916 L 2264,3916"/>
 <path fill="none" stroke="rgb(179,179,179)" stroke-linejoin="round" d="M 2114,3173 L 2264,3173"/>
 <path fill="none" stroke="rgb(179,179,179)" stroke-linejoin="round" d="M 2114,3173 L 2264,3173"/>
 <path fill="none" stroke="rgb(179,179,179)" stroke-linejoin="round" d="M 2114,2428 L 2264,2428"/>
 <path fill="none" stroke="rgb(179,179,179)" stroke-linejoin="round" d="M 2114,2428 L 2264,2428"/>
 <path fill="none" stroke="rgb(179,179,179)" stroke-linejoin="round" d="M 2114,1685 L 2264,1685"/>
 <path fill="none" stroke="rgb(179,179,179)" stroke-linejoin="round" d="M 2114,1685 L 2264,1685"/>
 <path fill="none" stroke="rgb(179,179,179)" stroke-linejoin="round" d="M 2114,942 L 2264,942"/>
 <path fill="none" stroke="rgb(179,179,179)" stroke-linejoin="round" d="M 2114,942 L 2264,942"/>
 <path fill="none" stroke="rgb(179,179,179)" stroke-linejoin="round" d="M 2114,198 L 2264,198"/>
 <path fill="none" stroke="rgb(179,179,179)" stroke-linejoin="round" d="M 2114,198 L 2264,198"/>
 <path fill="none" stroke="rgb(179,179,179)" stroke-linejoin="round" d="M 2264,5403 L 2264,198"/>
 <path fill="rgb(0,132,209)" stroke="none" d="M 15087,5403 L 15481,5403 15481,2486 15087,2486 15087,5403 Z"/>
 <path fill="rgb(0,132,209)" stroke="none" d="M 14297,5403 L 14692,5403 14692,2955 14297,2955 14297,5403 Z"/>
 <path fill="rgb(0,132,209)" stroke="none" d="M 13508,5403 L 13903,5403 13903,1409 13508,1409 13508,5403 Z"/>
 <path fill="none" stroke="rgb(0,69,134)" stroke-width="100" stroke-linejoin="round" d="M 13508,5403 L 13903,5403 13903,1409 13508,1409 13508,5403 Z"/>
 <path fill="rgb(0,132,209)" stroke="none" d="M 12719,5403 L 13114,5403 13114,2734 12719,2734 12719,5403 Z"/>
 <path fill="rgb(0,132,209)" stroke="none" d="M 11930,5403 L 12325,5403 12325,2453 11930,2453 11930,5403 Z"/>
 <path fill="rgb(0,132,209)" stroke="none" d="M 11141,5403 L 11535,5403 11535,3135 11141,3135 11141,5403 Z"/>
 <path fill="rgb(0,132,209)" stroke="none" d="M 10352,5403 L 10746,5403 10746,2385 10352,2385 10352,5403 Z"/>
 <path fill="rgb(0,132,209)" stroke="none" d="M 9562,5403 L 9957,5403 9957,864 9562,864 9562,5403 Z"/>
 <path fill="none" stroke="rgb(0,69,134)" stroke-width="100" stroke-linejoin="round" d="M 9562,5403 L 9957,5403 9957,864 9562,864 9562,5403 Z"/>
 <path fill="rgb(0,132,209)" stroke="none" d="M 8773,5403 L 9168,5403 9168,2493 8773,2493 8773,5403 Z"/>
 <path fill="rgb(0,132,209)" stroke="none" d="M 7985,5403 L 8379,5403 8379,2093 7985,2093 7985,5403 Z"/>
 <path fill="rgb(0,132,209)" stroke="none" d="M 7196,5403 L 7590,5403 7590,2335 7196,2335 7196,5403 Z"/>
 <path fill="rgb(0,132,209)" stroke="none" d="M 6407,5403 L 6801,5403 6801,2240 6407,2240 6407,5403 Z"/>
 <path fill="rgb(0,132,209)" stroke="none" d="M 5618,5403 L 6012,5403 6012,1521 5618,1521 5618,5403 Z"/>
 <path fill="none" stroke="rgb(0,69,134)" stroke-width="100" stroke-linejoin="round" d="M 5618,5403 L 6012,5403 6012,1521 5618,1521 5618,5403 Z"/>
 <path fill="rgb(0,132,209)" stroke="none" d="M 4828,5403 L 5223,5403 5223,4955 4828,4955 4828,5403 Z"/>
 <path fill="rgb(0,132,209)" stroke="none" d="M 4039,5403 L 4434,5403 4434,4173 4039,4173 4039,5403 Z"/>
 <path fill="rgb(0,132,209)" stroke="none" d="M 3250,5403 L 3645,5403 3645,3802 3250,3802 3250,5403 Z"/>
 <path fill="rgb(0,132,209)" stroke="none" d="M 2461,5403 L 2855,5403 2855,2519 2461,2519 2461,5403 Z"/>
 <text class="TextShape" transform="translate(2049,6567) rotate(-44.9) translate(-2049,-6567)"><tspan class="TextParagraph" font-family="Liberation Sans" font-size="353px" font-weight="400"><tspan class="TextPosition" x="2049" y="6567"><tspan fill="rgb(0,0,0)" stroke="none">Scope</tspan></tspan></tspan></text>
 <text class="TextShape" transform="translate(2070,7333) rotate(-44.9) translate(-2070,-7333)"><tspan class="TextParagraph" font-family="Liberation Sans" font-size="353px" font-weight="400"><tspan class="TextPosition" x="2070" y="7333"><tspan fill="rgb(0,0,0)" stroke="none">Conflicts with</tspan></tspan></tspan></text>
 <text class="TextShape" transform="translate(2261,7930) rotate(-44.9) translate(-2261,-7930)"><tspan class="TextParagraph" font-family="Liberation Sans" font-size="353px" font-weight="400"><tspan class="TextPosition" x="2261" y="7930"><tspan fill="rgb(0,0,0)" stroke="none">Allowed entity type</tspan></tspan></tspan></text>
 <text class="TextShape" transform="translate(4267,6717) rotate(-44.9) translate(-4267,-6717)"><tspan class="TextParagraph" font-family="Liberation Sans" font-size="353px" font-weight="400"><tspan class="TextPosition" x="4267" y="6717"><tspan fill="rgb(0,0,0)" stroke="none">None of</tspan></tspan></tspan></text>
 <text class="TextShape" transform="translate(4289,7483) rotate(-44.9) translate(-4289,-7483)"><tspan class="TextParagraph" font-family="Liberation Sans" font-size="353px" font-weight="400"><tspan class="TextPosition" x="4289" y="7483"><tspan fill="rgb(0,0,0)" stroke="none">Distinct values</tspan></tspan></tspan></text>
 <text class="TextShape" transform="translate(5246,7314) rotate(-44.9) translate(-5246,-7314)"><tspan class="TextParagraph" font-family="Liberation Sans" font-size="353px" font-weight="400"><tspan class="TextPosition" x="5246" y="7314"><tspan fill="rgb(0,0,0)" stroke="none">Allowed units</tspan></tspan></tspan></text>
 <text class="TextShape" transform="translate(5586,7762) rotate(-44.9) translate(-5586,-7762)"><tspan class="TextParagraph" font-family="Liberation Sans" font-size="353px" font-weight="400"><tspan class="TextPosition" x="5586" y="7762"><tspan fill="rgb(0,0,0)" stroke="none">Allowed qualifiers</tspan></tspan></tspan></text>
 <text class="TextShape" transform="translate(7535,6605) rotate(-44.9) translate(-7535,-6605)"><tspan class="TextParagraph" font-family="Liberation Sans" font-size="353px" font-weight="400"><tspan class="TextPosition" x="7535" y="6605"><tspan fill="rgb(0,0,0)" stroke="none">One-of</tspan></tspan></tspan></text>
 <text class="TextShape" transform="translate(6755,8172) rotate(-44.9) translate(-6755,-8172)"><tspan class="TextParagraph" font-family="Liberation Sans" font-size="353px" font-weight="400"><tspan class="TextPosition" x="6755" y="8172"><tspan fill="rgb(0,0,0)" stroke="none">One-of qualifier value</tspan></tspan></tspan></text>
 <text class="TextShape" transform="translate(7262,8453) rotate(-44.9) translate(-7262,-8453)"><tspan class="TextParagraph" font-family="Liberation Sans" font-size="353px" font-weight="400"><tspan class="TextPosition" x="7262" y="8453"><tspan fill="rgb(0,0,0)" stroke="none">Item requires statement</tspan></tspan></tspan></text>
 <text class="TextShape" transform="translate(7939,8565) rotate(-44.9) translate(-7939,-8565)"><tspan class="TextParagraph" font-family="Liberation Sans" font-size="353px" font-weight="400"><tspan class="TextPosition" x="7939" y="8565"><tspan fill="rgb(0,0,0)" stroke="none">Value requires statement</tspan></tspan></tspan></text>
 <text class="TextShape" transform="translate(10618,6680) rotate(-44.9) translate(-10618,-6680)"><tspan class="TextParagraph" font-family="Liberation Sans" font-size="353px" font-weight="400"><tspan class="TextPosition" x="10618" y="6680"><tspan fill="rgb(0,0,0)" stroke="none">Inverse</tspan></tspan></tspan></text>
 <text class="TextShape" transform="translate(11032,7054) rotate(-44.9) translate(-11032,-7054)"><tspan class="TextParagraph" font-family="Liberation Sans" font-size="353px" font-weight="400"><tspan class="TextPosition" x="11032" y="7054"><tspan fill="rgb(0,0,0)" stroke="none">Symmetric</tspan></tspan></tspan></text>
 <text class="TextShape" transform="translate(11820,7054) rotate(-44.9) translate(-11820,-7054)"><tspan class="TextParagraph" font-family="Liberation Sans" font-size="353px" font-weight="400"><tspan class="TextPosition" x="11820" y="7054"><tspan fill="rgb(0,0,0)" stroke="none">Multi-value</tspan></tspan></tspan></text>
 <text class="TextShape" transform="translate(12460,7204) rotate(-44.9) translate(-12460,-7204)"><tspan class="TextParagraph" font-family="Liberation Sans" font-size="353px" font-weight="400"><tspan class="TextPosition" x="12460" y="7204"><tspan fill="rgb(0,0,0)" stroke="none">Single value</tspan></tspan></tspan></text>
 <text class="TextShape" transform="translate(12520,7930) rotate(-44.9) translate(-12520,-7930)"><tspan class="TextParagraph" font-family="Liberation Sans" font-size="353px" font-weight="400"><tspan class="TextPosition" x="12520" y="7930"><tspan fill="rgb(0,0,0)" stroke="none">Mandatory qualifier</tspan></tspan></tspan></text>
 <text class="TextShape" transform="translate(13496,7744) rotate(-44.9) translate(-13496,-7744)"><tspan class="TextParagraph" font-family="Liberation Sans" font-size="353px" font-weight="400"><tspan class="TextPosition" x="13496" y="7744"><tspan fill="rgb(0,0,0)" stroke="none">Single best value</tspan></tspan></tspan></text>
 <text class="TextShape"><tspan class="TextParagraph" font-family="Liberation Sans" font-size="352px" font-weight="400"><tspan class="TextPosition" x="1829" y="5524"><tspan fill="rgb(0,0,0)" stroke="none">1</tspan></tspan></tspan></text>
 <text class="TextShape"><tspan class="TextParagraph" font-family="Liberation Sans" font-size="352px" font-weight="400"><tspan class="TextPosition" x="1644" y="4779"><tspan fill="rgb(0,0,0)" stroke="none">10</tspan></tspan></tspan></text>
 <text class="TextShape"><tspan class="TextParagraph" font-family="Liberation Sans" font-size="352px" font-weight="400"><tspan class="TextPosition" x="1458" y="4036"><tspan fill="rgb(0,0,0)" stroke="none">100</tspan></tspan></tspan></text>
 <text class="TextShape"><tspan class="TextParagraph" font-family="Liberation Sans" font-size="352px" font-weight="400"><tspan class="TextPosition" x="1167" y="3293"><tspan fill="rgb(0,0,0)" stroke="none">1,000</tspan></tspan></tspan></text>
 <text class="TextShape"><tspan class="TextParagraph" font-family="Liberation Sans" font-size="352px" font-weight="400"><tspan class="TextPosition" x="982" y="2549"><tspan fill="rgb(0,0,0)" stroke="none">10,000</tspan></tspan></tspan></text>
 <text class="TextShape"><tspan class="TextParagraph" font-family="Liberation Sans" font-size="352px" font-weight="400"><tspan class="TextPosition" x="797" y="1805"><tspan fill="rgb(0,0,0)" stroke="none">100,000</tspan></tspan></tspan></text>
 <text class="TextShape"><tspan class="TextParagraph" font-family="Liberation Sans" font-size="352px" font-weight="400"><tspan class="TextPosition" x="506" y="1062"><tspan fill="rgb(0,0,0)" stroke="none">1,000,000</tspan></tspan></tspan></text>
 <text class="TextShape"><tspan class="TextParagraph" font-family="Liberation Sans" font-size="352px" font-weight="400"><tspan class="TextPosition" x="321" y="318"><tspan fill="rgb(0,0,0)" stroke="none">10,000,000</tspan></tspan></tspan></text>
</svg>