<?xml version="1.0" encoding="UTF-8"?>
<!DOCTYPE svg PUBLIC "-//W3C//DTD SVG 1.1//EN" "http://www.w3.org/Graphics/SVG/1.1/DTD/svg11.dtd">
<svg width="160mm" height="90mm" viewBox="0 0 16000 9000" version="1.1" xmlns="http://www.w3.org/2000/svg" stroke-width="28.222" stroke-linejoin="round" xml:space="preserve">
 <path fill="rgb(255,255,255)" stroke="none" d="M 8000,8998 L 0,8998 0,19 15999,19 15999,8998 8000,8998 Z"/>
 <path fill="none" stroke="rgb(179,179,179)" stroke-linejoin="round" d="M 9399,5403 L 3197,5403 3197,199 15601,199 15601,5403 9399,5403 Z"/>
 <path fill="none" stroke="rgb(179,179,179)" stroke-linejoin="round" d="M 15601,5402 L 3197,5402"/>
 <path fill="none" stroke="rgb(179,179,179)" stroke-linejoin="round" d="M 15601,4658 L 3197,4658"/>
 <path fill="none" stroke="rgb(179,179,179)" stroke-linejoin="round" d="M 15601,3915 L 3197,3915"/>
 <path fill="none" stroke="rgb(179,179,179)" stroke-linejoin="round" d="M 15601,3172 L 3197,3172"/>
 <path fill="none" stroke="rgb(179,179,179)" stroke-linejoin="round" d="M 15601,2427 L 3197,2427"/>
 <path fill="none" stroke="rgb(179,179,179)" stroke-linejoin="round" d="M 15601,1684 L 3197,1684"/>
 <path fill="none" stroke="rgb(179,179,179)" stroke-linejoin="round" d="M 15601,941 L 3197,941"/>
 <path fill="none" stroke="rgb(179,179,179)" stroke-linejoin="round" d="M 15601,197 L 3197,197"/>
 <path fill="none" stroke="rgb(179,179,179)" stroke-linejoin="round" d="M 3197,5552 L 3197,5402"/>
 <path fill="none" stroke="rgb(179,179,179)" stroke-linejoin="round" d="M 3197,5552 L 3197,5402"/>
 <path fill="none" stroke="rgb(179,179,179)" stroke-linejoin="round" d="M 3926,5552 L 3926,5402"/>
 <path fill="none" stroke="rgb(179,179,179)" stroke-linejoin="round" d="M 3926,5552 L 3926,5402"/>
 <path fill="none" stroke="rgb(179,179,179)" stroke-linejoin="round" d="M 4656,5552 L 4656,5402"/>
 <path fill="none" stroke="rgb(179,179,179)" stroke-linejoin="round" d="M 4656,5552 L 4656,5402"/>
 <path fill="none" stroke="rgb(179,179,179)" stroke-linejoin="round" d="M 5386,5552 L 5386,5402"/>
 <path fill="none" stroke="rgb(179,179,179)" stroke-linejoin="round" d="M 5386,5552 L 5386,5402"/>
 <path fill="none" stroke="rgb(179,179,179)" stroke-linejoin="round" d="M 6115,5552 L 6115,5402"/>
 <path fill="none" stroke="rgb(179,179,179)" stroke-linejoin="round" d="M 6115,5552 L 6115,5402"/>
 <path fill="none" stroke="rgb(179,179,179)" stroke-linejoin="round" d="M 6845,5552 L 6845,5402"/>
 <path fill="none" stroke="rgb(179,179,179)" stroke-linejoin="round" d="M 6845,5552 L 6845,5402"/>
 <path fill="none" stroke="rgb(179,179,179)" stroke-linejoin="round" d="M 7575,5552 L 7575,5402"/>
 <path fill="none" stroke="rgb(179,179,179)" stroke-linejoin="round" d="M 7575,5552 L 7575,5402"/>
 <path fill="none" stroke="rgb(179,179,179)" stroke-linejoin="round" d="M 8303,5552 L 8303,5402"/>
 <path fill="none" stroke="rgb(179,179,179)" stroke-linejoin="round" d="M 8303,5552 L 8303,5402"/>
 <path fill="none" stroke="rgb(179,179,179)" stroke-linejoin="round" d="M 9033,5552 L 9033,5402"/>
 <path fill="none" stroke="rgb(179,179,179)" stroke-linejoin="round" d="M 9033,5552 L 9033,5402"/>
 <path fill="none" stroke="rgb(179,179,179)" stroke-linejoin="round" d="M 9763,5552 L 9763,5402"/>
 <path fill="none" stroke="rgb(179,179,179)" stroke-linejoin="round" d="M 9763,5552 L 9763,5402"/>
 <path fill="none" stroke="rgb(179,179,179)" stroke-linejoin="round" d="M 10493,5552 L 10493,5402"/>
 <path fill="none" stroke="rgb(179,179,179)" stroke-linejoin="round" d="M 10493,5552 L 10493,5402"/>
 <path fill="none" stroke="rgb(179,179,179)" stroke-linejoin="round" d="M 11222,5552 L 11222,5402"/>
 <path fill="none" stroke="rgb(179,179,179)" stroke-linejoin="round" d="M 11222,5552 L 11222,5402"/>
 <path fill="none" stroke="rgb(179,179,179)" stroke-linejoin="round" d="M 11952,5552 L 11952,5402"/>
 <path fill="none" stroke="rgb(179,179,179)" stroke-linejoin="round" d="M 11952,5552 L 11952,5402"/>
 <path fill="none" stroke="rgb(179,179,179)" stroke-linejoin="round" d="M 12682,5552 L 12682,5402"/>
 <path fill="none" stroke="rgb(179,179,179)" stroke-linejoin="round" d="M 12682,5552 L 12682,5402"/>
 <path fill="none" stroke="rgb(179,179,179)" stroke-linejoin="round" d="M 13411,5552 L 13411,5402"/>
 <path fill="none" stroke="rgb(179,179,179)" stroke-linejoin="round" d="M 13411,5552 L 13411,5402"/>
 <path fill="none" stroke="rgb(179,179,179)" stroke-linejoin="round" d="M 14141,5552 L 14141,5402"/>
 <path fill="none" stroke="rgb(179,179,179)" stroke-linejoin="round" d="M 14141,5552 L 14141,5402"/>
 <path fill="none" stroke="rgb(179,179,179)" stroke-linejoin="round" d="M 14871,5552 L 14871,5402"/>
 <path fill="none" stroke="rgb(179,179,179)" stroke-linejoin="round" d="M 14871,5552 L 14871,5402"/>
 <path fill="none" stroke="rgb(179,179,179)" stroke-linejoin="round" d="M 15601,5552 L 15601,5402"/>
 <path fill="none" stroke="rgb(179,179,179)" stroke-linejoin="round" d="M 15601,5552 L 15601,5402"/>
 <path fill="none" stroke="rgb(179,179,179)" stroke-linejoin="round" d="M 3197,5402 L 15601,5402"/>
 <path fill="none" stroke="rgb(179,179,179)" stroke-linejoin="round" d="M 3047,5402 L 3197,5402"/>
 <path fill="none" stroke="rgb(179,179,179)" stroke-linejoin="round" d="M 3047,5402 L 3197,5402"/>
 <path fill="none" stroke="rgb(179,179,179)" stroke-linejoin="round" d="M 3047,4658 L 3197,4658"/>
 <path fill="none" stroke="rgb(179,179,179)" stroke-linejoin="round" d="M 3047,4658 L 3197,4658"/>
 <path fill="none" stroke="rgb(179,179,179)" stroke-linejoin="round" d="M 3047,3915 L 3197,3915"/>
 <path fill="none" stroke="rgb(179,179,179)" stroke-linejoin="round" d="M 3047,3915 L 3197,3915"/>
 <path fill="none" stroke="rgb(179,179,179)" stroke-linejoin="round" d="M 3047,3172 L 3197,3172"/>
 <path fill="none" stroke="rgb(179,179,179)" stroke-linejoin="round" d="M 3047,3172 L 3197,3172"/>
 <path fill="none" stroke="rgb(179,179,179)" stroke-linejoin="round" d="M 3047,2427 L 3197,2427"/>
 <path fill="none" stroke="rgb(179,179,179)" stroke-linejoin="round" d="M 3047,2427 L 3197,2427"/>
 <path fill="none" stroke="rgb(179,179,179)" stroke-linejoin="round" d="M 3047,1684 L 3197,1684"/>
 <path fill="none" stroke="rgb(179,179,179)" stroke-linejoin="round" d="M 3047,1684 L 3197,1684"/>
 <path fill="none" stroke="rgb(179,179,179)" stroke-linejoin="round" d="M 3047,941 L 3197,941"/>
 <path fill="none" stroke="rgb(179,179,179)" stroke-linejoin="round" d="M 3047,941 L 3197,941"/>
 <path fill="none" stroke="rgb(179,179,179)" stroke-linejoin="round" d="M 3047,197 L 3197,197"/>
 <path fill="none" stroke="rgb(179,179,179)" stroke-linejoin="round" d="M 3047,197 L 3197,197"/>
 <path fill="none" stroke="rgb(179,179,179)" stroke-linejoin="round" d="M 3197,5402 L 3197,197"/>
 <path fill="rgb(0,132,209)" stroke="none" d="M 15053,5402 L 15418,5402 15418,2485 15053,2485 15053,5402 Z"/>
 <path fill="rgb(0,132,209)" stroke="none" d="M 14324,5402 L 14688,5402 14688,2954 14324,2954 14324,5402 Z"/>
 <path fill="rgb(0,132,209)" stroke="none" d="M 13594,5402 L 13959,5402 13959,1408 13594,1408 13594,5402 Z"/>
 <path fill="rgb(0,132,209)" stroke="none" d="M 12864,5402 L 13229,5402 13229,2733 12864,2733 12864,5402 Z"/>
 <path fill="rgb(0,132,209)" stroke="none" d="M 12134,5402 L 12499,5402 12499,2452 12134,2452 12134,5402 Z"/>
 <path fill="rgb(0,132,209)" stroke="none" d="M 11405,5402 L 11770,5402 11770,3134 11405,3134 11405,5402 Z"/>
 <path fill="rgb(0,132,209)" stroke="none" d="M 10675,5402 L 11040,5402 11040,2384 10675,2384 10675,5402 Z"/>
 <path fill="rgb(0,132,209)" stroke="none" d="M 9945,5402 L 10310,5402 10310,863 9945,863 9945,5402 Z"/>
 <path fill="rgb(0,132,209)" stroke="none" d="M 9216,5402 L 9580,5402 9580,2492 9216,2492 9216,5402 Z"/>
 <path fill="rgb(0,132,209)" stroke="none" d="M 8486,5402 L 8851,5402 8851,2092 8486,2092 8486,5402 Z"/>
 <path fill="rgb(0,132,209)" stroke="none" d="M 7757,5402 L 8121,5402 8121,2334 7757,2334 7757,5402 Z"/>
 <path fill="rgb(0,132,209)" stroke="none" d="M 7027,5402 L 7392,5402 7392,2239 7027,2239 7027,5402 Z"/>
 <path fill="rgb(0,132,209)" stroke="none" d="M 6298,5402 L 6663,5402 6663,1520 6298,1520 6298,5402 Z"/>
 <path fill="rgb(0,132,209)" stroke="none" d="M 5568,5402 L 5933,5402 5933,4954 5568,4954 5568,5402 Z"/>
 <path fill="rgb(0,132,209)" stroke="none" d="M 4838,5402 L 5203,5402 5203,4172 4838,4172 4838,5402 Z"/>
 <path fill="rgb(0,132,209)" stroke="none" d="M 4109,5402 L 4473,5402 4473,3801 4109,3801 4109,5402 Z"/>
 <path fill="rgb(0,132,209)" stroke="none" d="M 3379,5402 L 3744,5402 3744,2518 3379,2518 3379,5402 Z"/>
 <text class="TextShape" transform="translate(2952,6566) rotate(-44.9) translate(-2952,-6566)"><tspan class="TextParagraph" font-family="Liberation Sans" font-size="353px" font-weight="400"><tspan class="TextPosition" x="2952" y="6566"><tspan fill="rgb(0,0,0)" stroke="none">Scope</tspan></tspan></tspan></text>
 <text class="TextShape" transform="translate(2914,7332) rotate(-44.9) translate(-2914,-7332)"><tspan class="TextParagraph" font-family="Liberation Sans" font-size="353px" font-weight="400"><tspan class="TextPosition" x="2914" y="7332"><tspan fill="rgb(0,0,0)" stroke="none">Conflicts with</tspan></tspan></tspan></text>
 <text class="TextShape" transform="translate(3046,7929) rotate(-44.9) translate(-3046,-7929)"><tspan class="TextParagraph" font-family="Liberation Sans" font-size="353px" font-weight="400"><tspan class="TextPosition" x="3046" y="7929"><tspan fill="rgb(0,0,0)" stroke="none">Allowed entity type</tspan></tspan></tspan></text>
 <text class="TextShape" transform="translate(4991,6716) rotate(-44.9) translate(-4991,-6716)"><tspan class="TextParagraph" font-family="Liberation Sans" font-size="353px" font-weight="400"><tspan class="TextPosition" x="4991" y="6716"><tspan fill="rgb(0,0,0)" stroke="none">None of</tspan></tspan></tspan></text>
 <text class="TextShape" transform="translate(4954,7482) rotate(-44.9) translate(-4954,-7482)"><tspan class="TextParagraph" font-family="Liberation Sans" font-size="353px" font-weight="400"><tspan class="TextPosition" x="4954" y="7482"><tspan fill="rgb(0,0,0)" stroke="none">Distinct values</tspan></tspan></tspan></text>
 <text class="TextShape" transform="translate(5852,7313) rotate(-44.9) translate(-5852,-7313)"><tspan class="TextParagraph" font-family="Liberation Sans" font-size="353px" font-weight="400"><tspan class="TextPosition" x="5852" y="7313"><tspan fill="rgb(0,0,0)" stroke="none">Allowed units</tspan></tspan></tspan></text>
 <text class="TextShape" transform="translate(6133,7761) rotate(-44.9) translate(-6133,-7761)"><tspan class="TextParagraph" font-family="Liberation Sans" font-size="353px" font-weight="400"><tspan class="TextPosition" x="6133" y="7761"><tspan fill="rgb(0,0,0)" stroke="none">Allowed qualifiers</tspan></tspan></tspan></text>
 <text class="TextShape" transform="translate(8022,6604) rotate(-44.9) translate(-8022,-6604)"><tspan class="TextParagraph" font-family="Liberation Sans" font-size="353px" font-weight="400"><tspan class="TextPosition" x="8022" y="6604"><tspan fill="rgb(0,0,0)" stroke="none">One-of</tspan></tspan></tspan></text>
 <text class="TextShape" transform="translate(7182,8171) rotate(-44.9) translate(-7182,-8171)"><tspan class="TextParagraph" font-family="Liberation Sans" font-size="353px" font-weight="400"><tspan class="TextPosition" x="7182" y="8171"><tspan fill="rgb(0,0,0)" stroke="none">One-of qualifier value</tspan></tspan></tspan></text>
 <text class="TextShape" transform="translate(7630,8452) rotate(-44.9) translate(-7630,-8452)"><tspan class="TextParagraph" font-family="Liberation Sans" font-size="353px" font-weight="400"><tspan class="TextPosition" x="7630" y="8452"><tspan fill="rgb(0,0,0)" stroke="none">Item requires statement</tspan></tspan></tspan></text>
 <text class="TextShape" transform="translate(8247,8564) rotate(-44.9) translate(-8247,-8564)"><tspan class="TextParagraph" font-family="Liberation Sans" font-size="353px" font-weight="400"><tspan class="TextPosition" x="8247" y="8564"><tspan fill="rgb(0,0,0)" stroke="none">Value requires statement</tspan></tspan></tspan></text>
 <text class="TextShape" transform="translate(10867,6679) rotate(-44.9) translate(-10867,-6679)"><tspan class="TextParagraph" font-family="Liberation Sans" font-size="353px" font-weight="400"><tspan class="TextPosition" x="10867" y="6679"><tspan fill="rgb(0,0,0)" stroke="none">Inverse</tspan></tspan></tspan></text>
 <text class="TextShape" transform="translate(11222,7053) rotate(-44.9) translate(-11222,-7053)"><tspan class="TextParagraph" font-family="Liberation Sans" font-size="353px" font-weight="400"><tspan class="TextPosition" x="11222" y="7053"><tspan fill="rgb(0,0,0)" stroke="none">Symmetric</tspan></tspan></tspan></text>
 <text class="TextShape" transform="translate(11951,7053) rotate(-44.9) translate(-11951,-7053)"><tspan class="TextParagraph" font-family="Liberation Sans" font-size="353px" font-weight="400"><tspan class="TextPosition" x="11951" y="7053"><tspan fill="rgb(0,0,0)" stroke="none">Multi-value</tspan></tspan></tspan></text>
 <text class="TextShape" transform="translate(12530,7203) rotate(-44.9) translate(-12530,-7203)"><tspan class="TextParagraph" font-family="Liberation Sans" font-size="353px" font-weight="400"><tspan class="TextPosition" x="12530" y="7203"><tspan fill="rgb(0,0,0)" stroke="none">Single value</tspan></tspan></tspan></text>
 <text class="TextShape" transform="translate(12531,7929) rotate(-44.9) translate(-12531,-7929)"><tspan class="TextParagraph" font-family="Liberation Sans" font-size="353px" font-weight="400"><tspan class="TextPosition" x="12531" y="7929"><tspan fill="rgb(0,0,0)" stroke="none">Mandatory qualifier</tspan></tspan></tspan></text>
 <text class="TextShape" transform="translate(13448,7743) rotate(-44.9) translate(-13448,-7743)"><tspan class="TextParagraph" font-family="Liberation Sans" font-size="353px" font-weight="400"><tspan class="TextPosition" x="13448" y="7743"><tspan fill="rgb(0,0,0)" stroke="none">Single best value</tspan></tspan></tspan></text>
 <text class="TextShape"><tspan class="TextParagraph" font-family="Liberation Sans" font-size="352px" font-weight="400"><tspan class="TextPosition" x="2762" y="5523"><tspan fill="rgb(0,0,0)" stroke="none">1</tspan></tspan></tspan></text>
 <text class="TextShape"><tspan class="TextParagraph" font-family="Liberation Sans" font-size="352px" font-weight="400"><tspan class="TextPosition" x="2577" y="4778"><tspan fill="rgb(0,0,0)" stroke="none">10</tspan></tspan></tspan></text>
 <text class="TextShape"><tspan class="TextParagraph" font-family="Liberation Sans" font-size="352px" font-weight="400"><tspan class="TextPosition" x="2391" y="4035"><tspan fill="rgb(0,0,0)" stroke="none">100</tspan></tspan></tspan></text>
 <text class="TextShape"><tspan class="TextParagraph" font-family="Liberation Sans" font-size="352px" font-weight="400"><tspan class="TextPosition" x="2100" y="3292"><tspan fill="rgb(0,0,0)" stroke="none">1,000</tspan></tspan></tspan></text>
 <text class="TextShape"><tspan class="TextParagraph" font-family="Liberation Sans" font-size="352px" font-weight="400"><tspan class="TextPosition" x="1915" y="2548"><tspan fill="rgb(0,0,0)" stroke="none">10,000</tspan></tspan></tspan></text>
 <text class="TextShape"><tspan class="TextParagraph" font-family="Liberation Sans" font-size="352px" font-weight="400"><tspan class="TextPosition" x="1730" y="1804"><tspan fill="rgb(0,0,0)" stroke="none">100,000</tspan></tspan></tspan></text>
 <text class="TextShape"><tspan class="TextParagraph" font-family="Liberation Sans" font-size="352px" font-weight="400"><tspan class="TextPosition" x="1439" y="1061"><tspan fill="rgb(0,0,0)" stroke="none">1,000,000</tspan></tspan></tspan></text>
 <text class="TextShape"><tspan class="TextParagraph" font-family="Liberation Sans" font-size="352px" font-weight="400"><tspan class="TextPosition" x="1254" y="317"><tspan fill="rgb(0,0,0)" stroke="none">10,000,000</tspan></tspan></tspan></text>
 <text class="TextShape" transform="translate(837,6092) rotate(-90) translate(-837,-6092)"><tspan class="TextParagraph" font-family="Liberation Sans" font-size="318px" font-weight="400"><tspan class="TextPosition" x="837" y="6092"><tspan fill="rgb(0,0,0)" stroke="none">Number of derivations</tspan></tspan></tspan></text>
</svg>