<?xml version="1.0" encoding="UTF-8"?>
<!DOCTYPE svg PUBLIC "-//W3C//DTD SVG 1.1//EN" "http://www.w3.org/Graphics/SVG/1.1/DTD/svg11.dtd">
<svg width="160mm" height="90mm" viewBox="0 0 16000 9000" version="1.1" xmlns="http://www.w3.org/2000/svg" stroke-width="28.222" stroke-linejoin="round" xml:space="preserve">
 <path fill="rgb(255,255,255)" stroke="none" d="M 8000,8999 L 0,8999 0,0 15999,0 15999,8999 8000,8999 Z"/>
 <path fill="none" stroke="rgb(179,179,179)" stroke-linejoin="round" d="M 9396,5394 L 3160,5394 3160,962 15632,962 15632,5394 9396,5394 Z"/>
 <path fill="none" stroke="rgb(179,179,179)" stroke-linejoin="round" d="M 15632,5393 L 3160,5393"/>
 <path fill="none" stroke="rgb(179,179,179)" stroke-linejoin="round" d="M 15632,4759 L 3160,4759"/>
 <path fill="none" stroke="rgb(179,179,179)" stroke-linejoin="round" d="M 15632,4127 L 3160,4127"/>
 <path fill="none" stroke="rgb(179,179,179)" stroke-linejoin="round" d="M 15632,3494 L 3160,3494"/>
 <path fill="none" stroke="rgb(179,179,179)" stroke-linejoin="round" d="M 15632,2860 L 3160,2860"/>
 <path fill="none" stroke="rgb(179,179,179)" stroke-linejoin="round" d="M 15632,2227 L 3160,2227"/>
 <path fill="none" stroke="rgb(179,179,179)" stroke-linejoin="round" d="M 15632,1594 L 3160,1594"/>
 <path fill="none" stroke="rgb(179,179,179)" stroke-linejoin="round" d="M 15632,961 L 3160,961"/>
 <path fill="none" stroke="rgb(179,179,179)" stroke-linejoin="round" d="M 3160,5543 L 3160,5393"/>
 <path fill="none" stroke="rgb(179,179,179)" stroke-linejoin="round" d="M 3160,5543 L 3160,5393"/>
 <path fill="none" stroke="rgb(179,179,179)" stroke-linejoin="round" d="M 3893,5543 L 3893,5393"/>
 <path fill="none" stroke="rgb(179,179,179)" stroke-linejoin="round" d="M 3893,5543 L 3893,5393"/>
 <path fill="none" stroke="rgb(179,179,179)" stroke-linejoin="round" d="M 4627,5543 L 4627,5393"/>
 <path fill="none" stroke="rgb(179,179,179)" stroke-linejoin="round" d="M 4627,5543 L 4627,5393"/>
 <path fill="none" stroke="rgb(179,179,179)" stroke-linejoin="round" d="M 5361,5543 L 5361,5393"/>
 <path fill="none" stroke="rgb(179,179,179)" stroke-linejoin="round" d="M 5361,5543 L 5361,5393"/>
 <path fill="none" stroke="rgb(179,179,179)" stroke-linejoin="round" d="M 6094,5543 L 6094,5393"/>
 <path fill="none" stroke="rgb(179,179,179)" stroke-linejoin="round" d="M 6094,5543 L 6094,5393"/>
 <path fill="none" stroke="rgb(179,179,179)" stroke-linejoin="round" d="M 6828,5543 L 6828,5393"/>
 <path fill="none" stroke="rgb(179,179,179)" stroke-linejoin="round" d="M 6828,5543 L 6828,5393"/>
 <path fill="none" stroke="rgb(179,179,179)" stroke-linejoin="round" d="M 7562,5543 L 7562,5393"/>
 <path fill="none" stroke="rgb(179,179,179)" stroke-linejoin="round" d="M 7562,5543 L 7562,5393"/>
 <path fill="none" stroke="rgb(179,179,179)" stroke-linejoin="round" d="M 8294,5543 L 8294,5393"/>
 <path fill="none" stroke="rgb(179,179,179)" stroke-linejoin="round" d="M 8294,5543 L 8294,5393"/>
 <path fill="none" stroke="rgb(179,179,179)" stroke-linejoin="round" d="M 9028,5543 L 9028,5393"/>
 <path fill="none" stroke="rgb(179,179,179)" stroke-linejoin="round" d="M 9028,5543 L 9028,5393"/>
 <path fill="none" stroke="rgb(179,179,179)" stroke-linejoin="round" d="M 9762,5543 L 9762,5393"/>
 <path fill="none" stroke="rgb(179,179,179)" stroke-linejoin="round" d="M 9762,5543 L 9762,5393"/>
 <path fill="none" stroke="rgb(179,179,179)" stroke-linejoin="round" d="M 10496,5543 L 10496,5393"/>
 <path fill="none" stroke="rgb(179,179,179)" stroke-linejoin="round" d="M 10496,5543 L 10496,5393"/>
 <path fill="none" stroke="rgb(179,179,179)" stroke-linejoin="round" d="M 11229,5543 L 11229,5393"/>
 <path fill="none" stroke="rgb(179,179,179)" stroke-linejoin="round" d="M 11229,5543 L 11229,5393"/>
 <path fill="none" stroke="rgb(179,179,179)" stroke-linejoin="round" d="M 11963,5543 L 11963,5393"/>
 <path fill="none" stroke="rgb(179,179,179)" stroke-linejoin="round" d="M 11963,5543 L 11963,5393"/>
 <path fill="none" stroke="rgb(179,179,179)" stroke-linejoin="round" d="M 12697,5543 L 12697,5393"/>
 <path fill="none" stroke="rgb(179,179,179)" stroke-linejoin="round" d="M 12697,5543 L 12697,5393"/>
 <path fill="none" stroke="rgb(179,179,179)" stroke-linejoin="round" d="M 13430,5543 L 13430,5393"/>
 <path fill="none" stroke="rgb(179,179,179)" stroke-linejoin="round" d="M 13430,5543 L 13430,5393"/>
 <path fill="none" stroke="rgb(179,179,179)" stroke-linejoin="round" d="M 14164,5543 L 14164,5393"/>
 <path fill="none" stroke="rgb(179,179,179)" stroke-linejoin="round" d="M 14164,5543 L 14164,5393"/>
 <path fill="none" stroke="rgb(179,179,179)" stroke-linejoin="round" d="M 14898,5543 L 14898,5393"/>
 <path fill="none" stroke="rgb(179,179,179)" stroke-linejoin="round" d="M 14898,5543 L 14898,5393"/>
 <path fill="none" stroke="rgb(179,179,179)" stroke-linejoin="round" d="M 15632,5543 L 15632,5393"/>
 <path fill="none" stroke="rgb(179,179,179)" stroke-linejoin="round" d="M 15632,5543 L 15632,5393"/>
 <path fill="none" stroke="rgb(179,179,179)" stroke-linejoin="round" d="M 3160,5393 L 15632,5393"/>
 <path fill="none" stroke="rgb(179,179,179)" stroke-linejoin="round" d="M 3010,5393 L 3160,5393"/>
 <path fill="none" stroke="rgb(179,179,179)" stroke-linejoin="round" d="M 3010,5393 L 3160,5393"/>
 <path fill="none" stroke="rgb(179,179,179)" stroke-linejoin="round" d="M 3010,4759 L 3160,4759"/>
 <path fill="none" stroke="rgb(179,179,179)" stroke-linejoin="round" d="M 3010,4759 L 3160,4759"/>
 <path fill="none" stroke="rgb(179,179,179)" stroke-linejoin="round" d="M 3010,4127 L 3160,4127"/>
 <path fill="none" stroke="rgb(179,179,179)" stroke-linejoin="round" d="M 3010,4127 L 3160,4127"/>
 <path fill="none" stroke="rgb(179,179,179)" stroke-linejoin="round" d="M 3010,3494 L 3160,3494"/>
 <path fill="none" stroke="rgb(179,179,179)" stroke-linejoin="round" d="M 3010,3494 L 3160,3494"/>
 <path fill="none" stroke="rgb(179,179,179)" stroke-linejoin="round" d="M 3010,2860 L 3160,2860"/>
 <path fill="none" stroke="rgb(179,179,179)" stroke-linejoin="round" d="M 3010,2860 L 3160,2860"/>
 <path fill="none" stroke="rgb(179,179,179)" stroke-linejoin="round" d="M 3010,2227 L 3160,2227"/>
 <path fill="none" stroke="rgb(179,179,179)" stroke-linejoin="round" d="M 3010,2227 L 3160,2227"/>
 <path fill="none" stroke="rgb(179,179,179)" stroke-linejoin="round" d="M 3010,1594 L 3160,1594"/>
 <path fill="none" stroke="rgb(179,179,179)" stroke-linejoin="round" d="M 3010,1594 L 3160,1594"/>
 <path fill="none" stroke="rgb(179,179,179)" stroke-linejoin="round" d="M 3010,961 L 3160,961"/>
 <path fill="none" stroke="rgb(179,179,179)" stroke-linejoin="round" d="M 3010,961 L 3160,961"/>
 <path fill="none" stroke="rgb(179,179,179)" stroke-linejoin="round" d="M 3160,5393 L 3160,961"/>
 <path fill="rgb(0,69,134)" stroke="none" d="M 12880,5393 L 13247,5393 13247,5382 12880,5382 12880,5393 Z"/>
 <path fill="rgb(0,69,134)" stroke="none" d="M 12146,5393 L 12513,5393 12513,5371 12146,5371 12146,5393 Z"/>
 <path fill="rgb(0,69,134)" stroke="none" d="M 11413,5393 L 11780,5393 11780,5319 11413,5319 11413,5393 Z"/>
 <path fill="rgb(0,69,134)" stroke="none" d="M 10679,5393 L 11046,5393 11046,5285 10679,5285 10679,5393 Z"/>
 <path fill="rgb(0,69,134)" stroke="none" d="M 9945,5393 L 10312,5393 10312,3383 9945,3383 9945,5393 Z"/>
 <path fill="rgb(0,69,134)" stroke="none" d="M 9212,5393 L 9578,5393 9578,5392 9212,5392 9212,5393 Z"/>
 <path fill="rgb(0,69,134)" stroke="none" d="M 8478,5393 L 8845,5393 8845,5348 8478,5348 8478,5393 Z"/>
 <path fill="rgb(0,69,134)" stroke="none" d="M 7745,5393 L 8111,5393 8111,5353 7745,5353 7745,5393 Z"/>
 <path fill="rgb(0,69,134)" stroke="none" d="M 7011,5393 L 7378,5393 7378,5253 7011,5253 7011,5393 Z"/>
 <path fill="rgb(0,69,134)" stroke="none" d="M 6278,5393 L 6645,5393 6645,5003 6278,5003 6278,5393 Z"/>
 <path fill="rgb(0,69,134)" stroke="none" d="M 5544,5393 L 5911,5393 5911,5358 5544,5358 5544,5393 Z"/>
 <path fill="rgb(0,69,134)" stroke="none" d="M 4810,5393 L 5177,5393 5177,5383 4810,5383 4810,5393 Z"/>
 <path fill="rgb(0,69,134)" stroke="none" d="M 4077,5393 L 4443,5393 4443,5163 4077,5163 4077,5393 Z"/>
 <path fill="rgb(0,69,134)" stroke="none" d="M 3343,5393 L 3710,5393 3710,5067 3343,5067 3343,5393 Z"/>
 <path fill="rgb(255,66,14)" stroke="none" d="M 12880,5382 L 13247,5382 13247,5374 12880,5374 12880,5382 Z"/>
 <path fill="rgb(255,66,14)" stroke="none" d="M 12146,5371 L 12513,5371 12513,5354 12146,5354 12146,5371 Z"/>
 <path fill="rgb(255,66,14)" stroke="none" d="M 11413,5319 L 11780,5319 11780,5260 11413,5260 11413,5319 Z"/>
 <path fill="rgb(255,66,14)" stroke="none" d="M 10679,5285 L 11046,5285 11046,5195 10679,5195 10679,5285 Z"/>
 <path fill="rgb(255,66,14)" stroke="none" d="M 9945,3383 L 10312,3383 10312,1708 9945,1708 9945,3383 Z"/>
 <path fill="rgb(255,66,14)" stroke="none" d="M 9212,5392 L 9578,5392 9578,5392 9212,5392 Z"/>
 <path fill="rgb(255,66,14)" stroke="none" d="M 8478,5348 L 8845,5348 8845,4787 8478,4787 8478,5348 Z"/>
 <path fill="rgb(255,66,14)" stroke="none" d="M 7745,5353 L 8111,5353 8111,5171 7745,5171 7745,5353 Z"/>
 <path fill="rgb(255,66,14)" stroke="none" d="M 7011,5253 L 7378,5253 7378,4933 7011,4933 7011,5253 Z"/>
 <path fill="rgb(255,66,14)" stroke="none" d="M 6278,5003 L 6645,5003 6645,4613 6278,4613 6278,5003 Z"/>
 <text class="TextShape" transform="translate(1963,7514) rotate(-44.9) translate(-1963,-7514)"><tspan class="TextParagraph" font-family="Liberation Sans" font-size="353px" font-weight="400"><tspan class="TextPosition" x="1963" y="7514"><tspan fill="rgb(0,0,0)" stroke="none">Property scope</tspan></tspan></tspan></text>
 <text class="TextShape" transform="translate(2883,7328) rotate(-44.9) translate(-2883,-7328)"><tspan class="TextParagraph" font-family="Liberation Sans" font-size="353px" font-weight="400"><tspan class="TextPosition" x="2883" y="7328"><tspan fill="rgb(0,0,0)" stroke="none">Conflicts with</tspan></tspan></tspan></text>
 <text class="TextShape" transform="translate(3019,7926) rotate(-44.9) translate(-3019,-7926)"><tspan class="TextParagraph" font-family="Liberation Sans" font-size="353px" font-weight="400"><tspan class="TextPosition" x="3019" y="7926"><tspan fill="rgb(0,0,0)" stroke="none">Allowed entity type</tspan></tspan></tspan></text>
 <text class="TextShape" transform="translate(4968,6710) rotate(-44.9) translate(-4968,-6710)"><tspan class="TextParagraph" font-family="Liberation Sans" font-size="353px" font-weight="400"><tspan class="TextPosition" x="4968" y="6710"><tspan fill="rgb(0,0,0)" stroke="none">None of</tspan></tspan></tspan></text>
 <text class="TextShape" transform="translate(4935,7478) rotate(-44.9) translate(-4935,-7478)"><tspan class="TextParagraph" font-family="Liberation Sans" font-size="353px" font-weight="400"><tspan class="TextPosition" x="4935" y="7478"><tspan fill="rgb(0,0,0)" stroke="none">Distinct values</tspan></tspan></tspan></text>
 <text class="TextShape" transform="translate(5837,7309) rotate(-44.9) translate(-5837,-7309)"><tspan class="TextParagraph" font-family="Liberation Sans" font-size="353px" font-weight="400"><tspan class="TextPosition" x="5837" y="7309"><tspan fill="rgb(0,0,0)" stroke="none">Allowed units</tspan></tspan></tspan></text>
 <text class="TextShape" transform="translate(6122,7758) rotate(-44.9) translate(-6122,-7758)"><tspan class="TextParagraph" font-family="Liberation Sans" font-size="353px" font-weight="400"><tspan class="TextPosition" x="6122" y="7758"><tspan fill="rgb(0,0,0)" stroke="none">Allowed qualifiers</tspan></tspan></tspan></text>
 <text class="TextShape" transform="translate(8015,6598) rotate(-44.9) translate(-8015,-6598)"><tspan class="TextParagraph" font-family="Liberation Sans" font-size="353px" font-weight="400"><tspan class="TextPosition" x="8015" y="6598"><tspan fill="rgb(0,0,0)" stroke="none">One-of</tspan></tspan></tspan></text>
 <text class="TextShape" transform="translate(7179,8169) rotate(-44.9) translate(-7179,-8169)"><tspan class="TextParagraph" font-family="Liberation Sans" font-size="353px" font-weight="400"><tspan class="TextPosition" x="7179" y="8169"><tspan fill="rgb(0,0,0)" stroke="none">One-of qualifier value</tspan></tspan></tspan></text>
 <text class="TextShape" transform="translate(7631,8450) rotate(-44.9) translate(-7631,-8450)"><tspan class="TextParagraph" font-family="Liberation Sans" font-size="353px" font-weight="400"><tspan class="TextPosition" x="7631" y="8450"><tspan fill="rgb(0,0,0)" stroke="none">Item requires statement</tspan></tspan></tspan></text>
 <text class="TextShape" transform="translate(8252,8562) rotate(-44.9) translate(-8252,-8562)"><tspan class="TextParagraph" font-family="Liberation Sans" font-size="353px" font-weight="400"><tspan class="TextPosition" x="8252" y="8562"><tspan fill="rgb(0,0,0)" stroke="none">Value requires statement</tspan></tspan></tspan></text>
 <text class="TextShape" transform="translate(10876,6673) rotate(-44.9) translate(-10876,-6673)"><tspan class="TextParagraph" font-family="Liberation Sans" font-size="353px" font-weight="400"><tspan class="TextPosition" x="10876" y="6673"><tspan fill="rgb(0,0,0)" stroke="none">Inverse</tspan></tspan></tspan></text>
 <text class="TextShape" transform="translate(11235,7048) rotate(-44.9) translate(-11235,-7048)"><tspan class="TextParagraph" font-family="Liberation Sans" font-size="353px" font-weight="400"><tspan class="TextPosition" x="11235" y="7048"><tspan fill="rgb(0,0,0)" stroke="none">Symmetric</tspan></tspan></tspan></text>
 <text class="TextShape" transform="translate(11968,7048) rotate(-44.9) translate(-11968,-7048)"><tspan class="TextParagraph" font-family="Liberation Sans" font-size="353px" font-weight="400"><tspan class="TextPosition" x="11968" y="7048"><tspan fill="rgb(0,0,0)" stroke="none">Multi-value</tspan></tspan></tspan></text>
 <text class="TextShape" transform="translate(12551,7198) rotate(-44.9) translate(-12551,-7198)"><tspan class="TextParagraph" font-family="Liberation Sans" font-size="353px" font-weight="400"><tspan class="TextPosition" x="12551" y="7198"><tspan fill="rgb(0,0,0)" stroke="none">Single value</tspan></tspan></tspan></text>
 <text class="TextShape" transform="translate(12556,7926) rotate(-44.9) translate(-12556,-7926)"><tspan class="TextParagraph" font-family="Liberation Sans" font-size="353px" font-weight="400"><tspan class="TextPosition" x="12556" y="7926"><tspan fill="rgb(0,0,0)" stroke="none">Mandatory qualifier</tspan></tspan></tspan></text>
 <text class="TextShape" transform="translate(13477,7740) rotate(-44.9) translate(-13477,-7740)"><tspan class="TextParagraph" font-family="Liberation Sans" font-size="353px" font-weight="400"><tspan class="TextPosition" x="13477" y="7740"><tspan fill="rgb(0,0,0)" stroke="none">Single best value</tspan></tspan></tspan></text>
 <text class="TextShape"><tspan class="TextParagraph" font-family="Liberation Sans" font-size="353px" font-weight="400"><tspan class="TextPosition" x="2725" y="5514"><tspan fill="rgb(0,0,0)" stroke="none">0</tspan></tspan></tspan></text>
 <text class="TextShape"><tspan class="TextParagraph" font-family="Liberation Sans" font-size="353px" font-weight="400"><tspan class="TextPosition" x="2063" y="4880"><tspan fill="rgb(0,0,0)" stroke="none">5,000</tspan></tspan></tspan></text>
 <text class="TextShape"><tspan class="TextParagraph" font-family="Liberation Sans" font-size="353px" font-weight="400"><tspan class="TextPosition" x="1878" y="4247"><tspan fill="rgb(0,0,0)" stroke="none">10,000</tspan></tspan></tspan></text>
 <text class="TextShape"><tspan class="TextParagraph" font-family="Liberation Sans" font-size="353px" font-weight="400"><tspan class="TextPosition" x="1878" y="3614"><tspan fill="rgb(0,0,0)" stroke="none">15,000</tspan></tspan></tspan></text>
 <text class="TextShape"><tspan class="TextParagraph" font-family="Liberation Sans" font-size="353px" font-weight="400"><tspan class="TextPosition" x="1878" y="2980"><tspan fill="rgb(0,0,0)" stroke="none">20,000</tspan></tspan></tspan></text>
 <text class="TextShape"><tspan class="TextParagraph" font-family="Liberation Sans" font-size="353px" font-weight="400"><tspan class="TextPosition" x="1878" y="2347"><tspan fill="rgb(0,0,0)" stroke="none">25,000</tspan></tspan></tspan></text>
 <text class="TextShape"><tspan class="TextParagraph" font-family="Liberation Sans" font-size="353px" font-weight="400"><tspan class="TextPosition" x="1878" y="1714"><tspan fill="rgb(0,0,0)" stroke="none">30,000</tspan></tspan></tspan></text>
 <text class="TextShape"><tspan class="TextParagraph" font-family="Liberation Sans" font-size="353px" font-weight="400"><tspan class="TextPosition" x="1878" y="1081"><tspan fill="rgb(0,0,0)" stroke="none">35,000</tspan></tspan></tspan></text>
 <path fill="rgb(0,69,134)" stroke="none" d="M 5930,589 L 5825,589 5825,378 6036,378 6036,589 5930,589 Z"/>
 <path fill="rgb(255,66,14)" stroke="none" d="M 7348,589 L 7243,589 7243,378 7454,378 7454,589 7348,589 Z"/>
 <text class="TextShape"><tspan class="TextParagraph" font-family="Liberation Sans" font-size="353px" font-weight="400"><tspan class="TextPosition" x="6136" y="603"><tspan fill="rgb(0,0,0)" stroke="none">Rules</tspan></tspan></tspan></text>
 <text class="TextShape"><tspan class="TextParagraph" font-family="Liberation Sans" font-size="353px" font-weight="400"><tspan class="TextPosition" x="7554" y="603"><tspan fill="rgb(0,0,0)" stroke="none">On-demand rules</tspan></tspan></tspan></text>
 <text class="TextShape" transform="translate(776,5862) rotate(-90) translate(-776,-5862)"><tspan class="TextParagraph" font-family="Liberation Sans" font-size="318px" font-weight="400"><tspan class="TextPosition" x="776" y="5862"><tspan fill="rgb(0,0,0)" stroke="none">Number of rules</tspan></tspan></tspan></text>
</svg>