<?xml version="1.0" encoding="UTF-8"?>
<!DOCTYPE svg PUBLIC "-//W3C//DTD SVG 1.1//EN" "http://www.w3.org/Graphics/SVG/1.1/DTD/svg11.dtd">
<svg width="160mm" height="90mm" viewBox="0 0 16000 9000" version="1.1" xmlns="http://www.w3.org/2000/svg" stroke-width="28.222" stroke-linejoin="round" xml:space="preserve">
 <path fill="rgb(255,255,255)" stroke="none" d="M 8017,8999 L 17,8999 17,0 16016,0 16016,8999 8017,8999 Z"/>
 <path fill="none" stroke="rgb(179,179,179)" stroke-linejoin="round" d="M 8988,5395 L 2281,5395 2281,963 15696,963 15696,5395 8988,5395 Z"/>
 <path fill="none" stroke="rgb(179,179,179)" stroke-linejoin="round" d="M 15696,5394 L 2281,5394"/>
 <path fill="none" stroke="rgb(179,179,179)" stroke-linejoin="round" d="M 15696,4507 L 2281,4507"/>
 <path fill="none" stroke="rgb(179,179,179)" stroke-linejoin="round" d="M 15696,3621 L 2281,3621"/>
 <path fill="none" stroke="rgb(179,179,179)" stroke-linejoin="round" d="M 15696,2735 L 2281,2735"/>
 <path fill="none" stroke="rgb(179,179,179)" stroke-linejoin="round" d="M 15696,1848 L 2281,1848"/>
 <path fill="none" stroke="rgb(179,179,179)" stroke-linejoin="round" d="M 15696,962 L 2281,962"/>
 <path fill="none" stroke="rgb(179,179,179)" stroke-linejoin="round" d="M 2281,5544 L 2281,5394"/>
 <path fill="none" stroke="rgb(179,179,179)" stroke-linejoin="round" d="M 2281,5544 L 2281,5394"/>
 <path fill="none" stroke="rgb(179,179,179)" stroke-linejoin="round" d="M 3070,5544 L 3070,5394"/>
 <path fill="none" stroke="rgb(179,179,179)" stroke-linejoin="round" d="M 3070,5544 L 3070,5394"/>
 <path fill="none" stroke="rgb(179,179,179)" stroke-linejoin="round" d="M 3859,5544 L 3859,5394"/>
 <path fill="none" stroke="rgb(179,179,179)" stroke-linejoin="round" d="M 3859,5544 L 3859,5394"/>
 <path fill="none" stroke="rgb(179,179,179)" stroke-linejoin="round" d="M 4648,5544 L 4648,5394"/>
 <path fill="none" stroke="rgb(179,179,179)" stroke-linejoin="round" d="M 4648,5544 L 4648,5394"/>
 <path fill="none" stroke="rgb(179,179,179)" stroke-linejoin="round" d="M 5437,5544 L 5437,5394"/>
 <path fill="none" stroke="rgb(179,179,179)" stroke-linejoin="round" d="M 5437,5544 L 5437,5394"/>
 <path fill="none" stroke="rgb(179,179,179)" stroke-linejoin="round" d="M 6226,5544 L 6226,5394"/>
 <path fill="none" stroke="rgb(179,179,179)" stroke-linejoin="round" d="M 6226,5544 L 6226,5394"/>
 <path fill="none" stroke="rgb(179,179,179)" stroke-linejoin="round" d="M 7016,5544 L 7016,5394"/>
 <path fill="none" stroke="rgb(179,179,179)" stroke-linejoin="round" d="M 7016,5544 L 7016,5394"/>
 <path fill="none" stroke="rgb(179,179,179)" stroke-linejoin="round" d="M 7805,5544 L 7805,5394"/>
 <path fill="none" stroke="rgb(179,179,179)" stroke-linejoin="round" d="M 7805,5544 L 7805,5394"/>
 <path fill="none" stroke="rgb(179,179,179)" stroke-linejoin="round" d="M 8593,5544 L 8593,5394"/>
 <path fill="none" stroke="rgb(179,179,179)" stroke-linejoin="round" d="M 8593,5544 L 8593,5394"/>
 <path fill="none" stroke="rgb(179,179,179)" stroke-linejoin="round" d="M 9382,5544 L 9382,5394"/>
 <path fill="none" stroke="rgb(179,179,179)" stroke-linejoin="round" d="M 9382,5544 L 9382,5394"/>
 <path fill="none" stroke="rgb(179,179,179)" stroke-linejoin="round" d="M 10171,5544 L 10171,5394"/>
 <path fill="none" stroke="rgb(179,179,179)" stroke-linejoin="round" d="M 10171,5544 L 10171,5394"/>
 <path fill="none" stroke="rgb(179,179,179)" stroke-linejoin="round" d="M 10960,5544 L 10960,5394"/>
 <path fill="none" stroke="rgb(179,179,179)" stroke-linejoin="round" d="M 10960,5544 L 10960,5394"/>
 <path fill="none" stroke="rgb(179,179,179)" stroke-linejoin="round" d="M 11750,5544 L 11750,5394"/>
 <path fill="none" stroke="rgb(179,179,179)" stroke-linejoin="round" d="M 11750,5544 L 11750,5394"/>
 <path fill="none" stroke="rgb(179,179,179)" stroke-linejoin="round" d="M 12539,5544 L 12539,5394"/>
 <path fill="none" stroke="rgb(179,179,179)" stroke-linejoin="round" d="M 12539,5544 L 12539,5394"/>
 <path fill="none" stroke="rgb(179,179,179)" stroke-linejoin="round" d="M 13328,5544 L 13328,5394"/>
 <path fill="none" stroke="rgb(179,179,179)" stroke-linejoin="round" d="M 13328,5544 L 13328,5394"/>
 <path fill="none" stroke="rgb(179,179,179)" stroke-linejoin="round" d="M 14117,5544 L 14117,5394"/>
 <path fill="none" stroke="rgb(179,179,179)" stroke-linejoin="round" d="M 14117,5544 L 14117,5394"/>
 <path fill="none" stroke="rgb(179,179,179)" stroke-linejoin="round" d="M 14906,5544 L 14906,5394"/>
 <path fill="none" stroke="rgb(179,179,179)" stroke-linejoin="round" d="M 14906,5544 L 14906,5394"/>
 <path fill="none" stroke="rgb(179,179,179)" stroke-linejoin="round" d="M 15696,5544 L 15696,5394"/>
 <path fill="none" stroke="rgb(179,179,179)" stroke-linejoin="round" d="M 15696,5544 L 15696,5394"/>
 <path fill="none" stroke="rgb(179,179,179)" stroke-linejoin="round" d="M 2281,5394 L 15696,5394"/>
 <path fill="none" stroke="rgb(179,179,179)" stroke-linejoin="round" d="M 2131,5394 L 2281,5394"/>
 <path fill="none" stroke="rgb(179,179,179)" stroke-linejoin="round" d="M 2131,5394 L 2281,5394"/>
 <path fill="none" stroke="rgb(179,179,179)" stroke-linejoin="round" d="M 2131,4507 L 2281,4507"/>
 <path fill="none" stroke="rgb(179,179,179)" stroke-linejoin="round" d="M 2131,4507 L 2281,4507"/>
 <path fill="none" stroke="rgb(179,179,179)" stroke-linejoin="round" d="M 2131,3621 L 2281,3621"/>
 <path fill="none" stroke="rgb(179,179,179)" stroke-linejoin="round" d="M 2131,3621 L 2281,3621"/>
 <path fill="none" stroke="rgb(179,179,179)" stroke-linejoin="round" d="M 2131,2735 L 2281,2735"/>
 <path fill="none" stroke="rgb(179,179,179)" stroke-linejoin="round" d="M 2131,2735 L 2281,2735"/>
 <path fill="none" stroke="rgb(179,179,179)" stroke-linejoin="round" d="M 2131,1848 L 2281,1848"/>
 <path fill="none" stroke="rgb(179,179,179)" stroke-linejoin="round" d="M 2131,1848 L 2281,1848"/>
 <path fill="none" stroke="rgb(179,179,179)" stroke-linejoin="round" d="M 2131,962 L 2281,962"/>
 <path fill="none" stroke="rgb(179,179,179)" stroke-linejoin="round" d="M 2131,962 L 2281,962"/>
 <path fill="none" stroke="rgb(179,179,179)" stroke-linejoin="round" d="M 2281,5394 L 2281,962"/>
 <path fill="rgb(0,132,209)" stroke="none" d="M 15104,5394 L 15498,5394 15498,5176 15104,5176 15104,5394 Z"/>
 <path fill="rgb(0,132,209)" stroke="none" d="M 14314,5394 L 14709,5394 14709,5176 14314,5176 14314,5394 Z"/>
 <path fill="rgb(0,132,209)" stroke="none" d="M 13525,5394 L 13920,5394 13920,4749 13525,4749 13525,5394 Z"/>
 <path fill="none" stroke="rgb(0,69,134)" stroke-width="100" stroke-linejoin="round" d="M 13525,5394 L 13920,5394 13920,4749 13525,4749 13525,5394 Z"/>
 <path fill="rgb(0,132,209)" stroke="none" d="M 12736,5394 L 13131,5394 13131,5212 12736,5212 12736,5394 Z"/>
 <path fill="rgb(0,132,209)" stroke="none" d="M 11947,5394 L 12342,5394 12342,5212 11947,5212 11947,5394 Z"/>
 <path fill="rgb(0,132,209)" stroke="none" d="M 11158,5394 L 11552,5394 11552,5212 11158,5212 11158,5394 Z"/>
 <path fill="rgb(0,132,209)" stroke="none" d="M 10369,5394 L 10763,5394 10763,5212 10369,5212 10369,5394 Z"/>
 <path fill="rgb(0,132,209)" stroke="none" d="M 9579,5394 L 9974,5394 9974,5212 9579,5212 9579,5394 Z"/>
 <path fill="none" stroke="rgb(0,69,134)" stroke-width="100" stroke-linejoin="round" d="M 9579,5394 L 9974,5394 9974,5212 9579,5212 9579,5394 Z"/>
 <path fill="rgb(0,132,209)" stroke="none" d="M 8790,5394 L 9185,5394 9185,5176 8790,5176 8790,5394 Z"/>
 <path fill="rgb(0,132,209)" stroke="none" d="M 8002,5394 L 8396,5394 8396,4749 8002,4749 8002,5394 Z"/>
 <path fill="rgb(0,132,209)" stroke="none" d="M 7213,5394 L 7607,5394 7607,5176 7213,5176 7213,5394 Z"/>
 <path fill="rgb(0,132,209)" stroke="none" d="M 6424,5394 L 6818,5394 6818,4746 6424,4746 6424,5394 Z"/>
 <path fill="rgb(0,132,209)" stroke="none" d="M 5635,5394 L 6029,5394 6029,4749 5635,4749 5635,5394 Z"/>
 <path fill="none" stroke="rgb(0,69,134)" stroke-width="100" stroke-linejoin="round" d="M 5635,5394 L 6029,5394 6029,4749 5635,4749 5635,5394 Z"/>
 <path fill="rgb(0,132,209)" stroke="none" d="M 4845,5394 L 5240,5394 5240,4749 4845,4749 4845,5394 Z"/>
 <path fill="rgb(0,132,209)" stroke="none" d="M 4056,5394 L 4451,5394 4451,5194 4056,5194 4056,5394 Z"/>
 <path fill="rgb(0,132,209)" stroke="none" d="M 3267,5394 L 3662,5394 3662,5212 3267,5212 3267,5394 Z"/>
 <path fill="rgb(0,132,209)" stroke="none" d="M 2478,5394 L 2872,5394 2872,4749 2478,4749 2478,5394 Z"/>
 <path fill="rgb(255,66,14)" stroke="none" d="M 15104,5176 L 15498,5176 15498,3827 15104,3827 15104,5176 Z"/>
 <path fill="rgb(255,66,14)" stroke="none" d="M 14314,5176 L 14709,5176 14709,4962 14314,4962 14314,5176 Z"/>
 <path fill="rgb(255,66,14)" stroke="none" d="M 13525,4749 L 13920,4749 13920,3400 13525,3400 13525,4749 Z"/>
 <path fill="none" stroke="rgb(0,69,134)" stroke-width="100" stroke-linejoin="round" d="M 13525,4749 L 13920,4749 13920,3400 13525,3400 13525,4749 Z"/>
 <path fill="rgb(255,66,14)" stroke="none" d="M 12736,5212 L 13131,5212 13131,4148 12736,4148 12736,5212 Z"/>
 <path fill="rgb(255,66,14)" stroke="none" d="M 11947,5212 L 12342,5212 12342,2198 11947,2198 11947,5212 Z"/>
 <path fill="rgb(255,66,14)" stroke="none" d="M 11158,5212 L 11552,5212 11552,3057 11158,3057 11158,5212 Z"/>
 <path fill="rgb(255,66,14)" stroke="none" d="M 10369,5212 L 10763,5212 10763,3289 10369,3289 10369,5212 Z"/>
 <path fill="rgb(255,66,14)" stroke="none" d="M 9579,5212 L 9974,5212 9974,3288 9579,3288 9579,5212 Z"/>
 <path fill="none" stroke="rgb(0,69,134)" stroke-width="100" stroke-linejoin="round" d="M 9579,5212 L 9974,5212 9974,3288 9579,3288 9579,5212 Z"/>
 <path fill="rgb(255,66,14)" stroke="none" d="M 8790,5176 L 9185,5176 9185,5099 8790,5099 8790,5176 Z"/>
 <path fill="rgb(255,66,14)" stroke="none" d="M 8002,4749 L 8396,4749 8396,1250 8002,1250 8002,4749 Z"/>
 <path fill="rgb(255,66,14)" stroke="none" d="M 7213,5176 L 7607,5176 7607,4962 7213,4962 7213,5176 Z"/>
 <path fill="rgb(255,66,14)" stroke="none" d="M 6424,4746 L 6818,4746 6818,4737 6424,4737 6424,4746 Z"/>
 <path fill="rgb(255,66,14)" stroke="none" d="M 5635,4749 L 6029,4749 6029,3477 5635,3477 5635,4749 Z"/>
 <path fill="none" stroke="rgb(0,69,134)" stroke-width="100" stroke-linejoin="round" d="M 5635,4749 L 6029,4749 6029,3477 5635,3477 5635,4749 Z"/>
 <path fill="rgb(255,211,32)" stroke="none" d="M 15104,3827 L 15498,3827 15498,3758 15104,3758 15104,3827 Z"/>
 <path fill="rgb(255,211,32)" stroke="none" d="M 14314,4962 L 14709,4962 14709,4893 14314,4893 14314,4962 Z"/>
 <path fill="rgb(255,211,32)" stroke="none" d="M 13525,3400 L 13920,3400 13920,3331 13525,3331 13525,3400 Z"/>
 <path fill="none" stroke="rgb(0,69,134)" stroke-width="100" stroke-linejoin="round" d="M 13525,3400 L 13920,3400 13920,3331 13525,3331 13525,3400 Z"/>
 <path fill="rgb(255,211,32)" stroke="none" d="M 12736,4148 L 13131,4148 13131,3950 12736,3950 12736,4148 Z"/>
 <path fill="rgb(255,211,32)" stroke="none" d="M 11947,2198 L 12342,2198 12342,1999 11947,1999 11947,2198 Z"/>
 <path fill="rgb(255,211,32)" stroke="none" d="M 11158,3057 L 11552,3057 11552,2858 11158,2858 11158,3057 Z"/>
 <path fill="rgb(255,211,32)" stroke="none" d="M 10369,3289 L 10763,3289 10763,3090 10369,3090 10369,3289 Z"/>
 <path fill="rgb(255,211,32)" stroke="none" d="M 9579,3288 L 9974,3288 9974,3089 9579,3089 9579,3288 Z"/>
 <path fill="none" stroke="rgb(0,69,134)" stroke-width="100" stroke-linejoin="round" d="M 9579,3288 L 9974,3288 9974,3089 9579,3089 9579,3288 Z"/>
 <text class="TextShape" transform="translate(2066,6561) rotate(-44.9) translate(-2066,-6561)"><tspan class="TextParagraph" font-family="Liberation Sans" font-size="353px" font-weight="400"><tspan class="TextPosition" x="2066" y="6561"><tspan fill="rgb(0,0,0)" stroke="none">Scope</tspan></tspan></tspan></text>
 <text class="TextShape" transform="translate(2087,7329) rotate(-44.9) translate(-2087,-7329)"><tspan class="TextParagraph" font-family="Liberation Sans" font-size="353px" font-weight="400"><tspan class="TextPosition" x="2087" y="7329"><tspan fill="rgb(0,0,0)" stroke="none">Conflicts with</tspan></tspan></tspan></text>
 <text class="TextShape" transform="translate(2278,7927) rotate(-44.9) translate(-2278,-7927)"><tspan class="TextParagraph" font-family="Liberation Sans" font-size="353px" font-weight="400"><tspan class="TextPosition" x="2278" y="7927"><tspan fill="rgb(0,0,0)" stroke="none">Allowed entity type</tspan></tspan></tspan></text>
 <text class="TextShape" transform="translate(4284,6711) rotate(-44.9) translate(-4284,-6711)"><tspan class="TextParagraph" font-family="Liberation Sans" font-size="353px" font-weight="400"><tspan class="TextPosition" x="4284" y="6711"><tspan fill="rgb(0,0,0)" stroke="none">None of</tspan></tspan></tspan></text>
 <text class="TextShape" transform="translate(4306,7479) rotate(-44.9) translate(-4306,-7479)"><tspan class="TextParagraph" font-family="Liberation Sans" font-size="353px" font-weight="400"><tspan class="TextPosition" x="4306" y="7479"><tspan fill="rgb(0,0,0)" stroke="none">Distinct values</tspan></tspan></tspan></text>
 <text class="TextShape" transform="translate(5263,7310) rotate(-44.9) translate(-5263,-7310)"><tspan class="TextParagraph" font-family="Liberation Sans" font-size="353px" font-weight="400"><tspan class="TextPosition" x="5263" y="7310"><tspan fill="rgb(0,0,0)" stroke="none">Allowed units</tspan></tspan></tspan></text>
 <text class="TextShape" transform="translate(5603,7759) rotate(-44.9) translate(-5603,-7759)"><tspan class="TextParagraph" font-family="Liberation Sans" font-size="353px" font-weight="400"><tspan class="TextPosition" x="5603" y="7759"><tspan fill="rgb(0,0,0)" stroke="none">Allowed qualifiers</tspan></tspan></tspan></text>
 <text class="TextShape" transform="translate(7552,6599) rotate(-44.9) translate(-7552,-6599)"><tspan class="TextParagraph" font-family="Liberation Sans" font-size="353px" font-weight="400"><tspan class="TextPosition" x="7552" y="6599"><tspan fill="rgb(0,0,0)" stroke="none">One-of</tspan></tspan></tspan></text>
 <text class="TextShape" transform="translate(6772,8170) rotate(-44.9) translate(-6772,-8170)"><tspan class="TextParagraph" font-family="Liberation Sans" font-size="353px" font-weight="400"><tspan class="TextPosition" x="6772" y="8170"><tspan fill="rgb(0,0,0)" stroke="none">One-of qualifier value</tspan></tspan></tspan></text>
 <text class="TextShape" transform="translate(7279,8451) rotate(-44.9) translate(-7279,-8451)"><tspan class="TextParagraph" font-family="Liberation Sans" font-size="353px" font-weight="400"><tspan class="TextPosition" x="7279" y="8451"><tspan fill="rgb(0,0,0)" stroke="none">Item requires statement</tspan></tspan></tspan></text>
 <text class="TextShape" transform="translate(7956,8563) rotate(-44.9) translate(-7956,-8563)"><tspan class="TextParagraph" font-family="Liberation Sans" font-size="353px" font-weight="400"><tspan class="TextPosition" x="7956" y="8563"><tspan fill="rgb(0,0,0)" stroke="none">Value requires statement</tspan></tspan></tspan></text>
 <text class="TextShape" transform="translate(10635,6674) rotate(-44.9) translate(-10635,-6674)"><tspan class="TextParagraph" font-family="Liberation Sans" font-size="353px" font-weight="400"><tspan class="TextPosition" x="10635" y="6674"><tspan fill="rgb(0,0,0)" stroke="none">Inverse</tspan></tspan></tspan></text>
 <text class="TextShape" transform="translate(11049,7049) rotate(-44.9) translate(-11049,-7049)"><tspan class="TextParagraph" font-family="Liberation Sans" font-size="353px" font-weight="400"><tspan class="TextPosition" x="11049" y="7049"><tspan fill="rgb(0,0,0)" stroke="none">Symmetric</tspan></tspan></tspan></text>
 <text class="TextShape" transform="translate(11819,7067) rotate(-44.9) translate(-11819,-7067)"><tspan class="TextParagraph" font-family="Liberation Sans" font-size="353px" font-weight="400"><tspan class="TextPosition" x="11819" y="7067"><tspan fill="rgb(0,0,0)" stroke="none">Multi-Value</tspan></tspan></tspan></text>
 <text class="TextShape" transform="translate(12477,7199) rotate(-44.9) translate(-12477,-7199)"><tspan class="TextParagraph" font-family="Liberation Sans" font-size="353px" font-weight="400"><tspan class="TextPosition" x="12477" y="7199"><tspan fill="rgb(0,0,0)" stroke="none">Single value</tspan></tspan></tspan></text>
 <text class="TextShape" transform="translate(12537,7927) rotate(-44.9) translate(-12537,-7927)"><tspan class="TextParagraph" font-family="Liberation Sans" font-size="353px" font-weight="400"><tspan class="TextPosition" x="12537" y="7927"><tspan fill="rgb(0,0,0)" stroke="none">mandatory qualifier</tspan></tspan></tspan></text>
 <text class="TextShape" transform="translate(13513,7741) rotate(-44.9) translate(-13513,-7741)"><tspan class="TextParagraph" font-family="Liberation Sans" font-size="353px" font-weight="400"><tspan class="TextPosition" x="13513" y="7741"><tspan fill="rgb(0,0,0)" stroke="none">Single best value</tspan></tspan></tspan></text>
 <text class="TextShape"><tspan class="TextParagraph" font-family="Liberation Sans" font-size="353px" font-weight="400"><tspan class="TextPosition" x="1846" y="5515"><tspan fill="rgb(0,0,0)" stroke="none">0</tspan></tspan></tspan></text>
 <text class="TextShape"><tspan class="TextParagraph" font-family="Liberation Sans" font-size="353px" font-weight="400"><tspan class="TextPosition" x="523" y="4628"><tspan fill="rgb(0,0,0)" stroke="none">5,000,000</tspan></tspan></tspan></text>
 <text class="TextShape"><tspan class="TextParagraph" font-family="Liberation Sans" font-size="353px" font-weight="400"><tspan class="TextPosition" x="338" y="3741"><tspan fill="rgb(0,0,0)" stroke="none">10,000,000</tspan></tspan></tspan></text>
 <text class="TextShape"><tspan class="TextParagraph" font-family="Liberation Sans" font-size="353px" font-weight="400"><tspan class="TextPosition" x="338" y="2855"><tspan fill="rgb(0,0,0)" stroke="none">15,000,000</tspan></tspan></tspan></text>
 <text class="TextShape"><tspan class="TextParagraph" font-family="Liberation Sans" font-size="353px" font-weight="400"><tspan class="TextPosition" x="338" y="1968"><tspan fill="rgb(0,0,0)" stroke="none">20,000,000</tspan></tspan></tspan></text>
 <text class="TextShape"><tspan class="TextParagraph" font-family="Liberation Sans" font-size="353px" font-weight="400"><tspan class="TextPosition" x="338" y="1082"><tspan fill="rgb(0,0,0)" stroke="none">25,000,000</tspan></tspan></tspan></text>
 <path fill="rgb(0,132,209)" stroke="none" d="M 5806,589 L 5701,589 5701,378 5912,378 5912,589 5806,589 Z"/>
 <path fill="rgb(255,66,14)" stroke="none" d="M 7092,589 L 6987,589 6987,378 7198,378 7198,589 7092,589 Z"/>
 <path fill="rgb(255,211,32)" stroke="none" d="M 9092,589 L 8986,589 8986,378 9197,378 9197,589 9092,589 Z"/>
 <text class="TextShape"><tspan class="TextParagraph" font-family="Liberation Sans" font-size="353px" font-weight="400"><tspan class="TextPosition" x="6012" y="603"><tspan fill="rgb(0,0,0)" stroke="none">base</tspan></tspan></tspan></text>
 <text class="TextShape"><tspan class="TextParagraph" font-family="Liberation Sans" font-size="353px" font-weight="400"><tspan class="TextPosition" x="7298" y="603"><tspan fill="rgb(0,0,0)" stroke="none">inequality</tspan></tspan></tspan></text>
 <text class="TextShape"><tspan class="TextParagraph" font-family="Liberation Sans" font-size="353px" font-weight="400"><tspan class="TextPosition" x="9297" y="603"><tspan fill="rgb(0,0,0)" stroke="none">require</tspan></tspan></tspan></text>
</svg>