<?xml version="1.0" encoding="UTF-8"?>
<!DOCTYPE svg PUBLIC "-//W3C//DTD SVG 1.1//EN" "http://www.w3.org/Graphics/SVG/1.1/DTD/svg11.dtd">
<svg width="160mm" height="90mm" viewBox="0 0 16000 9000" version="1.1" xmlns="http://www.w3.org/2000/svg" stroke-width="28.222" stroke-linejoin="round" xml:space="preserve">
 <path fill="rgb(255,255,255)" stroke="none" d="M 8017,8999 L 17,8999 17,0 16016,0 16016,8999 8017,8999 Z"/>
 <path fill="none" stroke="rgb(179,179,179)" stroke-linejoin="round" d="M 9494,5395 L 3292,5395 3292,963 15696,963 15696,5395 9494,5395 Z"/>
 <path fill="none" stroke="rgb(179,179,179)" stroke-linejoin="round" d="M 15696,5394 L 3292,5394"/>
 <path fill="none" stroke="rgb(179,179,179)" stroke-linejoin="round" d="M 15696,4507 L 3292,4507"/>
 <path fill="none" stroke="rgb(179,179,179)" stroke-linejoin="round" d="M 15696,3621 L 3292,3621"/>
 <path fill="none" stroke="rgb(179,179,179)" stroke-linejoin="round" d="M 15696,2735 L 3292,2735"/>
 <path fill="none" stroke="rgb(179,179,179)" stroke-linejoin="round" d="M 15696,1848 L 3292,1848"/>
 <path fill="none" stroke="rgb(179,179,179)" stroke-linejoin="round" d="M 15696,962 L 3292,962"/>
 <path fill="none" stroke="rgb(179,179,179)" stroke-linejoin="round" d="M 3292,5544 L 3292,5394"/>
 <path fill="none" stroke="rgb(179,179,179)" stroke-linejoin="round" d="M 3292,5544 L 3292,5394"/>
 <path fill="none" stroke="rgb(179,179,179)" stroke-linejoin="round" d="M 4021,5544 L 4021,5394"/>
 <path fill="none" stroke="rgb(179,179,179)" stroke-linejoin="round" d="M 4021,5544 L 4021,5394"/>
 <path fill="none" stroke="rgb(179,179,179)" stroke-linejoin="round" d="M 4751,5544 L 4751,5394"/>
 <path fill="none" stroke="rgb(179,179,179)" stroke-linejoin="round" d="M 4751,5544 L 4751,5394"/>
 <path fill="none" stroke="rgb(179,179,179)" stroke-linejoin="round" d="M 5481,5544 L 5481,5394"/>
 <path fill="none" stroke="rgb(179,179,179)" stroke-linejoin="round" d="M 5481,5544 L 5481,5394"/>
 <path fill="none" stroke="rgb(179,179,179)" stroke-linejoin="round" d="M 6210,5544 L 6210,5394"/>
 <path fill="none" stroke="rgb(179,179,179)" stroke-linejoin="round" d="M 6210,5544 L 6210,5394"/>
 <path fill="none" stroke="rgb(179,179,179)" stroke-linejoin="round" d="M 6940,5544 L 6940,5394"/>
 <path fill="none" stroke="rgb(179,179,179)" stroke-linejoin="round" d="M 6940,5544 L 6940,5394"/>
 <path fill="none" stroke="rgb(179,179,179)" stroke-linejoin="round" d="M 7670,5544 L 7670,5394"/>
 <path fill="none" stroke="rgb(179,179,179)" stroke-linejoin="round" d="M 7670,5544 L 7670,5394"/>
 <path fill="none" stroke="rgb(179,179,179)" stroke-linejoin="round" d="M 8398,5544 L 8398,5394"/>
 <path fill="none" stroke="rgb(179,179,179)" stroke-linejoin="round" d="M 8398,5544 L 8398,5394"/>
 <path fill="none" stroke="rgb(179,179,179)" stroke-linejoin="round" d="M 9128,5544 L 9128,5394"/>
 <path fill="none" stroke="rgb(179,179,179)" stroke-linejoin="round" d="M 9128,5544 L 9128,5394"/>
 <path fill="none" stroke="rgb(179,179,179)" stroke-linejoin="round" d="M 9858,5544 L 9858,5394"/>
 <path fill="none" stroke="rgb(179,179,179)" stroke-linejoin="round" d="M 9858,5544 L 9858,5394"/>
 <path fill="none" stroke="rgb(179,179,179)" stroke-linejoin="round" d="M 10588,5544 L 10588,5394"/>
 <path fill="none" stroke="rgb(179,179,179)" stroke-linejoin="round" d="M 10588,5544 L 10588,5394"/>
 <path fill="none" stroke="rgb(179,179,179)" stroke-linejoin="round" d="M 11317,5544 L 11317,5394"/>
 <path fill="none" stroke="rgb(179,179,179)" stroke-linejoin="round" d="M 11317,5544 L 11317,5394"/>
 <path fill="none" stroke="rgb(179,179,179)" stroke-linejoin="round" d="M 12047,5544 L 12047,5394"/>
 <path fill="none" stroke="rgb(179,179,179)" stroke-linejoin="round" d="M 12047,5544 L 12047,5394"/>
 <path fill="none" stroke="rgb(179,179,179)" stroke-linejoin="round" d="M 12777,5544 L 12777,5394"/>
 <path fill="none" stroke="rgb(179,179,179)" stroke-linejoin="round" d="M 12777,5544 L 12777,5394"/>
 <path fill="none" stroke="rgb(179,179,179)" stroke-linejoin="round" d="M 13506,5544 L 13506,5394"/>
 <path fill="none" stroke="rgb(179,179,179)" stroke-linejoin="round" d="M 13506,5544 L 13506,5394"/>
 <path fill="none" stroke="rgb(179,179,179)" stroke-linejoin="round" d="M 14236,5544 L 14236,5394"/>
 <path fill="none" stroke="rgb(179,179,179)" stroke-linejoin="round" d="M 14236,5544 L 14236,5394"/>
 <path fill="none" stroke="rgb(179,179,179)" stroke-linejoin="round" d="M 14966,5544 L 14966,5394"/>
 <path fill="none" stroke="rgb(179,179,179)" stroke-linejoin="round" d="M 14966,5544 L 14966,5394"/>
 <path fill="none" stroke="rgb(179,179,179)" stroke-linejoin="round" d="M 15696,5544 L 15696,5394"/>
 <path fill="none" stroke="rgb(179,179,179)" stroke-linejoin="round" d="M 15696,5544 L 15696,5394"/>
 <path fill="none" stroke="rgb(179,179,179)" stroke-linejoin="round" d="M 3292,5394 L 15696,5394"/>
 <path fill="none" stroke="rgb(179,179,179)" stroke-linejoin="round" d="M 3142,5394 L 3292,5394"/>
 <path fill="none" stroke="rgb(179,179,179)" stroke-linejoin="round" d="M 3142,5394 L 3292,5394"/>
 <path fill="none" stroke="rgb(179,179,179)" stroke-linejoin="round" d="M 3142,4507 L 3292,4507"/>
 <path fill="none" stroke="rgb(179,179,179)" stroke-linejoin="round" d="M 3142,4507 L 3292,4507"/>
 <path fill="none" stroke="rgb(179,179,179)" stroke-linejoin="round" d="M 3142,3621 L 3292,3621"/>
 <path fill="none" stroke="rgb(179,179,179)" stroke-linejoin="round" d="M 3142,3621 L 3292,3621"/>
 <path fill="none" stroke="rgb(179,179,179)" stroke-linejoin="round" d="M 3142,2735 L 3292,2735"/>
 <path fill="none" stroke="rgb(179,179,179)" stroke-linejoin="round" d="M 3142,2735 L 3292,2735"/>
 <path fill="none" stroke="rgb(179,179,179)" stroke-linejoin="round" d="M 3142,1848 L 3292,1848"/>
 <path fill="none" stroke="rgb(179,179,179)" stroke-linejoin="round" d="M 3142,1848 L 3292,1848"/>
 <path fill="none" stroke="rgb(179,179,179)" stroke-linejoin="round" d="M 3142,962 L 3292,962"/>
 <path fill="none" stroke="rgb(179,179,179)" stroke-linejoin="round" d="M 3142,962 L 3292,962"/>
 <path fill="none" stroke="rgb(179,179,179)" stroke-linejoin="round" d="M 3292,5394 L 3292,962"/>
 <path fill="rgb(0,132,209)" stroke="none" d="M 15148,5394 L 15513,5394 15513,5176 15148,5176 15148,5394 Z"/>
 <path fill="rgb(0,132,209)" stroke="none" d="M 14419,5394 L 14783,5394 14783,5176 14419,5176 14419,5394 Z"/>
 <path fill="rgb(0,132,209)" stroke="none" d="M 13689,5394 L 14054,5394 14054,4749 13689,4749 13689,5394 Z"/>
 <path fill="rgb(0,132,209)" stroke="none" d="M 12959,5394 L 13324,5394 13324,5212 12959,5212 12959,5394 Z"/>
 <path fill="rgb(0,132,209)" stroke="none" d="M 12229,5394 L 12594,5394 12594,5212 12229,5212 12229,5394 Z"/>
 <path fill="rgb(0,132,209)" stroke="none" d="M 11500,5394 L 11865,5394 11865,5212 11500,5212 11500,5394 Z"/>
 <path fill="rgb(0,132,209)" stroke="none" d="M 10770,5394 L 11135,5394 11135,5212 10770,5212 10770,5394 Z"/>
 <path fill="rgb(0,132,209)" stroke="none" d="M 10040,5394 L 10405,5394 10405,5212 10040,5212 10040,5394 Z"/>
 <path fill="rgb(0,132,209)" stroke="none" d="M 9311,5394 L 9675,5394 9675,5176 9311,5176 9311,5394 Z"/>
 <path fill="rgb(0,132,209)" stroke="none" d="M 8581,5394 L 8946,5394 8946,4749 8581,4749 8581,5394 Z"/>
 <path fill="rgb(0,132,209)" stroke="none" d="M 7852,5394 L 8216,5394 8216,5176 7852,5176 7852,5394 Z"/>
 <path fill="rgb(0,132,209)" stroke="none" d="M 7122,5394 L 7487,5394 7487,4746 7122,4746 7122,5394 Z"/>
 <path fill="rgb(0,132,209)" stroke="none" d="M 6393,5394 L 6758,5394 6758,4749 6393,4749 6393,5394 Z"/>
 <path fill="rgb(0,132,209)" stroke="none" d="M 5663,5394 L 6028,5394 6028,4749 5663,4749 5663,5394 Z"/>
 <path fill="rgb(0,132,209)" stroke="none" d="M 4933,5394 L 5298,5394 5298,5194 4933,5194 4933,5394 Z"/>
 <path fill="rgb(0,132,209)" stroke="none" d="M 4204,5394 L 4568,5394 4568,5212 4204,5212 4204,5394 Z"/>
 <path fill="rgb(0,132,209)" stroke="none" d="M 3474,5394 L 3839,5394 3839,4749 3474,4749 3474,5394 Z"/>
 <path fill="rgb(255,66,14)" stroke="none" d="M 15148,5176 L 15513,5176 15513,3827 15148,3827 15148,5176 Z"/>
 <path fill="rgb(255,66,14)" stroke="none" d="M 14419,5176 L 14783,5176 14783,4962 14419,4962 14419,5176 Z"/>
 <path fill="rgb(255,66,14)" stroke="none" d="M 13689,4749 L 14054,4749 14054,3400 13689,3400 13689,4749 Z"/>
 <path fill="rgb(255,66,14)" stroke="none" d="M 12959,5212 L 13324,5212 13324,4148 12959,4148 12959,5212 Z"/>
 <path fill="rgb(255,66,14)" stroke="none" d="M 12229,5212 L 12594,5212 12594,2198 12229,2198 12229,5212 Z"/>
 <path fill="rgb(255,66,14)" stroke="none" d="M 11500,5212 L 11865,5212 11865,3057 11500,3057 11500,5212 Z"/>
 <path fill="rgb(255,66,14)" stroke="none" d="M 10770,5212 L 11135,5212 11135,3289 10770,3289 10770,5212 Z"/>
 <path fill="rgb(255,66,14)" stroke="none" d="M 10040,5212 L 10405,5212 10405,3288 10040,3288 10040,5212 Z"/>
 <path fill="rgb(255,66,14)" stroke="none" d="M 9311,5176 L 9675,5176 9675,5099 9311,5099 9311,5176 Z"/>
 <path fill="rgb(255,66,14)" stroke="none" d="M 8581,4749 L 8946,4749 8946,1250 8581,1250 8581,4749 Z"/>
 <path fill="rgb(255,66,14)" stroke="none" d="M 7852,5176 L 8216,5176 8216,4962 7852,4962 7852,5176 Z"/>
 <path fill="rgb(255,66,14)" stroke="none" d="M 7122,4746 L 7487,4746 7487,4737 7122,4737 7122,4746 Z"/>
 <path fill="rgb(255,66,14)" stroke="none" d="M 6393,4749 L 6758,4749 6758,3477 6393,3477 6393,4749 Z"/>
 <path fill="rgb(255,211,32)" stroke="none" d="M 15148,3827 L 15513,3827 15513,3758 15148,3758 15148,3827 Z"/>
 <path fill="rgb(255,211,32)" stroke="none" d="M 14419,4962 L 14783,4962 14783,4893 14419,4893 14419,4962 Z"/>
 <path fill="rgb(255,211,32)" stroke="none" d="M 13689,3400 L 14054,3400 14054,3331 13689,3331 13689,3400 Z"/>
 <path fill="rgb(255,211,32)" stroke="none" d="M 12959,4148 L 13324,4148 13324,3950 12959,3950 12959,4148 Z"/>
 <path fill="rgb(255,211,32)" stroke="none" d="M 12229,2198 L 12594,2198 12594,1999 12229,1999 12229,2198 Z"/>
 <path fill="rgb(255,211,32)" stroke="none" d="M 11500,3057 L 11865,3057 11865,2858 11500,2858 11500,3057 Z"/>
 <path fill="rgb(255,211,32)" stroke="none" d="M 10770,3289 L 11135,3289 11135,3090 10770,3090 10770,3289 Z"/>
 <path fill="rgb(255,211,32)" stroke="none" d="M 10040,3288 L 10405,3288 10405,3089 10040,3089 10040,3288 Z"/>
 <text class="TextShape" transform="translate(3047,6561) rotate(-44.9) translate(-3047,-6561)"><tspan class="TextParagraph" font-family="Liberation Sans, sans-serif" font-size="353px" font-weight="400"><tspan class="TextPosition" x="3047" y="6561"><tspan fill="rgb(0,0,0)" stroke="none">Scope</tspan></tspan></tspan></text>
 <text class="TextShape" transform="translate(3009,7329) rotate(-44.9) translate(-3009,-7329)"><tspan class="TextParagraph" font-family="Liberation Sans, sans-serif" font-size="353px" font-weight="400"><tspan class="TextPosition" x="3009" y="7329"><tspan fill="rgb(0,0,0)" stroke="none">Conflicts with</tspan></tspan></tspan></text>
 <text class="TextShape" transform="translate(3141,7927) rotate(-44.9) translate(-3141,-7927)"><tspan class="TextParagraph" font-family="Liberation Sans, sans-serif" font-size="353px" font-weight="400"><tspan class="TextPosition" x="3141" y="7927"><tspan fill="rgb(0,0,0)" stroke="none">Allowed entity type</tspan></tspan></tspan></text>
 <text class="TextShape" transform="translate(5086,6711) rotate(-44.9) translate(-5086,-6711)"><tspan class="TextParagraph" font-family="Liberation Sans, sans-serif" font-size="353px" font-weight="400"><tspan class="TextPosition" x="5086" y="6711"><tspan fill="rgb(0,0,0)" stroke="none">None of</tspan></tspan></tspan></text>
 <text class="TextShape" transform="translate(5049,7479) rotate(-44.9) translate(-5049,-7479)"><tspan class="TextParagraph" font-family="Liberation Sans, sans-serif" font-size="353px" font-weight="400"><tspan class="TextPosition" x="5049" y="7479"><tspan fill="rgb(0,0,0)" stroke="none">Distinct values</tspan></tspan></tspan></text>
 <text class="TextShape" transform="translate(5947,7310) rotate(-44.9) translate(-5947,-7310)"><tspan class="TextParagraph" font-family="Liberation Sans, sans-serif" font-size="353px" font-weight="400"><tspan class="TextPosition" x="5947" y="7310"><tspan fill="rgb(0,0,0)" stroke="none">Allowed units</tspan></tspan></tspan></text>
 <text class="TextShape" transform="translate(6228,7759) rotate(-44.9) translate(-6228,-7759)"><tspan class="TextParagraph" font-family="Liberation Sans, sans-serif" font-size="353px" font-weight="400"><tspan class="TextPosition" x="6228" y="7759"><tspan fill="rgb(0,0,0)" stroke="none">Allowed qualifiers</tspan></tspan></tspan></text>
 <text class="TextShape" transform="translate(8117,6599) rotate(-44.9) translate(-8117,-6599)"><tspan class="TextParagraph" font-family="Liberation Sans, sans-serif" font-size="353px" font-weight="400"><tspan class="TextPosition" x="8117" y="6599"><tspan fill="rgb(0,0,0)" stroke="none">One-of</tspan></tspan></tspan></text>
 <text class="TextShape" transform="translate(7277,8170) rotate(-44.9) translate(-7277,-8170)"><tspan class="TextParagraph" font-family="Liberation Sans, sans-serif" font-size="353px" font-weight="400"><tspan class="TextPosition" x="7277" y="8170"><tspan fill="rgb(0,0,0)" stroke="none">One-of qualifier value</tspan></tspan></tspan></text>
 <text class="TextShape" transform="translate(7725,8451) rotate(-44.9) translate(-7725,-8451)"><tspan class="TextParagraph" font-family="Liberation Sans, sans-serif" font-size="353px" font-weight="400"><tspan class="TextPosition" x="7725" y="8451"><tspan fill="rgb(0,0,0)" stroke="none">Item requires statement</tspan></tspan></tspan></text>
 <text class="TextShape" transform="translate(8342,8563) rotate(-44.9) translate(-8342,-8563)"><tspan class="TextParagraph" font-family="Liberation Sans, sans-serif" font-size="353px" font-weight="400"><tspan class="TextPosition" x="8342" y="8563"><tspan fill="rgb(0,0,0)" stroke="none">Value requires statement</tspan></tspan></tspan></text>
 <text class="TextShape" transform="translate(10962,6674) rotate(-44.9) translate(-10962,-6674)"><tspan class="TextParagraph" font-family="Liberation Sans, sans-serif" font-size="353px" font-weight="400"><tspan class="TextPosition" x="10962" y="6674"><tspan fill="rgb(0,0,0)" stroke="none">Inverse</tspan></tspan></tspan></text>
 <text class="TextShape" transform="translate(11317,7049) rotate(-44.9) translate(-11317,-7049)"><tspan class="TextParagraph" font-family="Liberation Sans, sans-serif" font-size="353px" font-weight="400"><tspan class="TextPosition" x="11317" y="7049"><tspan fill="rgb(0,0,0)" stroke="none">Symmetric</tspan></tspan></tspan></text>
 <text class="TextShape" transform="translate(12028,7067) rotate(-44.9) translate(-12028,-7067)"><tspan class="TextParagraph" font-family="Liberation Sans, sans-serif" font-size="353px" font-weight="400"><tspan class="TextPosition" x="12028" y="7067"><tspan fill="rgb(0,0,0)" stroke="none">Multi-Value</tspan></tspan></tspan></text>
 <text class="TextShape" transform="translate(12625,7199) rotate(-44.9) translate(-12625,-7199)"><tspan class="TextParagraph" font-family="Liberation Sans, sans-serif" font-size="353px" font-weight="400"><tspan class="TextPosition" x="12625" y="7199"><tspan fill="rgb(0,0,0)" stroke="none">Single value</tspan></tspan></tspan></text>
 <text class="TextShape" transform="translate(12626,7927) rotate(-44.9) translate(-12626,-7927)"><tspan class="TextParagraph" font-family="Liberation Sans, sans-serif" font-size="353px" font-weight="400"><tspan class="TextPosition" x="12626" y="7927"><tspan fill="rgb(0,0,0)" stroke="none">mandatory qualifier</tspan></tspan></tspan></text>
 <text class="TextShape" transform="translate(13543,7741) rotate(-44.9) translate(-13543,-7741)"><tspan class="TextParagraph" font-family="Liberation Sans, sans-serif" font-size="353px" font-weight="400"><tspan class="TextPosition" x="13543" y="7741"><tspan fill="rgb(0,0,0)" stroke="none">Single best value</tspan></tspan></tspan></text>
 <text class="TextShape"><tspan class="TextParagraph" font-family="Liberation Sans, sans-serif" font-size="353px" font-weight="400"><tspan class="TextPosition" x="2857" y="5515"><tspan fill="rgb(0,0,0)" stroke="none">0</tspan></tspan></tspan></text>
 <text class="TextShape"><tspan class="TextParagraph" font-family="Liberation Sans, sans-serif" font-size="353px" font-weight="400"><tspan class="TextPosition" x="1534" y="4628"><tspan fill="rgb(0,0,0)" stroke="none">5,000,000</tspan></tspan></tspan></text>
 <text class="TextShape"><tspan class="TextParagraph" font-family="Liberation Sans, sans-serif" font-size="353px" font-weight="400"><tspan class="TextPosition" x="1349" y="3741"><tspan fill="rgb(0,0,0)" stroke="none">10,000,000</tspan></tspan></tspan></text>
 <text class="TextShape"><tspan class="TextParagraph" font-family="Liberation Sans, sans-serif" font-size="353px" font-weight="400"><tspan class="TextPosition" x="1349" y="2855"><tspan fill="rgb(0,0,0)" stroke="none">15,000,000</tspan></tspan></tspan></text>
 <text class="TextShape"><tspan class="TextParagraph" font-family="Liberation Sans, sans-serif" font-size="353px" font-weight="400"><tspan class="TextPosition" x="1349" y="1968"><tspan fill="rgb(0,0,0)" stroke="none">20,000,000</tspan></tspan></tspan></text>
 <text class="TextShape"><tspan class="TextParagraph" font-family="Liberation Sans, sans-serif" font-size="353px" font-weight="400"><tspan class="TextPosition" x="1349" y="1082"><tspan fill="rgb(0,0,0)" stroke="none">25,000,000</tspan></tspan></tspan></text>
 <path fill="rgb(0,132,209)" stroke="none" d="M 5806,589 L 5701,589 5701,378 5912,378 5912,589 5806,589 Z"/>
 <path fill="rgb(255,66,14)" stroke="none" d="M 7092,589 L 6987,589 6987,378 7198,378 7198,589 7092,589 Z"/>
 <path fill="rgb(255,211,32)" stroke="none" d="M 9092,589 L 8986,589 8986,378 9197,378 9197,589 9092,589 Z"/>
 <text class="TextShape"><tspan class="TextParagraph" font-family="Liberation Sans, sans-serif" font-size="353px" font-weight="400"><tspan class="TextPosition" x="6012" y="603"><tspan fill="rgb(0,0,0)" stroke="none">base</tspan></tspan></tspan></text>
 <text class="TextShape"><tspan class="TextParagraph" font-family="Liberation Sans, sans-serif" font-size="353px" font-weight="400"><tspan class="TextPosition" x="7298" y="603"><tspan fill="rgb(0,0,0)" stroke="none">inequality</tspan></tspan></tspan></text>
 <text class="TextShape"><tspan class="TextParagraph" font-family="Liberation Sans, sans-serif" font-size="353px" font-weight="400"><tspan class="TextPosition" x="9297" y="603"><tspan fill="rgb(0,0,0)" stroke="none">require</tspan></tspan></tspan></text>
 <text class="TextShape" transform="translate(854,6015) rotate(-90) translate(-854,-6015)"><tspan class="TextParagraph" font-family="Liberation Sans, sans-serif" font-size="318px" font-weight="400"><tspan class="TextPosition" x="854" y="6015"><tspan fill="rgb(0,0,0)" stroke="none">Number of facts</tspan></tspan></tspan></text>
</svg>