<?xml version="1.0" encoding="UTF-8"?>
<!DOCTYPE svg PUBLIC "-//W3C//DTD SVG 1.1//EN" "http://www.w3.org/Graphics/SVG/1.1/DTD/svg11.dtd">
<svg width="160mm" height="90mm" viewBox="0 0 16000 9000" version="1.1" xmlns="http://www.w3.org/2000/svg" stroke-width="28.222" stroke-linejoin="round" xml:space="preserve">
 <path fill="rgb(255,255,255)" stroke="none" d="M 8060,8998 L 60,8998 60,-1 16059,-1 16059,8998 8060,8998 Z"/>
 <path fill="none" stroke="rgb(179,179,179)" stroke-linejoin="round" d="M 9394,8171 L 3192,8171 3192,1162 15596,1162 15596,8171 9394,8171 Z"/>
 <path fill="none" stroke="rgb(179,179,179)" stroke-linejoin="round" d="M 15596,8170 L 3192,8170"/>
 <path fill="none" stroke="rgb(179,179,179)" stroke-linejoin="round" d="M 15596,7168 L 3192,7168"/>
 <path fill="none" stroke="rgb(179,179,179)" stroke-linejoin="round" d="M 15596,6167 L 3192,6167"/>
 <path fill="none" stroke="rgb(179,179,179)" stroke-linejoin="round" d="M 15596,5165 L 3192,5165"/>
 <path fill="none" stroke="rgb(179,179,179)" stroke-linejoin="round" d="M 15596,4165 L 3192,4165"/>
 <path fill="none" stroke="rgb(179,179,179)" stroke-linejoin="round" d="M 15596,3163 L 3192,3163"/>
 <path fill="none" stroke="rgb(179,179,179)" stroke-linejoin="round" d="M 15596,2162 L 3192,2162"/>
 <path fill="none" stroke="rgb(179,179,179)" stroke-linejoin="round" d="M 15596,1161 L 3192,1161"/>
 <path fill="none" stroke="rgb(179,179,179)" stroke-linejoin="round" d="M 3192,8320 L 3192,8170"/>
 <path fill="none" stroke="rgb(179,179,179)" stroke-linejoin="round" d="M 3192,8320 L 3192,8170"/>
 <path fill="none" stroke="rgb(179,179,179)" stroke-linejoin="round" d="M 7327,8320 L 7327,8170"/>
 <path fill="none" stroke="rgb(179,179,179)" stroke-linejoin="round" d="M 7327,8320 L 7327,8170"/>
 <path fill="none" stroke="rgb(179,179,179)" stroke-linejoin="round" d="M 11461,8320 L 11461,8170"/>
 <path fill="none" stroke="rgb(179,179,179)" stroke-linejoin="round" d="M 11461,8320 L 11461,8170"/>
 <path fill="none" stroke="rgb(179,179,179)" stroke-linejoin="round" d="M 15596,8320 L 15596,8170"/>
 <path fill="none" stroke="rgb(179,179,179)" stroke-linejoin="round" d="M 15596,8320 L 15596,8170"/>
 <path fill="none" stroke="rgb(179,179,179)" stroke-linejoin="round" d="M 3192,8170 L 15596,8170"/>
 <path fill="none" stroke="rgb(179,179,179)" stroke-linejoin="round" d="M 3042,8170 L 3192,8170"/>
 <path fill="none" stroke="rgb(179,179,179)" stroke-linejoin="round" d="M 3042,8170 L 3192,8170"/>
 <path fill="none" stroke="rgb(179,179,179)" stroke-linejoin="round" d="M 3042,7168 L 3192,7168"/>
 <path fill="none" stroke="rgb(179,179,179)" stroke-linejoin="round" d="M 3042,7168 L 3192,7168"/>
 <path fill="none" stroke="rgb(179,179,179)" stroke-linejoin="round" d="M 3042,6167 L 3192,6167"/>
 <path fill="none" stroke="rgb(179,179,179)" stroke-linejoin="round" d="M 3042,6167 L 3192,6167"/>
 <path fill="none" stroke="rgb(179,179,179)" stroke-linejoin="round" d="M 3042,5165 L 3192,5165"/>
 <path fill="none" stroke="rgb(179,179,179)" stroke-linejoin="round" d="M 3042,5165 L 3192,5165"/>
 <path fill="none" stroke="rgb(179,179,179)" stroke-linejoin="round" d="M 3042,4165 L 3192,4165"/>
 <path fill="none" stroke="rgb(179,179,179)" stroke-linejoin="round" d="M 3042,4165 L 3192,4165"/>
 <path fill="none" stroke="rgb(179,179,179)" stroke-linejoin="round" d="M 3042,3163 L 3192,3163"/>
 <path fill="none" stroke="rgb(179,179,179)" stroke-linejoin="round" d="M 3042,3163 L 3192,3163"/>
 <path fill="none" stroke="rgb(179,179,179)" stroke-linejoin="round" d="M 3042,2162 L 3192,2162"/>
 <path fill="none" stroke="rgb(179,179,179)" stroke-linejoin="round" d="M 3042,2162 L 3192,2162"/>
 <path fill="none" stroke="rgb(179,179,179)" stroke-linejoin="round" d="M 3042,1161 L 3192,1161"/>
 <path fill="none" stroke="rgb(179,179,179)" stroke-linejoin="round" d="M 3042,1161 L 3192,1161"/>
 <path fill="none" stroke="rgb(179,179,179)" stroke-linejoin="round" d="M 3192,8170 L 3192,1161"/>
 <path fill="rgb(0,69,134)" stroke="none" d="M 12150,8170 L 13528,8170 13528,1188 12150,1188 12150,8170 Z"/>
 <path fill="rgb(0,69,134)" stroke="none" d="M 8016,8170 L 9393,8170 9393,1776 8016,1776 8016,8170 Z"/>
 <path fill="rgb(0,69,134)" stroke="none" d="M 3881,8170 L 5259,8170 5259,1645 3881,1645 3881,8170 Z"/>
 <path fill="rgb(255,66,14)" stroke="none" d="M 13528,8170 L 14906,8170 14906,4094 13528,4094 13528,8170 Z"/>
 <path fill="rgb(255,66,14)" stroke="none" d="M 9393,8170 L 10771,8170 10771,3754 9393,3754 9393,8170 Z"/>
 <path fill="rgb(255,66,14)" stroke="none" d="M 5259,8170 L 6637,8170 6637,4344 5259,4344 5259,8170 Z"/>
 <text class="TextShape"><tspan class="TextParagraph" font-family="Liberation Sans, sans-serif" font-size="353px" font-weight="400"><tspan class="TextPosition" x="4121" y="8738"><tspan fill="rgb(0,0,0)" stroke="none">Distinct values</tspan></tspan></tspan></text>
 <text class="TextShape"><tspan class="TextParagraph" font-family="Liberation Sans, sans-serif" font-size="353px" font-weight="400"><tspan class="TextPosition" x="7568" y="8738"><tspan fill="rgb(0,0,0)" stroke="none">Item requires statement</tspan></tspan></tspan></text>
 <text class="TextShape"><tspan class="TextParagraph" font-family="Liberation Sans, sans-serif" font-size="353px" font-weight="400"><tspan class="TextPosition" x="12589" y="8738"><tspan fill="rgb(0,0,0)" stroke="none">Single value</tspan></tspan></tspan></text>
 <text class="TextShape"><tspan class="TextParagraph" font-family="Liberation Sans, sans-serif" font-size="353px" font-weight="400"><tspan class="TextPosition" x="2757" y="8291"><tspan fill="rgb(0,0,0)" stroke="none">1</tspan></tspan></tspan></text>
 <text class="TextShape"><tspan class="TextParagraph" font-family="Liberation Sans, sans-serif" font-size="353px" font-weight="400"><tspan class="TextPosition" x="2572" y="7289"><tspan fill="rgb(0,0,0)" stroke="none">10</tspan></tspan></tspan></text>
 <text class="TextShape"><tspan class="TextParagraph" font-family="Liberation Sans, sans-serif" font-size="353px" font-weight="400"><tspan class="TextPosition" x="2386" y="6288"><tspan fill="rgb(0,0,0)" stroke="none">100</tspan></tspan></tspan></text>
 <text class="TextShape"><tspan class="TextParagraph" font-family="Liberation Sans, sans-serif" font-size="353px" font-weight="400"><tspan class="TextPosition" x="2095" y="5286"><tspan fill="rgb(0,0,0)" stroke="none">1,000</tspan></tspan></tspan></text>
 <text class="TextShape"><tspan class="TextParagraph" font-family="Liberation Sans, sans-serif" font-size="353px" font-weight="400"><tspan class="TextPosition" x="1910" y="4285"><tspan fill="rgb(0,0,0)" stroke="none">10,000</tspan></tspan></tspan></text>
 <text class="TextShape"><tspan class="TextParagraph" font-family="Liberation Sans, sans-serif" font-size="353px" font-weight="400"><tspan class="TextPosition" x="1725" y="3283"><tspan fill="rgb(0,0,0)" stroke="none">100,000</tspan></tspan></tspan></text>
 <text class="TextShape"><tspan class="TextParagraph" font-family="Liberation Sans, sans-serif" font-size="353px" font-weight="400"><tspan class="TextPosition" x="1434" y="2282"><tspan fill="rgb(0,0,0)" stroke="none">1,000,000</tspan></tspan></tspan></text>
 <text class="TextShape"><tspan class="TextParagraph" font-family="Liberation Sans, sans-serif" font-size="353px" font-weight="400"><tspan class="TextPosition" x="1249" y="1281"><tspan fill="rgb(0,0,0)" stroke="none">10,000,000</tspan></tspan></tspan></text>
 <path fill="rgb(0,69,134)" stroke="none" d="M 6241,588 L 6136,588 6136,377 6347,377 6347,588 6241,588 Z"/>
 <path fill="rgb(255,66,14)" stroke="none" d="M 8135,588 L 8030,588 8030,377 8240,377 8240,588 8135,588 Z"/>
 <text class="TextShape"><tspan class="TextParagraph" font-family="Liberation Sans, sans-serif" font-size="353px" font-weight="400"><tspan class="TextPosition" x="6447" y="602"><tspan fill="rgb(0,0,0)" stroke="none">Encoded</tspan></tspan></tspan></text>
 <text class="TextShape"><tspan class="TextParagraph" font-family="Liberation Sans, sans-serif" font-size="353px" font-weight="400"><tspan class="TextPosition" x="8340" y="602"><tspan fill="rgb(0,0,0)" stroke="none">Demanded</tspan></tspan></tspan></text>
 <text class="TextShape" transform="translate(897,7019) rotate(-90) translate(-897,-7019)"><tspan class="TextParagraph" font-family="Liberation Sans, sans-serif" font-size="318px" font-weight="400"><tspan class="TextPosition" x="897" y="7019"><tspan fill="rgb(0,0,0)" stroke="none">Runtime materialization in ms</tspan></tspan></tspan></text>
</svg>