<?xml version="1.0" encoding="UTF-8"?>
<!DOCTYPE svg PUBLIC "-//W3C//DTD SVG 1.1//EN" "http://www.w3.org/Graphics/SVG/1.1/DTD/svg11.dtd">
<svg width="160mm" height="90mm" viewBox="0 0 16000 9000" version="1.1" xmlns="http://www.w3.org/2000/svg" stroke-width="28.222" stroke-linejoin="round" xml:space="preserve">
 <path fill="rgb(255,255,255)" stroke="none" d="M 8053,8999 L 53,8999 53,0 16052,0 16052,8999 8053,8999 Z"/>
 <path fill="none" stroke="rgb(179,179,179)" stroke-linejoin="round" d="M 9530,5395 L 3328,5395 3328,963 15732,963 15732,5395 9530,5395 Z"/>
 <path fill="none" stroke="rgb(179,179,179)" stroke-linejoin="round" d="M 15732,5394 L 3328,5394"/>
 <path fill="none" stroke="rgb(179,179,179)" stroke-linejoin="round" d="M 15732,4760 L 3328,4760"/>
 <path fill="none" stroke="rgb(179,179,179)" stroke-linejoin="round" d="M 15732,4128 L 3328,4128"/>
 <path fill="none" stroke="rgb(179,179,179)" stroke-linejoin="round" d="M 15732,3495 L 3328,3495"/>
 <path fill="none" stroke="rgb(179,179,179)" stroke-linejoin="round" d="M 15732,2861 L 3328,2861"/>
 <path fill="none" stroke="rgb(179,179,179)" stroke-linejoin="round" d="M 15732,2228 L 3328,2228"/>
 <path fill="none" stroke="rgb(179,179,179)" stroke-linejoin="round" d="M 15732,1595 L 3328,1595"/>
 <path fill="none" stroke="rgb(179,179,179)" stroke-linejoin="round" d="M 15732,962 L 3328,962"/>
 <path fill="none" stroke="rgb(179,179,179)" stroke-linejoin="round" d="M 3328,5544 L 3328,5394"/>
 <path fill="none" stroke="rgb(179,179,179)" stroke-linejoin="round" d="M 3328,5544 L 3328,5394"/>
 <path fill="none" stroke="rgb(179,179,179)" stroke-linejoin="round" d="M 4282,5544 L 4282,5394"/>
 <path fill="none" stroke="rgb(179,179,179)" stroke-linejoin="round" d="M 4282,5544 L 4282,5394"/>
 <path fill="none" stroke="rgb(179,179,179)" stroke-linejoin="round" d="M 5236,5544 L 5236,5394"/>
 <path fill="none" stroke="rgb(179,179,179)" stroke-linejoin="round" d="M 5236,5544 L 5236,5394"/>
 <path fill="none" stroke="rgb(179,179,179)" stroke-linejoin="round" d="M 6190,5544 L 6190,5394"/>
 <path fill="none" stroke="rgb(179,179,179)" stroke-linejoin="round" d="M 6190,5544 L 6190,5394"/>
 <path fill="none" stroke="rgb(179,179,179)" stroke-linejoin="round" d="M 7144,5544 L 7144,5394"/>
 <path fill="none" stroke="rgb(179,179,179)" stroke-linejoin="round" d="M 7144,5544 L 7144,5394"/>
 <path fill="none" stroke="rgb(179,179,179)" stroke-linejoin="round" d="M 8098,5544 L 8098,5394"/>
 <path fill="none" stroke="rgb(179,179,179)" stroke-linejoin="round" d="M 8098,5544 L 8098,5394"/>
 <path fill="none" stroke="rgb(179,179,179)" stroke-linejoin="round" d="M 9052,5544 L 9052,5394"/>
 <path fill="none" stroke="rgb(179,179,179)" stroke-linejoin="round" d="M 9052,5544 L 9052,5394"/>
 <path fill="none" stroke="rgb(179,179,179)" stroke-linejoin="round" d="M 10006,5544 L 10006,5394"/>
 <path fill="none" stroke="rgb(179,179,179)" stroke-linejoin="round" d="M 10006,5544 L 10006,5394"/>
 <path fill="none" stroke="rgb(179,179,179)" stroke-linejoin="round" d="M 10960,5544 L 10960,5394"/>
 <path fill="none" stroke="rgb(179,179,179)" stroke-linejoin="round" d="M 10960,5544 L 10960,5394"/>
 <path fill="none" stroke="rgb(179,179,179)" stroke-linejoin="round" d="M 11915,5544 L 11915,5394"/>
 <path fill="none" stroke="rgb(179,179,179)" stroke-linejoin="round" d="M 11915,5544 L 11915,5394"/>
 <path fill="none" stroke="rgb(179,179,179)" stroke-linejoin="round" d="M 12869,5544 L 12869,5394"/>
 <path fill="none" stroke="rgb(179,179,179)" stroke-linejoin="round" d="M 12869,5544 L 12869,5394"/>
 <path fill="none" stroke="rgb(179,179,179)" stroke-linejoin="round" d="M 13823,5544 L 13823,5394"/>
 <path fill="none" stroke="rgb(179,179,179)" stroke-linejoin="round" d="M 13823,5544 L 13823,5394"/>
 <path fill="none" stroke="rgb(179,179,179)" stroke-linejoin="round" d="M 14777,5544 L 14777,5394"/>
 <path fill="none" stroke="rgb(179,179,179)" stroke-linejoin="round" d="M 14777,5544 L 14777,5394"/>
 <path fill="none" stroke="rgb(179,179,179)" stroke-linejoin="round" d="M 15732,5544 L 15732,5394"/>
 <path fill="none" stroke="rgb(179,179,179)" stroke-linejoin="round" d="M 15732,5544 L 15732,5394"/>
 <path fill="none" stroke="rgb(179,179,179)" stroke-linejoin="round" d="M 3328,5394 L 15732,5394"/>
 <path fill="none" stroke="rgb(179,179,179)" stroke-linejoin="round" d="M 3178,5394 L 3328,5394"/>
 <path fill="none" stroke="rgb(179,179,179)" stroke-linejoin="round" d="M 3178,5394 L 3328,5394"/>
 <path fill="none" stroke="rgb(179,179,179)" stroke-linejoin="round" d="M 3178,4760 L 3328,4760"/>
 <path fill="none" stroke="rgb(179,179,179)" stroke-linejoin="round" d="M 3178,4760 L 3328,4760"/>
 <path fill="none" stroke="rgb(179,179,179)" stroke-linejoin="round" d="M 3178,4128 L 3328,4128"/>
 <path fill="none" stroke="rgb(179,179,179)" stroke-linejoin="round" d="M 3178,4128 L 3328,4128"/>
 <path fill="none" stroke="rgb(179,179,179)" stroke-linejoin="round" d="M 3178,3495 L 3328,3495"/>
 <path fill="none" stroke="rgb(179,179,179)" stroke-linejoin="round" d="M 3178,3495 L 3328,3495"/>
 <path fill="none" stroke="rgb(179,179,179)" stroke-linejoin="round" d="M 3178,2861 L 3328,2861"/>
 <path fill="none" stroke="rgb(179,179,179)" stroke-linejoin="round" d="M 3178,2861 L 3328,2861"/>
 <path fill="none" stroke="rgb(179,179,179)" stroke-linejoin="round" d="M 3178,2228 L 3328,2228"/>
 <path fill="none" stroke="rgb(179,179,179)" stroke-linejoin="round" d="M 3178,2228 L 3328,2228"/>
 <path fill="none" stroke="rgb(179,179,179)" stroke-linejoin="round" d="M 3178,1595 L 3328,1595"/>
 <path fill="none" stroke="rgb(179,179,179)" stroke-linejoin="round" d="M 3178,1595 L 3328,1595"/>
 <path fill="none" stroke="rgb(179,179,179)" stroke-linejoin="round" d="M 3178,962 L 3328,962"/>
 <path fill="none" stroke="rgb(179,179,179)" stroke-linejoin="round" d="M 3178,962 L 3328,962"/>
 <path fill="none" stroke="rgb(179,179,179)" stroke-linejoin="round" d="M 3328,5394 L 3328,962"/>
 <path fill="rgb(0,132,209)" stroke="none" d="M 14936,5394 L 15254,5394 15254,1379 14936,1379 14936,5394 Z"/>
 <path fill="rgb(0,132,209)" stroke="none" d="M 13982,5394 L 14300,5394 14300,3923 13982,3923 13982,5394 Z"/>
 <path fill="rgb(0,132,209)" stroke="none" d="M 13028,5394 L 13346,5394 13346,979 13028,979 13028,5394 Z"/>
 <path fill="rgb(0,132,209)" stroke="none" d="M 12074,5394 L 12392,5394 12392,3656 12074,3656 12074,5394 Z"/>
 <path fill="rgb(0,132,209)" stroke="none" d="M 11119,5394 L 11437,5394 11437,1405 11119,1405 11119,5394 Z"/>
 <path fill="rgb(0,132,209)" stroke="none" d="M 10165,5394 L 10483,5394 10483,3024 10165,3024 10165,5394 Z"/>
 <path fill="rgb(0,132,209)" stroke="none" d="M 9211,5394 L 9529,5394 9529,1460 9211,1460 9211,5394 Z"/>
 <path fill="rgb(0,132,209)" stroke="none" d="M 8257,5394 L 8575,5394 8575,1351 8257,1351 8257,5394 Z"/>
 <path fill="rgb(0,132,209)" stroke="none" d="M 7303,5394 L 7622,5394 7622,3571 7303,3571 7303,5394 Z"/>
 <path fill="rgb(0,132,209)" stroke="none" d="M 6349,5394 L 6667,5394 6667,1374 6349,1374 6349,5394 Z"/>
 <path fill="rgb(0,132,209)" stroke="none" d="M 5395,5394 L 5713,5394 5713,3622 5395,3622 5395,5394 Z"/>
 <path fill="rgb(0,132,209)" stroke="none" d="M 4441,5394 L 4759,5394 4759,3652 4441,3652 4441,5394 Z"/>
 <path fill="rgb(0,132,209)" stroke="none" d="M 3487,5394 L 3805,5394 3805,1268 3487,1268 3487,5394 Z"/>
 <path fill="rgb(255,66,14)" stroke="none" d="M 15254,5394 L 15572,5394 15572,4556 15254,4556 15254,5394 Z"/>
 <path fill="rgb(255,66,14)" stroke="none" d="M 14300,5394 L 14618,5394 14618,4020 14300,4020 14300,5394 Z"/>
 <path fill="rgb(255,66,14)" stroke="none" d="M 13346,5394 L 13664,5394 13664,2817 13346,2817 13346,5394 Z"/>
 <path fill="rgb(255,66,14)" stroke="none" d="M 12392,5394 L 12710,5394 12710,3899 12392,3899 12392,5394 Z"/>
 <path fill="rgb(255,66,14)" stroke="none" d="M 11437,5394 L 11756,5394 11756,4348 11437,4348 11437,5394 Z"/>
 <path fill="rgb(255,66,14)" stroke="none" d="M 10483,5394 L 10801,5394 10801,4131 10483,4131 10483,5394 Z"/>
 <path fill="rgb(255,66,14)" stroke="none" d="M 9529,5394 L 9847,5394 9847,4056 9529,4056 9529,5394 Z"/>
 <path fill="rgb(255,66,14)" stroke="none" d="M 8575,5394 L 8893,5394 8893,2602 8575,2602 8575,5394 Z"/>
 <path fill="rgb(255,66,14)" stroke="none" d="M 7622,5394 L 7940,5394 7940,4822 7622,4822 7622,5394 Z"/>
 <path fill="rgb(255,66,14)" stroke="none" d="M 6667,5394 L 6985,5394 6985,3150 6667,3150 6667,5394 Z"/>
 <path fill="rgb(255,66,14)" stroke="none" d="M 5713,5394 L 6031,5394 6031,3626 5713,3626 5713,5394 Z"/>
 <path fill="rgb(255,66,14)" stroke="none" d="M 4759,5394 L 5077,5394 5077,3832 4759,3832 4759,5394 Z"/>
 <path fill="rgb(255,66,14)" stroke="none" d="M 3805,5394 L 4123,5394 4123,2975 3805,2975 3805,5394 Z"/>
 <text class="TextShape" transform="translate(2279,7479) rotate(-44.9) translate(-2279,-7479)"><tspan class="TextParagraph" font-family="Liberation Sans, sans-serif" font-size="353px" font-weight="400"><tspan class="TextPosition" x="2279" y="7479"><tspan fill="rgb(0,0,0)" stroke="none">Distinct values</tspan></tspan></tspan></text>
 <text class="TextShape" transform="translate(3401,7310) rotate(-44.9) translate(-3401,-7310)"><tspan class="TextParagraph" font-family="Liberation Sans, sans-serif" font-size="353px" font-weight="400"><tspan class="TextPosition" x="3401" y="7310"><tspan fill="rgb(0,0,0)" stroke="none">Allowed units</tspan></tspan></tspan></text>
 <text class="TextShape" transform="translate(3906,7759) rotate(-44.9) translate(-3906,-7759)"><tspan class="TextParagraph" font-family="Liberation Sans, sans-serif" font-size="353px" font-weight="400"><tspan class="TextPosition" x="3906" y="7759"><tspan fill="rgb(0,0,0)" stroke="none">Allowed qualifiers</tspan></tspan></tspan></text>
 <text class="TextShape" transform="translate(6020,6599) rotate(-44.9) translate(-6020,-6599)"><tspan class="TextParagraph" font-family="Liberation Sans, sans-serif" font-size="353px" font-weight="400"><tspan class="TextPosition" x="6020" y="6599"><tspan fill="rgb(0,0,0)" stroke="none">One-of</tspan></tspan></tspan></text>
 <text class="TextShape" transform="translate(5405,8170) rotate(-44.9) translate(-5405,-8170)"><tspan class="TextParagraph" font-family="Liberation Sans, sans-serif" font-size="353px" font-weight="400"><tspan class="TextPosition" x="5405" y="8170"><tspan fill="rgb(0,0,0)" stroke="none">One-of qualifier value</tspan></tspan></tspan></text>
 <text class="TextShape" transform="translate(6077,8451) rotate(-44.9) translate(-6077,-8451)"><tspan class="TextParagraph" font-family="Liberation Sans, sans-serif" font-size="353px" font-weight="400"><tspan class="TextPosition" x="6077" y="8451"><tspan fill="rgb(0,0,0)" stroke="none">Item requires statement</tspan></tspan></tspan></text>
 <text class="TextShape" transform="translate(6919,8563) rotate(-44.9) translate(-6919,-8563)"><tspan class="TextParagraph" font-family="Liberation Sans, sans-serif" font-size="353px" font-weight="400"><tspan class="TextPosition" x="6919" y="8563"><tspan fill="rgb(0,0,0)" stroke="none">Value requires statement</tspan></tspan></tspan></text>
 <text class="TextShape" transform="translate(9763,6674) rotate(-44.9) translate(-9763,-6674)"><tspan class="TextParagraph" font-family="Liberation Sans, sans-serif" font-size="353px" font-weight="400"><tspan class="TextPosition" x="9763" y="6674"><tspan fill="rgb(0,0,0)" stroke="none">Inverse</tspan></tspan></tspan></text>
 <text class="TextShape" transform="translate(10342,7049) rotate(-44.9) translate(-10342,-7049)"><tspan class="TextParagraph" font-family="Liberation Sans, sans-serif" font-size="353px" font-weight="400"><tspan class="TextPosition" x="10342" y="7049"><tspan fill="rgb(0,0,0)" stroke="none">Symmetric</tspan></tspan></tspan></text>
 <text class="TextShape" transform="translate(11297,7049) rotate(-44.9) translate(-11297,-7049)"><tspan class="TextParagraph" font-family="Liberation Sans, sans-serif" font-size="353px" font-weight="400"><tspan class="TextPosition" x="11297" y="7049"><tspan fill="rgb(0,0,0)" stroke="none">Multi-value</tspan></tspan></tspan></text>
 <text class="TextShape" transform="translate(12100,7199) rotate(-44.9) translate(-12100,-7199)"><tspan class="TextParagraph" font-family="Liberation Sans, sans-serif" font-size="353px" font-weight="400"><tspan class="TextPosition" x="12100" y="7199"><tspan fill="rgb(0,0,0)" stroke="none">Single value</tspan></tspan></tspan></text>
 <text class="TextShape" transform="translate(12325,7927) rotate(-44.9) translate(-12325,-7927)"><tspan class="TextParagraph" font-family="Liberation Sans, sans-serif" font-size="353px" font-weight="400"><tspan class="TextPosition" x="12325" y="7927"><tspan fill="rgb(0,0,0)" stroke="none">Mandatory qualifier</tspan></tspan></tspan></text>
 <text class="TextShape" transform="translate(13466,7741) rotate(-44.9) translate(-13466,-7741)"><tspan class="TextParagraph" font-family="Liberation Sans, sans-serif" font-size="353px" font-weight="400"><tspan class="TextPosition" x="13466" y="7741"><tspan fill="rgb(0,0,0)" stroke="none">Single best value</tspan></tspan></tspan></text>
 <text class="TextShape"><tspan class="TextParagraph" font-family="Liberation Sans, sans-serif" font-size="353px" font-weight="400"><tspan class="TextPosition" x="2893" y="5515"><tspan fill="rgb(0,0,0)" stroke="none">1</tspan></tspan></tspan></text>
 <text class="TextShape"><tspan class="TextParagraph" font-family="Liberation Sans, sans-serif" font-size="353px" font-weight="400"><tspan class="TextPosition" x="2708" y="4881"><tspan fill="rgb(0,0,0)" stroke="none">10</tspan></tspan></tspan></text>
 <text class="TextShape"><tspan class="TextParagraph" font-family="Liberation Sans, sans-serif" font-size="353px" font-weight="400"><tspan class="TextPosition" x="2522" y="4248"><tspan fill="rgb(0,0,0)" stroke="none">100</tspan></tspan></tspan></text>
 <text class="TextShape"><tspan class="TextParagraph" font-family="Liberation Sans, sans-serif" font-size="353px" font-weight="400"><tspan class="TextPosition" x="2231" y="3615"><tspan fill="rgb(0,0,0)" stroke="none">1,000</tspan></tspan></tspan></text>
 <text class="TextShape"><tspan class="TextParagraph" font-family="Liberation Sans, sans-serif" font-size="353px" font-weight="400"><tspan class="TextPosition" x="2046" y="2981"><tspan fill="rgb(0,0,0)" stroke="none">10,000</tspan></tspan></tspan></text>
 <text class="TextShape"><tspan class="TextParagraph" font-family="Liberation Sans, sans-serif" font-size="353px" font-weight="400"><tspan class="TextPosition" x="1861" y="2348"><tspan fill="rgb(0,0,0)" stroke="none">100,000</tspan></tspan></tspan></text>
 <text class="TextShape"><tspan class="TextParagraph" font-family="Liberation Sans, sans-serif" font-size="353px" font-weight="400"><tspan class="TextPosition" x="1570" y="1715"><tspan fill="rgb(0,0,0)" stroke="none">1,000,000</tspan></tspan></tspan></text>
 <text class="TextShape"><tspan class="TextParagraph" font-family="Liberation Sans, sans-serif" font-size="353px" font-weight="400"><tspan class="TextPosition" x="1385" y="1082"><tspan fill="rgb(0,0,0)" stroke="none">10,000,000</tspan></tspan></tspan></text>
 <path fill="rgb(0,132,209)" stroke="none" d="M 6234,589 L 6129,589 6129,378 6340,378 6340,589 6234,589 Z"/>
 <path fill="rgb(255,66,14)" stroke="none" d="M 8128,589 L 8023,589 8023,378 8233,378 8233,589 8128,589 Z"/>
 <text class="TextShape"><tspan class="TextParagraph" font-family="Liberation Sans, sans-serif" font-size="353px" font-weight="400"><tspan class="TextPosition" x="6440" y="603"><tspan fill="rgb(0,0,0)" stroke="none">Encoded</tspan></tspan></tspan></text>
 <text class="TextShape"><tspan class="TextParagraph" font-family="Liberation Sans, sans-serif" font-size="353px" font-weight="400"><tspan class="TextPosition" x="8333" y="603"><tspan fill="rgb(0,0,0)" stroke="none">Demanded</tspan></tspan></tspan></text>
 <text class="TextShape" transform="translate(890,7020) rotate(-90) translate(-890,-7020)"><tspan class="TextParagraph" font-family="Liberation Sans, sans-serif" font-size="318px" font-weight="400"><tspan class="TextPosition" x="890" y="7020"><tspan fill="rgb(0,0,0)" stroke="none">Runtime materialization in ms</tspan></tspan></tspan></text>
</svg>