<?xml version="1.0" encoding="UTF-8"?>
<!DOCTYPE svg PUBLIC "-//W3C//DTD SVG 1.1//EN" "http://www.w3.org/Graphics/SVG/1.1/DTD/svg11.dtd">
<svg width="160mm" height="90mm" viewBox="0 0 16000 9000" version="1.1" xmlns="http://www.w3.org/2000/svg" stroke-width="28.222" stroke-linejoin="round" xml:space="preserve">
 <path fill="rgb(255,255,255)" stroke="none" d="M 8000,8999 L 0,8999 0,21 15999,21 15999,8999 8000,8999 Z"/>
 <path fill="none" stroke="rgb(179,179,179)" stroke-linejoin="round" d="M 7688,5399 L 1636,5399 1636,199 13739,199 13739,5399 7688,5399 Z"/>
 <path fill="none" stroke="rgb(179,179,179)" stroke-linejoin="round" d="M 13739,5398 L 1636,5398"/>
 <path fill="none" stroke="rgb(179,179,179)" stroke-linejoin="round" d="M 13739,4357 L 1636,4357"/>
 <path fill="none" stroke="rgb(179,179,179)" stroke-linejoin="round" d="M 13739,3317 L 1636,3317"/>
 <path fill="none" stroke="rgb(179,179,179)" stroke-linejoin="round" d="M 13739,2277 L 1636,2277"/>
 <path fill="none" stroke="rgb(179,179,179)" stroke-linejoin="round" d="M 13739,1237 L 1636,1237"/>
 <path fill="none" stroke="rgb(179,179,179)" stroke-linejoin="round" d="M 13739,198 L 1636,198"/>
 <path fill="none" stroke="rgb(179,179,179)" stroke-linejoin="round" d="M 1636,5547 L 1636,5398"/>
 <path fill="none" stroke="rgb(179,179,179)" stroke-linejoin="round" d="M 1636,5547 L 1636,5398"/>
 <path fill="none" stroke="rgb(179,179,179)" stroke-linejoin="round" d="M 2348,5547 L 2348,5398"/>
 <path fill="none" stroke="rgb(179,179,179)" stroke-linejoin="round" d="M 2348,5547 L 2348,5398"/>
 <path fill="none" stroke="rgb(179,179,179)" stroke-linejoin="round" d="M 3060,5547 L 3060,5398"/>
 <path fill="none" stroke="rgb(179,179,179)" stroke-linejoin="round" d="M 3060,5547 L 3060,5398"/>
 <path fill="none" stroke="rgb(179,179,179)" stroke-linejoin="round" d="M 3772,5547 L 3772,5398"/>
 <path fill="none" stroke="rgb(179,179,179)" stroke-linejoin="round" d="M 3772,5547 L 3772,5398"/>
 <path fill="none" stroke="rgb(179,179,179)" stroke-linejoin="round" d="M 4484,5547 L 4484,5398"/>
 <path fill="none" stroke="rgb(179,179,179)" stroke-linejoin="round" d="M 4484,5547 L 4484,5398"/>
 <path fill="none" stroke="rgb(179,179,179)" stroke-linejoin="round" d="M 5196,5547 L 5196,5398"/>
 <path fill="none" stroke="rgb(179,179,179)" stroke-linejoin="round" d="M 5196,5547 L 5196,5398"/>
 <path fill="none" stroke="rgb(179,179,179)" stroke-linejoin="round" d="M 5908,5547 L 5908,5398"/>
 <path fill="none" stroke="rgb(179,179,179)" stroke-linejoin="round" d="M 5908,5547 L 5908,5398"/>
 <path fill="none" stroke="rgb(179,179,179)" stroke-linejoin="round" d="M 6620,5547 L 6620,5398"/>
 <path fill="none" stroke="rgb(179,179,179)" stroke-linejoin="round" d="M 6620,5547 L 6620,5398"/>
 <path fill="none" stroke="rgb(179,179,179)" stroke-linejoin="round" d="M 7332,5547 L 7332,5398"/>
 <path fill="none" stroke="rgb(179,179,179)" stroke-linejoin="round" d="M 7332,5547 L 7332,5398"/>
 <path fill="none" stroke="rgb(179,179,179)" stroke-linejoin="round" d="M 8043,5547 L 8043,5398"/>
 <path fill="none" stroke="rgb(179,179,179)" stroke-linejoin="round" d="M 8043,5547 L 8043,5398"/>
 <path fill="none" stroke="rgb(179,179,179)" stroke-linejoin="round" d="M 8755,5547 L 8755,5398"/>
 <path fill="none" stroke="rgb(179,179,179)" stroke-linejoin="round" d="M 8755,5547 L 8755,5398"/>
 <path fill="none" stroke="rgb(179,179,179)" stroke-linejoin="round" d="M 9467,5547 L 9467,5398"/>
 <path fill="none" stroke="rgb(179,179,179)" stroke-linejoin="round" d="M 9467,5547 L 9467,5398"/>
 <path fill="none" stroke="rgb(179,179,179)" stroke-linejoin="round" d="M 10179,5547 L 10179,5398"/>
 <path fill="none" stroke="rgb(179,179,179)" stroke-linejoin="round" d="M 10179,5547 L 10179,5398"/>
 <path fill="none" stroke="rgb(179,179,179)" stroke-linejoin="round" d="M 10891,5547 L 10891,5398"/>
 <path fill="none" stroke="rgb(179,179,179)" stroke-linejoin="round" d="M 10891,5547 L 10891,5398"/>
 <path fill="none" stroke="rgb(179,179,179)" stroke-linejoin="round" d="M 11603,5547 L 11603,5398"/>
 <path fill="none" stroke="rgb(179,179,179)" stroke-linejoin="round" d="M 11603,5547 L 11603,5398"/>
 <path fill="none" stroke="rgb(179,179,179)" stroke-linejoin="round" d="M 12315,5547 L 12315,5398"/>
 <path fill="none" stroke="rgb(179,179,179)" stroke-linejoin="round" d="M 12315,5547 L 12315,5398"/>
 <path fill="none" stroke="rgb(179,179,179)" stroke-linejoin="round" d="M 13027,5547 L 13027,5398"/>
 <path fill="none" stroke="rgb(179,179,179)" stroke-linejoin="round" d="M 13027,5547 L 13027,5398"/>
 <path fill="none" stroke="rgb(179,179,179)" stroke-linejoin="round" d="M 13739,5547 L 13739,5398"/>
 <path fill="none" stroke="rgb(179,179,179)" stroke-linejoin="round" d="M 13739,5547 L 13739,5398"/>
 <path fill="none" stroke="rgb(179,179,179)" stroke-linejoin="round" d="M 1636,5398 L 13739,5398"/>
 <path fill="none" stroke="rgb(179,179,179)" stroke-linejoin="round" d="M 1486,5398 L 1636,5398"/>
 <path fill="none" stroke="rgb(179,179,179)" stroke-linejoin="round" d="M 1486,5398 L 1636,5398"/>
 <path fill="none" stroke="rgb(179,179,179)" stroke-linejoin="round" d="M 1486,4357 L 1636,4357"/>
 <path fill="none" stroke="rgb(179,179,179)" stroke-linejoin="round" d="M 1486,4357 L 1636,4357"/>
 <path fill="none" stroke="rgb(179,179,179)" stroke-linejoin="round" d="M 1486,3317 L 1636,3317"/>
 <path fill="none" stroke="rgb(179,179,179)" stroke-linejoin="round" d="M 1486,3317 L 1636,3317"/>
 <path fill="none" stroke="rgb(179,179,179)" stroke-linejoin="round" d="M 1486,2277 L 1636,2277"/>
 <path fill="none" stroke="rgb(179,179,179)" stroke-linejoin="round" d="M 1486,2277 L 1636,2277"/>
 <path fill="none" stroke="rgb(179,179,179)" stroke-linejoin="round" d="M 1486,1237 L 1636,1237"/>
 <path fill="none" stroke="rgb(179,179,179)" stroke-linejoin="round" d="M 1486,1237 L 1636,1237"/>
 <path fill="none" stroke="rgb(179,179,179)" stroke-linejoin="round" d="M 1486,198 L 1636,198"/>
 <path fill="none" stroke="rgb(179,179,179)" stroke-linejoin="round" d="M 1486,198 L 1636,198"/>
 <path fill="none" stroke="rgb(179,179,179)" stroke-linejoin="round" d="M 1636,5398 L 1636,198"/>
 <path fill="none" stroke="rgb(179,179,179)" stroke-linejoin="round" d="M 13889,5398 L 13739,5398"/>
 <path fill="none" stroke="rgb(179,179,179)" stroke-linejoin="round" d="M 13889,5398 L 13739,5398"/>
 <path fill="none" stroke="rgb(179,179,179)" stroke-linejoin="round" d="M 13889,4747 L 13739,4747"/>
 <path fill="none" stroke="rgb(179,179,179)" stroke-linejoin="round" d="M 13889,4747 L 13739,4747"/>
 <path fill="none" stroke="rgb(179,179,179)" stroke-linejoin="round" d="M 13889,4097 L 13739,4097"/>
 <path fill="none" stroke="rgb(179,179,179)" stroke-linejoin="round" d="M 13889,4097 L 13739,4097"/>
 <path fill="none" stroke="rgb(179,179,179)" stroke-linejoin="round" d="M 13889,3448 L 13739,3448"/>
 <path fill="none" stroke="rgb(179,179,179)" stroke-linejoin="round" d="M 13889,3448 L 13739,3448"/>
 <path fill="none" stroke="rgb(179,179,179)" stroke-linejoin="round" d="M 13889,2797 L 13739,2797"/>
 <path fill="none" stroke="rgb(179,179,179)" stroke-linejoin="round" d="M 13889,2797 L 13739,2797"/>
 <path fill="none" stroke="rgb(179,179,179)" stroke-linejoin="round" d="M 13889,2147 L 13739,2147"/>
 <path fill="none" stroke="rgb(179,179,179)" stroke-linejoin="round" d="M 13889,2147 L 13739,2147"/>
 <path fill="none" stroke="rgb(179,179,179)" stroke-linejoin="round" d="M 13889,1497 L 13739,1497"/>
 <path fill="none" stroke="rgb(179,179,179)" stroke-linejoin="round" d="M 13889,1497 L 13739,1497"/>
 <path fill="none" stroke="rgb(179,179,179)" stroke-linejoin="round" d="M 13889,847 L 13739,847"/>
 <path fill="none" stroke="rgb(179,179,179)" stroke-linejoin="round" d="M 13889,847 L 13739,847"/>
 <path fill="none" stroke="rgb(179,179,179)" stroke-linejoin="round" d="M 13889,198 L 13739,198"/>
 <path fill="none" stroke="rgb(179,179,179)" stroke-linejoin="round" d="M 13889,198 L 13739,198"/>
 <path fill="none" stroke="rgb(179,179,179)" stroke-linejoin="round" d="M 13739,5398 L 13739,198"/>
 <path fill="rgb(0,69,134)" stroke="none" d="M 11069,5398 L 11425,5398 11425,1016 11069,1016 11069,5398 Z"/>
 <path fill="rgb(0,69,134)" stroke="none" d="M 10357,5398 L 10713,5398 10713,554 10357,554 10357,5398 Z"/>
 <path fill="rgb(0,69,134)" stroke="none" d="M 9645,5398 L 10001,5398 10001,815 9645,815 9645,5398 Z"/>
 <path fill="rgb(0,69,134)" stroke="none" d="M 8933,5398 L 9289,5398 9289,695 8933,695 8933,5398 Z"/>
 <path fill="rgb(0,69,134)" stroke="none" d="M 8221,5398 L 8577,5398 8577,695 8221,695 8221,5398 Z"/>
 <path fill="rgb(0,69,134)" stroke="none" d="M 7510,5398 L 7866,5398 7866,1404 7510,1404 7510,5398 Z"/>
 <path fill="rgb(0,69,134)" stroke="none" d="M 6798,5398 L 7154,5398 7154,510 6798,510 6798,5398 Z"/>
 <path fill="rgb(0,69,134)" stroke="none" d="M 6086,5398 L 6442,5398 6442,1427 6086,1427 6086,5398 Z"/>
 <path fill="rgb(0,69,134)" stroke="none" d="M 5374,5398 L 5730,5398 5730,1215 5374,1215 5374,5398 Z"/>
 <path fill="rgb(0,69,134)" stroke="none" d="M 4662,5398 L 5018,5398 5018,986 4662,986 4662,5398 Z"/>
 <path fill="rgb(0,69,134)" stroke="none" d="M 3950,5398 L 4306,5398 4306,1239 3950,1239 3950,5398 Z"/>
 <path fill="rgb(0,69,134)" stroke="none" d="M 3238,5398 L 3594,5398 3594,1590 3238,1590 3238,5398 Z"/>
 <path fill="rgb(0,69,134)" stroke="none" d="M 2526,5398 L 2882,5398 2882,1584 2526,1584 2526,5398 Z"/>
 <path fill="rgb(0,69,134)" stroke="none" d="M 1814,5398 L 2170,5398 2170,1229 1814,1229 1814,5398 Z"/>
 <path fill="rgb(255,66,14)" stroke="none" d="M 1792,1133 L 1992,1333 2192,1133 1992,934 1792,1133 Z"/>
 <path fill="none" stroke="rgb(255,66,14)" stroke-linejoin="round" d="M 1792,1133 L 1992,1333 2192,1133 1992,934 1792,1133 Z"/>
 <path fill="rgb(255,66,14)" stroke="none" d="M 2504,1490 L 2704,1690 2904,1490 2704,1291 2504,1490 Z"/>
 <path fill="none" stroke="rgb(255,66,14)" stroke-linejoin="round" d="M 2504,1490 L 2704,1690 2904,1490 2704,1291 2504,1490 Z"/>
 <path fill="rgb(255,66,14)" stroke="none" d="M 3216,1463 L 3416,1663 3616,1463 3416,1264 3216,1463 Z"/>
 <path fill="none" stroke="rgb(255,66,14)" stroke-linejoin="round" d="M 3216,1463 L 3416,1663 3616,1463 3416,1264 3216,1463 Z"/>
 <path fill="rgb(255,66,14)" stroke="none" d="M 3928,1133 L 4128,1333 4328,1133 4128,934 3928,1133 Z"/>
 <path fill="none" stroke="rgb(255,66,14)" stroke-linejoin="round" d="M 3928,1133 L 4128,1333 4328,1133 4128,934 3928,1133 Z"/>
 <path fill="rgb(255,66,14)" stroke="none" d="M 4640,903 L 4840,1102 5040,903 4840,703 4640,903 Z"/>
 <path fill="none" stroke="rgb(255,66,14)" stroke-linejoin="round" d="M 4640,903 L 4840,1102 5040,903 4840,703 4640,903 Z"/>
 <path fill="rgb(255,66,14)" stroke="none" d="M 5352,1129 L 5552,1329 5752,1129 5552,930 5352,1129 Z"/>
 <path fill="none" stroke="rgb(255,66,14)" stroke-linejoin="round" d="M 5352,1129 L 5552,1329 5752,1129 5552,930 5352,1129 Z"/>
 <path fill="rgb(255,66,14)" stroke="none" d="M 6064,1246 L 6264,1445 6464,1246 6264,1046 6064,1246 Z"/>
 <path fill="none" stroke="rgb(255,66,14)" stroke-linejoin="round" d="M 6064,1246 L 6264,1445 6464,1246 6264,1046 6064,1246 Z"/>
 <path fill="rgb(255,66,14)" stroke="none" d="M 6776,608 L 6976,807 7176,608 6976,408 6776,608 Z"/>
 <path fill="none" stroke="rgb(255,66,14)" stroke-linejoin="round" d="M 6776,608 L 6976,807 7176,608 6976,408 6776,608 Z"/>
 <path fill="rgb(255,66,14)" stroke="none" d="M 7488,1354 L 7688,1553 7888,1354 7688,1154 7488,1354 Z"/>
 <path fill="none" stroke="rgb(255,66,14)" stroke-linejoin="round" d="M 7488,1354 L 7688,1553 7888,1354 7688,1154 7488,1354 Z"/>
 <path fill="rgb(255,66,14)" stroke="none" d="M 8199,773 L 8399,973 8599,773 8399,574 8199,773 Z"/>
 <path fill="none" stroke="rgb(255,66,14)" stroke-linejoin="round" d="M 8199,773 L 8399,973 8599,773 8399,574 8199,773 Z"/>
 <path fill="rgb(255,66,14)" stroke="none" d="M 8911,773 L 9111,973 9311,773 9111,574 8911,773 Z"/>
 <path fill="none" stroke="rgb(255,66,14)" stroke-linejoin="round" d="M 8911,773 L 9111,973 9311,773 9111,574 8911,773 Z"/>
 <path fill="rgb(255,66,14)" stroke="none" d="M 9623,746 L 9823,946 10023,746 9823,547 9623,746 Z"/>
 <path fill="none" stroke="rgb(255,66,14)" stroke-linejoin="round" d="M 9623,746 L 9823,946 10023,746 9823,547 9623,746 Z"/>
 <path fill="rgb(255,66,14)" stroke="none" d="M 10335,663 L 10535,863 10735,663 10535,464 10335,663 Z"/>
 <path fill="none" stroke="rgb(255,66,14)" stroke-linejoin="round" d="M 10335,663 L 10535,863 10735,663 10535,464 10335,663 Z"/>
 <path fill="rgb(255,66,14)" stroke="none" d="M 11047,905 L 11247,1104 11447,905 11247,705 11047,905 Z"/>
 <path fill="none" stroke="rgb(255,66,14)" stroke-linejoin="round" d="M 11047,905 L 11247,1104 11447,905 11247,705 11047,905 Z"/>
 <path fill="rgb(255,66,14)" stroke="none" d="M 11759,804 L 11959,1004 12159,804 11959,605 11759,804 Z"/>
 <path fill="none" stroke="rgb(255,66,14)" stroke-linejoin="round" d="M 11759,804 L 11959,1004 12159,804 11959,605 11759,804 Z"/>
 <path fill="rgb(255,66,14)" stroke="none" d="M 12471,1204 L 12671,1404 12871,1204 12671,1005 12471,1204 Z"/>
 <path fill="none" stroke="rgb(255,66,14)" stroke-linejoin="round" d="M 12471,1204 L 12671,1404 12871,1204 12671,1005 12471,1204 Z"/>
 <path fill="rgb(255,66,14)" stroke="none" d="M 13183,780 L 13383,980 13583,780 13383,581 13183,780 Z"/>
 <path fill="none" stroke="rgb(255,66,14)" stroke-linejoin="round" d="M 13183,780 L 13383,980 13583,780 13383,581 13183,780 Z"/>
 <text class="TextShape" transform="translate(429,7513) rotate(-44.9) translate(-429,-7513)"><tspan class="TextParagraph" font-family="Liberation Sans" font-size="353px" font-weight="400"><tspan class="TextPosition" x="429" y="7513"><tspan fill="rgb(0,0,0)" stroke="none">Property scope</tspan></tspan></tspan></text>
 <text class="TextShape" transform="translate(1327,7328) rotate(-44.9) translate(-1327,-7328)"><tspan class="TextParagraph" font-family="Liberation Sans" font-size="353px" font-weight="400"><tspan class="TextPosition" x="1327" y="7328"><tspan fill="rgb(0,0,0)" stroke="none">Conflicts with</tspan></tspan></tspan></text>
 <text class="TextShape" transform="translate(1441,7924) rotate(-44.9) translate(-1441,-7924)"><tspan class="TextParagraph" font-family="Liberation Sans" font-size="353px" font-weight="400"><tspan class="TextPosition" x="1441" y="7924"><tspan fill="rgb(0,0,0)" stroke="none">Allowed entity type</tspan></tspan></tspan></text>
 <text class="TextShape" transform="translate(3369,6711) rotate(-44.9) translate(-3369,-6711)"><tspan class="TextParagraph" font-family="Liberation Sans" font-size="353px" font-weight="400"><tspan class="TextPosition" x="3369" y="6711"><tspan fill="rgb(0,0,0)" stroke="none">None of</tspan></tspan></tspan></text>
 <text class="TextShape" transform="translate(3314,7477) rotate(-44.9) translate(-3314,-7477)"><tspan class="TextParagraph" font-family="Liberation Sans" font-size="353px" font-weight="400"><tspan class="TextPosition" x="3314" y="7477"><tspan fill="rgb(0,0,0)" stroke="none">Distinct values</tspan></tspan></tspan></text>
 <text class="TextShape" transform="translate(4194,7309) rotate(-44.9) translate(-4194,-7309)"><tspan class="TextParagraph" font-family="Liberation Sans" font-size="353px" font-weight="400"><tspan class="TextPosition" x="4194" y="7309"><tspan fill="rgb(0,0,0)" stroke="none">Allowed units</tspan></tspan></tspan></text>
 <text class="TextShape" transform="translate(4457,7757) rotate(-44.9) translate(-4457,-7757)"><tspan class="TextParagraph" font-family="Liberation Sans" font-size="353px" font-weight="400"><tspan class="TextPosition" x="4457" y="7757"><tspan fill="rgb(0,0,0)" stroke="none">Allowed qualifiers</tspan></tspan></tspan></text>
 <text class="TextShape" transform="translate(6329,6599) rotate(-44.9) translate(-6329,-6599)"><tspan class="TextParagraph" font-family="Liberation Sans" font-size="353px" font-weight="400"><tspan class="TextPosition" x="6329" y="6599"><tspan fill="rgb(0,0,0)" stroke="none">One-of</tspan></tspan></tspan></text>
 <text class="TextShape" transform="translate(5471,8167) rotate(-44.9) translate(-5471,-8167)"><tspan class="TextParagraph" font-family="Liberation Sans" font-size="353px" font-weight="400"><tspan class="TextPosition" x="5471" y="8167"><tspan fill="rgb(0,0,0)" stroke="none">One-of qualifier value</tspan></tspan></tspan></text>
 <text class="TextShape" transform="translate(5901,8447) rotate(-44.9) translate(-5901,-8447)"><tspan class="TextParagraph" font-family="Liberation Sans" font-size="353px" font-weight="400"><tspan class="TextPosition" x="5901" y="8447"><tspan fill="rgb(0,0,0)" stroke="none">Item requires statement</tspan></tspan></tspan></text>
 <text class="TextShape" transform="translate(6501,8559) rotate(-44.9) translate(-6501,-8559)"><tspan class="TextParagraph" font-family="Liberation Sans" font-size="353px" font-weight="400"><tspan class="TextPosition" x="6501" y="8559"><tspan fill="rgb(0,0,0)" stroke="none">Value requires statement</tspan></tspan></tspan></text>
 <text class="TextShape" transform="translate(9103,6674) rotate(-44.9) translate(-9103,-6674)"><tspan class="TextParagraph" font-family="Liberation Sans" font-size="353px" font-weight="400"><tspan class="TextPosition" x="9103" y="6674"><tspan fill="rgb(0,0,0)" stroke="none">Inverse</tspan></tspan></tspan></text>
 <text class="TextShape" transform="translate(9440,7048) rotate(-44.9) translate(-9440,-7048)"><tspan class="TextParagraph" font-family="Liberation Sans" font-size="353px" font-weight="400"><tspan class="TextPosition" x="9440" y="7048"><tspan fill="rgb(0,0,0)" stroke="none">Symmetric</tspan></tspan></tspan></text>
 <text class="TextShape" transform="translate(10152,7048) rotate(-44.9) translate(-10152,-7048)"><tspan class="TextParagraph" font-family="Liberation Sans" font-size="353px" font-weight="400"><tspan class="TextPosition" x="10152" y="7048"><tspan fill="rgb(0,0,0)" stroke="none">Multi-value</tspan></tspan></tspan></text>
 <text class="TextShape" transform="translate(10714,7198) rotate(-44.9) translate(-10714,-7198)"><tspan class="TextParagraph" font-family="Liberation Sans" font-size="353px" font-weight="400"><tspan class="TextPosition" x="10714" y="7198"><tspan fill="rgb(0,0,0)" stroke="none">Single value</tspan></tspan></tspan></text>
 <text class="TextShape" transform="translate(10697,7924) rotate(-44.9) translate(-10697,-7924)"><tspan class="TextParagraph" font-family="Liberation Sans" font-size="353px" font-weight="400"><tspan class="TextPosition" x="10697" y="7924"><tspan fill="rgb(0,0,0)" stroke="none">Mandatory qualifier</tspan></tspan></tspan></text>
 <text class="TextShape" transform="translate(11595,7739) rotate(-44.9) translate(-11595,-7739)"><tspan class="TextParagraph" font-family="Liberation Sans" font-size="353px" font-weight="400"><tspan class="TextPosition" x="11595" y="7739"><tspan fill="rgb(0,0,0)" stroke="none">Single best value</tspan></tspan></tspan></text>
 <text class="TextShape"><tspan class="TextParagraph" font-family="Liberation Sans" font-size="352px" font-weight="400"><tspan class="TextPosition" x="1201" y="5518"><tspan fill="rgb(0,0,0)" stroke="none">1</tspan></tspan></tspan></text>
 <text class="TextShape"><tspan class="TextParagraph" font-family="Liberation Sans" font-size="352px" font-weight="400"><tspan class="TextPosition" x="1016" y="4478"><tspan fill="rgb(0,0,0)" stroke="none">10</tspan></tspan></tspan></text>
 <text class="TextShape"><tspan class="TextParagraph" font-family="Liberation Sans" font-size="352px" font-weight="400"><tspan class="TextPosition" x="830" y="3437"><tspan fill="rgb(0,0,0)" stroke="none">100</tspan></tspan></tspan></text>
 <text class="TextShape"><tspan class="TextParagraph" font-family="Liberation Sans" font-size="352px" font-weight="400"><tspan class="TextPosition" x="539" y="2398"><tspan fill="rgb(0,0,0)" stroke="none">1,000</tspan></tspan></tspan></text>
 <text class="TextShape"><tspan class="TextParagraph" font-family="Liberation Sans" font-size="352px" font-weight="400"><tspan class="TextPosition" x="354" y="1357"><tspan fill="rgb(0,0,0)" stroke="none">10,000</tspan></tspan></tspan></text>
 <text class="TextShape"><tspan class="TextParagraph" font-family="Liberation Sans" font-size="352px" font-weight="400"><tspan class="TextPosition" x="169" y="318"><tspan fill="rgb(0,0,0)" stroke="none">100,000</tspan></tspan></tspan></text>
 <text class="TextShape"><tspan class="TextParagraph" font-family="Liberation Sans" font-size="352px" font-weight="400"><tspan class="TextPosition" x="13989" y="5518"><tspan fill="rgb(0,0,0)" stroke="none">1</tspan></tspan></tspan></text>
 <text class="TextShape"><tspan class="TextParagraph" font-family="Liberation Sans" font-size="352px" font-weight="400"><tspan class="TextPosition" x="13989" y="4868"><tspan fill="rgb(0,0,0)" stroke="none">10</tspan></tspan></tspan></text>
 <text class="TextShape"><tspan class="TextParagraph" font-family="Liberation Sans" font-size="352px" font-weight="400"><tspan class="TextPosition" x="13989" y="4217"><tspan fill="rgb(0,0,0)" stroke="none">100</tspan></tspan></tspan></text>
 <text class="TextShape"><tspan class="TextParagraph" font-family="Liberation Sans" font-size="352px" font-weight="400"><tspan class="TextPosition" x="13989" y="3568"><tspan fill="rgb(0,0,0)" stroke="none">1,000</tspan></tspan></tspan></text>
 <text class="TextShape"><tspan class="TextParagraph" font-family="Liberation Sans" font-size="352px" font-weight="400"><tspan class="TextPosition" x="13989" y="2917"><tspan fill="rgb(0,0,0)" stroke="none">10,000</tspan></tspan></tspan></text>
 <text class="TextShape"><tspan class="TextParagraph" font-family="Liberation Sans" font-size="352px" font-weight="400"><tspan class="TextPosition" x="13989" y="2267"><tspan fill="rgb(0,0,0)" stroke="none">100,000</tspan></tspan></tspan></text>
 <text class="TextShape"><tspan class="TextParagraph" font-family="Liberation Sans" font-size="352px" font-weight="400"><tspan class="TextPosition" x="13989" y="1618"><tspan fill="rgb(0,0,0)" stroke="none">1,000,000</tspan></tspan></tspan></text>
 <text class="TextShape"><tspan class="TextParagraph" font-family="Liberation Sans" font-size="352px" font-weight="400"><tspan class="TextPosition" x="13989" y="967"><tspan fill="rgb(0,0,0)" stroke="none">10,000,000</tspan></tspan></tspan></text>
 <text class="TextShape"><tspan class="TextParagraph" font-family="Liberation Sans" font-size="352px" font-weight="400"><tspan class="TextPosition" x="13989" y="318"><tspan fill="rgb(0,0,0)" stroke="none">100,000,000</tspan></tspan></tspan></text>
 <text class="TextShape" transform="translate(590,5668) rotate(-90) translate(-590,-5668)"><tspan class="TextParagraph" font-family="Liberation Sans" font-size="318px" font-weight="400"><tspan class="TextPosition" x="590" y="5668"><tspan fill="rgb(0,0,0)" stroke="none">Loading time in ms</tspan></tspan></tspan></text>
 <text class="TextShape" transform="translate(15426,5430) rotate(-90) translate(-15426,-5430)"><tspan class="TextParagraph" font-family="Liberation Sans" font-size="318px" font-weight="400"><tspan class="TextPosition" x="15426" y="5430"><tspan fill="rgb(0,0,0)" stroke="none">Number of facts</tspan></tspan></tspan></text>
</svg>