<?xml version="1.0" encoding="UTF-8"?>
<!DOCTYPE svg PUBLIC "-//W3C//DTD SVG 1.1//EN" "http://www.w3.org/Graphics/SVG/1.1/DTD/svg11.dtd">
<svg width="160mm" height="90mm" viewBox="0 0 16000 9000" version="1.1" xmlns="http://www.w3.org/2000/svg" stroke-width="28.222" stroke-linejoin="round" xml:space="preserve">
 <path fill="rgb(255,255,255)" stroke="none" d="M 8027,8999 L 27,8999 27,0 16026,0 16026,8999 8027,8999 Z"/>
 <path fill="none" stroke="rgb(179,179,179)" stroke-linejoin="round" d="M 7975,5387 L 2187,5387 2187,1006 13763,1006 13763,5387 7975,5387 Z"/>
 <path fill="none" stroke="rgb(179,179,179)" stroke-linejoin="round" d="M 13763,5386 L 2187,5386"/>
 <path fill="none" stroke="rgb(179,179,179)" stroke-linejoin="round" d="M 13763,4655 L 2187,4655"/>
 <path fill="none" stroke="rgb(179,179,179)" stroke-linejoin="round" d="M 13763,3926 L 2187,3926"/>
 <path fill="none" stroke="rgb(179,179,179)" stroke-linejoin="round" d="M 13763,3195 L 2187,3195"/>
 <path fill="none" stroke="rgb(179,179,179)" stroke-linejoin="round" d="M 13763,2465 L 2187,2465"/>
 <path fill="none" stroke="rgb(179,179,179)" stroke-linejoin="round" d="M 13763,1735 L 2187,1735"/>
 <path fill="none" stroke="rgb(179,179,179)" stroke-linejoin="round" d="M 13763,1004 L 2187,1004"/>
 <path fill="none" stroke="rgb(179,179,179)" stroke-linejoin="round" d="M 2187,5536 L 2187,5386"/>
 <path fill="none" stroke="rgb(179,179,179)" stroke-linejoin="round" d="M 2187,5536 L 2187,5386"/>
 <path fill="none" stroke="rgb(179,179,179)" stroke-linejoin="round" d="M 2868,5536 L 2868,5386"/>
 <path fill="none" stroke="rgb(179,179,179)" stroke-linejoin="round" d="M 2868,5536 L 2868,5386"/>
 <path fill="none" stroke="rgb(179,179,179)" stroke-linejoin="round" d="M 3549,5536 L 3549,5386"/>
 <path fill="none" stroke="rgb(179,179,179)" stroke-linejoin="round" d="M 3549,5536 L 3549,5386"/>
 <path fill="none" stroke="rgb(179,179,179)" stroke-linejoin="round" d="M 4230,5536 L 4230,5386"/>
 <path fill="none" stroke="rgb(179,179,179)" stroke-linejoin="round" d="M 4230,5536 L 4230,5386"/>
 <path fill="none" stroke="rgb(179,179,179)" stroke-linejoin="round" d="M 4911,5536 L 4911,5386"/>
 <path fill="none" stroke="rgb(179,179,179)" stroke-linejoin="round" d="M 4911,5536 L 4911,5386"/>
 <path fill="none" stroke="rgb(179,179,179)" stroke-linejoin="round" d="M 5592,5536 L 5592,5386"/>
 <path fill="none" stroke="rgb(179,179,179)" stroke-linejoin="round" d="M 5592,5536 L 5592,5386"/>
 <path fill="none" stroke="rgb(179,179,179)" stroke-linejoin="round" d="M 6273,5536 L 6273,5386"/>
 <path fill="none" stroke="rgb(179,179,179)" stroke-linejoin="round" d="M 6273,5536 L 6273,5386"/>
 <path fill="none" stroke="rgb(179,179,179)" stroke-linejoin="round" d="M 6954,5536 L 6954,5386"/>
 <path fill="none" stroke="rgb(179,179,179)" stroke-linejoin="round" d="M 6954,5536 L 6954,5386"/>
 <path fill="none" stroke="rgb(179,179,179)" stroke-linejoin="round" d="M 7635,5536 L 7635,5386"/>
 <path fill="none" stroke="rgb(179,179,179)" stroke-linejoin="round" d="M 7635,5536 L 7635,5386"/>
 <path fill="none" stroke="rgb(179,179,179)" stroke-linejoin="round" d="M 8315,5536 L 8315,5386"/>
 <path fill="none" stroke="rgb(179,179,179)" stroke-linejoin="round" d="M 8315,5536 L 8315,5386"/>
 <path fill="none" stroke="rgb(179,179,179)" stroke-linejoin="round" d="M 8996,5536 L 8996,5386"/>
 <path fill="none" stroke="rgb(179,179,179)" stroke-linejoin="round" d="M 8996,5536 L 8996,5386"/>
 <path fill="none" stroke="rgb(179,179,179)" stroke-linejoin="round" d="M 9677,5536 L 9677,5386"/>
 <path fill="none" stroke="rgb(179,179,179)" stroke-linejoin="round" d="M 9677,5536 L 9677,5386"/>
 <path fill="none" stroke="rgb(179,179,179)" stroke-linejoin="round" d="M 10358,5536 L 10358,5386"/>
 <path fill="none" stroke="rgb(179,179,179)" stroke-linejoin="round" d="M 10358,5536 L 10358,5386"/>
 <path fill="none" stroke="rgb(179,179,179)" stroke-linejoin="round" d="M 11039,5536 L 11039,5386"/>
 <path fill="none" stroke="rgb(179,179,179)" stroke-linejoin="round" d="M 11039,5536 L 11039,5386"/>
 <path fill="none" stroke="rgb(179,179,179)" stroke-linejoin="round" d="M 11720,5536 L 11720,5386"/>
 <path fill="none" stroke="rgb(179,179,179)" stroke-linejoin="round" d="M 11720,5536 L 11720,5386"/>
 <path fill="none" stroke="rgb(179,179,179)" stroke-linejoin="round" d="M 12401,5536 L 12401,5386"/>
 <path fill="none" stroke="rgb(179,179,179)" stroke-linejoin="round" d="M 12401,5536 L 12401,5386"/>
 <path fill="none" stroke="rgb(179,179,179)" stroke-linejoin="round" d="M 13082,5536 L 13082,5386"/>
 <path fill="none" stroke="rgb(179,179,179)" stroke-linejoin="round" d="M 13082,5536 L 13082,5386"/>
 <path fill="none" stroke="rgb(179,179,179)" stroke-linejoin="round" d="M 13763,5536 L 13763,5386"/>
 <path fill="none" stroke="rgb(179,179,179)" stroke-linejoin="round" d="M 13763,5536 L 13763,5386"/>
 <path fill="none" stroke="rgb(179,179,179)" stroke-linejoin="round" d="M 2187,5386 L 13763,5386"/>
 <path fill="none" stroke="rgb(179,179,179)" stroke-linejoin="round" d="M 2037,5386 L 2187,5386"/>
 <path fill="none" stroke="rgb(179,179,179)" stroke-linejoin="round" d="M 2037,5386 L 2187,5386"/>
 <path fill="none" stroke="rgb(179,179,179)" stroke-linejoin="round" d="M 2037,4655 L 2187,4655"/>
 <path fill="none" stroke="rgb(179,179,179)" stroke-linejoin="round" d="M 2037,4655 L 2187,4655"/>
 <path fill="none" stroke="rgb(179,179,179)" stroke-linejoin="round" d="M 2037,3926 L 2187,3926"/>
 <path fill="none" stroke="rgb(179,179,179)" stroke-linejoin="round" d="M 2037,3926 L 2187,3926"/>
 <path fill="none" stroke="rgb(179,179,179)" stroke-linejoin="round" d="M 2037,3196 L 2187,3196"/>
 <path fill="none" stroke="rgb(179,179,179)" stroke-linejoin="round" d="M 2037,3196 L 2187,3196"/>
 <path fill="none" stroke="rgb(179,179,179)" stroke-linejoin="round" d="M 2037,2465 L 2187,2465"/>
 <path fill="none" stroke="rgb(179,179,179)" stroke-linejoin="round" d="M 2037,2465 L 2187,2465"/>
 <path fill="none" stroke="rgb(179,179,179)" stroke-linejoin="round" d="M 2037,1735 L 2187,1735"/>
 <path fill="none" stroke="rgb(179,179,179)" stroke-linejoin="round" d="M 2037,1735 L 2187,1735"/>
 <path fill="none" stroke="rgb(179,179,179)" stroke-linejoin="round" d="M 2037,1005 L 2187,1005"/>
 <path fill="none" stroke="rgb(179,179,179)" stroke-linejoin="round" d="M 2037,1005 L 2187,1005"/>
 <path fill="none" stroke="rgb(179,179,179)" stroke-linejoin="round" d="M 2187,5386 L 2187,1005"/>
 <path fill="none" stroke="rgb(179,179,179)" stroke-linejoin="round" d="M 13913,5386 L 13763,5386"/>
 <path fill="none" stroke="rgb(179,179,179)" stroke-linejoin="round" d="M 13913,5386 L 13763,5386"/>
 <path fill="none" stroke="rgb(179,179,179)" stroke-linejoin="round" d="M 13913,4760 L 13763,4760"/>
 <path fill="none" stroke="rgb(179,179,179)" stroke-linejoin="round" d="M 13913,4760 L 13763,4760"/>
 <path fill="none" stroke="rgb(179,179,179)" stroke-linejoin="round" d="M 13913,4135 L 13763,4135"/>
 <path fill="none" stroke="rgb(179,179,179)" stroke-linejoin="round" d="M 13913,4135 L 13763,4135"/>
 <path fill="none" stroke="rgb(179,179,179)" stroke-linejoin="round" d="M 13913,3509 L 13763,3509"/>
 <path fill="none" stroke="rgb(179,179,179)" stroke-linejoin="round" d="M 13913,3509 L 13763,3509"/>
 <path fill="none" stroke="rgb(179,179,179)" stroke-linejoin="round" d="M 13913,2883 L 13763,2883"/>
 <path fill="none" stroke="rgb(179,179,179)" stroke-linejoin="round" d="M 13913,2883 L 13763,2883"/>
 <path fill="none" stroke="rgb(179,179,179)" stroke-linejoin="round" d="M 13913,2257 L 13763,2257"/>
 <path fill="none" stroke="rgb(179,179,179)" stroke-linejoin="round" d="M 13913,2257 L 13763,2257"/>
 <path fill="none" stroke="rgb(179,179,179)" stroke-linejoin="round" d="M 13913,1631 L 13763,1631"/>
 <path fill="none" stroke="rgb(179,179,179)" stroke-linejoin="round" d="M 13913,1631 L 13763,1631"/>
 <path fill="none" stroke="rgb(179,179,179)" stroke-linejoin="round" d="M 13913,1005 L 13763,1005"/>
 <path fill="none" stroke="rgb(179,179,179)" stroke-linejoin="round" d="M 13913,1005 L 13763,1005"/>
 <path fill="none" stroke="rgb(179,179,179)" stroke-linejoin="round" d="M 13763,5386 L 13763,1005"/>
 <path fill="rgb(0,69,134)" stroke="none" d="M 11209,5386 L 11549,5386 11549,3526 11209,3526 11209,5386 Z"/>
 <path fill="rgb(0,69,134)" stroke="none" d="M 10528,5386 L 10868,5386 10868,4353 10528,4353 10528,5386 Z"/>
 <path fill="rgb(0,69,134)" stroke="none" d="M 9847,5386 L 10187,5386 10187,4341 9847,4341 9847,5386 Z"/>
 <path fill="rgb(0,69,134)" stroke="none" d="M 9166,5386 L 9506,5386 9506,3656 9166,3656 9166,5386 Z"/>
 <path fill="rgb(0,69,134)" stroke="none" d="M 8485,5386 L 8825,5386 8825,1460 8485,1460 8485,5386 Z"/>
 <path fill="rgb(0,69,134)" stroke="none" d="M 7805,5386 L 8144,5386 8144,4330 7805,4330 7805,5386 Z"/>
 <path fill="rgb(0,69,134)" stroke="none" d="M 7124,5386 L 7464,5386 7464,3464 7124,3464 7124,5386 Z"/>
 <path fill="rgb(0,69,134)" stroke="none" d="M 6443,5386 L 6783,5386 6783,3457 6443,3457 6443,5386 Z"/>
 <path fill="rgb(0,69,134)" stroke="none" d="M 5762,5386 L 6102,5386 6102,2428 5762,2428 5762,5386 Z"/>
 <path fill="rgb(0,69,134)" stroke="none" d="M 5081,5386 L 5421,5386 5421,3942 5081,3942 5081,5386 Z"/>
 <path fill="rgb(0,69,134)" stroke="none" d="M 3719,5386 L 4059,5386 4059,4625 3719,4625 3719,5386 Z"/>
 <path fill="rgb(0,69,134)" stroke="none" d="M 3038,5386 L 3378,5386 3378,4366 3038,4366 3038,5386 Z"/>
 <path fill="rgb(0,69,134)" stroke="none" d="M 2357,5386 L 2697,5386 2697,3082 2357,3082 2357,5386 Z"/>
 <path fill="rgb(255,66,14)" stroke="none" d="M 2402,2834 L 2402,3084 2652,3084 2652,2834 2402,2834 Z"/>
 <path fill="none" stroke="rgb(255,66,14)" stroke-linejoin="round" d="M 2402,2834 L 2402,3084 2652,3084 2652,2834 2402,2834 Z"/>
 <path fill="rgb(255,66,14)" stroke="none" d="M 3083,4001 L 3083,4251 3333,4251 3333,4001 3083,4001 Z"/>
 <path fill="none" stroke="rgb(255,66,14)" stroke-linejoin="round" d="M 3083,4001 L 3083,4251 3333,4251 3333,4001 3083,4001 Z"/>
 <path fill="rgb(255,66,14)" stroke="none" d="M 3764,4227 L 3764,4477 4014,4477 4014,4227 3764,4227 Z"/>
 <path fill="none" stroke="rgb(255,66,14)" stroke-linejoin="round" d="M 3764,4227 L 3764,4477 4014,4477 4014,4227 3764,4227 Z"/>
 <path fill="rgb(255,66,14)" stroke="none" d="M 4445,4962 L 4445,5212 4695,5212 4695,4962 4445,4962 Z"/>
 <path fill="none" stroke="rgb(255,66,14)" stroke-linejoin="round" d="M 4445,4962 L 4445,5212 4695,5212 4695,4962 4445,4962 Z"/>
 <path fill="rgb(255,66,14)" stroke="none" d="M 5126,4074 L 5126,4324 5376,4324 5376,4074 5126,4074 Z"/>
 <path fill="none" stroke="rgb(255,66,14)" stroke-linejoin="round" d="M 5126,4074 L 5126,4324 5376,4324 5376,4074 5126,4074 Z"/>
 <path fill="rgb(255,66,14)" stroke="none" d="M 5807,2751 L 5807,3001 6057,3001 6057,2751 5807,2751 Z"/>
 <path fill="none" stroke="rgb(255,66,14)" stroke-linejoin="round" d="M 5807,2751 L 5807,3001 6057,3001 6057,2751 5807,2751 Z"/>
 <path fill="rgb(255,66,14)" stroke="none" d="M 6488,3659 L 6488,3909 6738,3909 6738,3659 6488,3659 Z"/>
 <path fill="none" stroke="rgb(255,66,14)" stroke-linejoin="round" d="M 6488,3659 L 6488,3909 6738,3909 6738,3659 6488,3659 Z"/>
 <path fill="rgb(255,66,14)" stroke="none" d="M 7169,4823 L 7169,5073 7419,5073 7419,4823 7169,4823 Z"/>
 <path fill="none" stroke="rgb(255,66,14)" stroke-linejoin="round" d="M 7169,4823 L 7169,5073 7419,5073 7419,4823 7169,4823 Z"/>
 <path fill="rgb(255,66,14)" stroke="none" d="M 8530,3033 L 8530,3283 8780,3283 8780,3033 8530,3033 Z"/>
 <path fill="none" stroke="rgb(255,66,14)" stroke-linejoin="round" d="M 8530,3033 L 8530,3283 8780,3283 8780,3033 8530,3033 Z"/>
 <path fill="rgb(255,66,14)" stroke="none" d="M 9211,4962 L 9211,5212 9461,5212 9461,4962 9211,4962 Z"/>
 <path fill="none" stroke="rgb(255,66,14)" stroke-linejoin="round" d="M 9211,4962 L 9211,5212 9461,5212 9461,4962 9211,4962 Z"/>
 <path fill="rgb(255,66,14)" stroke="none" d="M 11254,4823 L 11254,5073 11504,5073 11504,4823 11254,4823 Z"/>
 <path fill="none" stroke="rgb(255,66,14)" stroke-linejoin="round" d="M 11254,4823 L 11254,5073 11504,5073 11504,4823 11254,4823 Z"/>
 <path fill="rgb(255,211,32)" stroke="none" d="M 2402,2959 L 2527,3084 2652,2959 2527,2834 2402,2959 Z"/>
 <path fill="none" stroke="rgb(255,211,32)" stroke-linejoin="round" d="M 2402,2959 L 2527,3084 2652,2959 2527,2834 2402,2959 Z"/>
 <path fill="rgb(255,211,32)" stroke="none" d="M 3083,4126 L 3208,4251 3333,4126 3208,4001 3083,4126 Z"/>
 <path fill="none" stroke="rgb(255,211,32)" stroke-linejoin="round" d="M 3083,4126 L 3208,4251 3333,4126 3208,4001 3083,4126 Z"/>
 <path fill="rgb(255,211,32)" stroke="none" d="M 3764,4352 L 3889,4477 4014,4352 3889,4227 3764,4352 Z"/>
 <path fill="none" stroke="rgb(255,211,32)" stroke-linejoin="round" d="M 3764,4352 L 3889,4477 4014,4352 3889,4227 3764,4352 Z"/>
 <path fill="rgb(255,211,32)" stroke="none" d="M 4445,5087 L 4570,5212 4695,5087 4570,4962 4445,5087 Z"/>
 <path fill="none" stroke="rgb(255,211,32)" stroke-linejoin="round" d="M 4445,5087 L 4570,5212 4695,5087 4570,4962 4445,5087 Z"/>
 <path fill="rgb(255,211,32)" stroke="none" d="M 5126,2119 L 5251,2244 5376,2119 5251,1994 5126,2119 Z"/>
 <path fill="none" stroke="rgb(255,211,32)" stroke-linejoin="round" d="M 5126,2119 L 5251,2244 5376,2119 5251,1994 5126,2119 Z"/>
 <path fill="rgb(255,211,32)" stroke="none" d="M 5807,2723 L 5932,2848 6057,2723 5932,2598 5807,2723 Z"/>
 <path fill="none" stroke="rgb(255,211,32)" stroke-linejoin="round" d="M 5807,2723 L 5932,2848 6057,2723 5932,2598 5807,2723 Z"/>
 <path fill="rgb(255,211,32)" stroke="none" d="M 6488,2795 L 6613,2920 6738,2795 6613,2670 6488,2795 Z"/>
 <path fill="none" stroke="rgb(255,211,32)" stroke-linejoin="round" d="M 6488,2795 L 6613,2920 6738,2795 6613,2670 6488,2795 Z"/>
 <path fill="rgb(255,211,32)" stroke="none" d="M 7169,1166 L 7294,1291 7419,1166 7294,1041 7169,1166 Z"/>
 <path fill="none" stroke="rgb(255,211,32)" stroke-linejoin="round" d="M 7169,1166 L 7294,1291 7419,1166 7294,1041 7169,1166 Z"/>
 <path fill="rgb(255,211,32)" stroke="none" d="M 7850,2352 L 7975,2477 8099,2352 7975,2227 7850,2352 Z"/>
 <path fill="none" stroke="rgb(255,211,32)" stroke-linejoin="round" d="M 7850,2352 L 7975,2477 8099,2352 7975,2227 7850,2352 Z"/>
 <path fill="rgb(255,211,32)" stroke="none" d="M 8530,1158 L 8655,1283 8780,1158 8655,1033 8530,1158 Z"/>
 <path fill="none" stroke="rgb(255,211,32)" stroke-linejoin="round" d="M 8530,1158 L 8655,1283 8780,1158 8655,1033 8530,1158 Z"/>
 <path fill="rgb(255,211,32)" stroke="none" d="M 9211,1168 L 9336,1293 9461,1168 9336,1043 9211,1168 Z"/>
 <path fill="none" stroke="rgb(255,211,32)" stroke-linejoin="round" d="M 9211,1168 L 9336,1293 9461,1168 9336,1043 9211,1168 Z"/>
 <path fill="rgb(255,211,32)" stroke="none" d="M 9892,3534 L 10017,3659 10142,3534 10017,3409 9892,3534 Z"/>
 <path fill="none" stroke="rgb(255,211,32)" stroke-linejoin="round" d="M 9892,3534 L 10017,3659 10142,3534 10017,3409 9892,3534 Z"/>
 <path fill="rgb(255,211,32)" stroke="none" d="M 10573,1169 L 10698,1294 10823,1169 10698,1044 10573,1169 Z"/>
 <path fill="none" stroke="rgb(255,211,32)" stroke-linejoin="round" d="M 10573,1169 L 10698,1294 10823,1169 10698,1044 10573,1169 Z"/>
 <path fill="rgb(255,211,32)" stroke="none" d="M 11254,3341 L 11379,3466 11504,3341 11379,3216 11254,3341 Z"/>
 <path fill="none" stroke="rgb(255,211,32)" stroke-linejoin="round" d="M 11254,3341 L 11379,3466 11504,3341 11379,3216 11254,3341 Z"/>
 <text class="TextShape" transform="translate(964,7507) rotate(-44.9) translate(-964,-7507)"><tspan class="TextParagraph" font-family="Liberation Sans" font-size="353px" font-weight="400"><tspan class="TextPosition" x="964" y="7507"><tspan fill="rgb(0,0,0)" stroke="none">Property scope</tspan></tspan></tspan></text>
 <text class="TextShape" transform="translate(1831,7321) rotate(-44.9) translate(-1831,-7321)"><tspan class="TextParagraph" font-family="Liberation Sans" font-size="353px" font-weight="400"><tspan class="TextPosition" x="1831" y="7321"><tspan fill="rgb(0,0,0)" stroke="none">Conflicts with</tspan></tspan></tspan></text>
 <text class="TextShape" transform="translate(1914,7919) rotate(-44.9) translate(-1914,-7919)"><tspan class="TextParagraph" font-family="Liberation Sans" font-size="353px" font-weight="400"><tspan class="TextPosition" x="1914" y="7919"><tspan fill="rgb(0,0,0)" stroke="none">Allowed entity type</tspan></tspan></tspan></text>
 <text class="TextShape" transform="translate(3811,6703) rotate(-44.9) translate(-3811,-6703)"><tspan class="TextParagraph" font-family="Liberation Sans" font-size="353px" font-weight="400"><tspan class="TextPosition" x="3811" y="6703"><tspan fill="rgb(0,0,0)" stroke="none">None of</tspan></tspan></tspan></text>
 <text class="TextShape" transform="translate(3725,7471) rotate(-44.9) translate(-3725,-7471)"><tspan class="TextParagraph" font-family="Liberation Sans" font-size="353px" font-weight="400"><tspan class="TextPosition" x="3725" y="7471"><tspan fill="rgb(0,0,0)" stroke="none">Distinct values</tspan></tspan></tspan></text>
 <text class="TextShape" transform="translate(4574,7302) rotate(-44.9) translate(-4574,-7302)"><tspan class="TextParagraph" font-family="Liberation Sans" font-size="353px" font-weight="400"><tspan class="TextPosition" x="4574" y="7302"><tspan fill="rgb(0,0,0)" stroke="none">Allowed units</tspan></tspan></tspan></text>
 <text class="TextShape" transform="translate(4806,7751) rotate(-44.9) translate(-4806,-7751)"><tspan class="TextParagraph" font-family="Liberation Sans" font-size="353px" font-weight="400"><tspan class="TextPosition" x="4806" y="7751"><tspan fill="rgb(0,0,0)" stroke="none">Allowed qualifiers</tspan></tspan></tspan></text>
 <text class="TextShape" transform="translate(6647,6591) rotate(-44.9) translate(-6647,-6591)"><tspan class="TextParagraph" font-family="Liberation Sans" font-size="353px" font-weight="400"><tspan class="TextPosition" x="6647" y="6591"><tspan fill="rgb(0,0,0)" stroke="none">One-of</tspan></tspan></tspan></text>
 <text class="TextShape" transform="translate(5758,8162) rotate(-44.9) translate(-5758,-8162)"><tspan class="TextParagraph" font-family="Liberation Sans" font-size="353px" font-weight="400"><tspan class="TextPosition" x="5758" y="8162"><tspan fill="rgb(0,0,0)" stroke="none">One-of qualifier value</tspan></tspan></tspan></text>
 <text class="TextShape" transform="translate(6157,8443) rotate(-44.9) translate(-6157,-8443)"><tspan class="TextParagraph" font-family="Liberation Sans" font-size="353px" font-weight="400"><tspan class="TextPosition" x="6157" y="8443"><tspan fill="rgb(0,0,0)" stroke="none">Item requires statement</tspan></tspan></tspan></text>
 <text class="TextShape" transform="translate(6726,8555) rotate(-44.9) translate(-6726,-8555)"><tspan class="TextParagraph" font-family="Liberation Sans" font-size="353px" font-weight="400"><tspan class="TextPosition" x="6726" y="8555"><tspan fill="rgb(0,0,0)" stroke="none">Value requires statement</tspan></tspan></tspan></text>
 <text class="TextShape" transform="translate(9297,6666) rotate(-44.9) translate(-9297,-6666)"><tspan class="TextParagraph" font-family="Liberation Sans" font-size="353px" font-weight="400"><tspan class="TextPosition" x="9297" y="6666"><tspan fill="rgb(0,0,0)" stroke="none">Inverse</tspan></tspan></tspan></text>
 <text class="TextShape" transform="translate(9603,7041) rotate(-44.9) translate(-9603,-7041)"><tspan class="TextParagraph" font-family="Liberation Sans" font-size="353px" font-weight="400"><tspan class="TextPosition" x="9603" y="7041"><tspan fill="rgb(0,0,0)" stroke="none">Symmetric</tspan></tspan></tspan></text>
 <text class="TextShape" transform="translate(10284,7041) rotate(-44.9) translate(-10284,-7041)"><tspan class="TextParagraph" font-family="Liberation Sans" font-size="353px" font-weight="400"><tspan class="TextPosition" x="10284" y="7041"><tspan fill="rgb(0,0,0)" stroke="none">Multi-value</tspan></tspan></tspan></text>
 <text class="TextShape" transform="translate(10815,7191) rotate(-44.9) translate(-10815,-7191)"><tspan class="TextParagraph" font-family="Liberation Sans" font-size="353px" font-weight="400"><tspan class="TextPosition" x="10815" y="7191"><tspan fill="rgb(0,0,0)" stroke="none">Single value</tspan></tspan></tspan></text>
 <text class="TextShape" transform="translate(10767,7919) rotate(-44.9) translate(-10767,-7919)"><tspan class="TextParagraph" font-family="Liberation Sans" font-size="353px" font-weight="400"><tspan class="TextPosition" x="10767" y="7919"><tspan fill="rgb(0,0,0)" stroke="none">Mandatory qualifier</tspan></tspan></tspan></text>
 <text class="TextShape" transform="translate(11634,7733) rotate(-44.9) translate(-11634,-7733)"><tspan class="TextParagraph" font-family="Liberation Sans" font-size="353px" font-weight="400"><tspan class="TextPosition" x="11634" y="7733"><tspan fill="rgb(0,0,0)" stroke="none">Single best value</tspan></tspan></tspan></text>
 <text class="TextShape"><tspan class="TextParagraph" font-family="Liberation Sans" font-size="353px" font-weight="400"><tspan class="TextPosition" x="1752" y="5507"><tspan fill="rgb(0,0,0)" stroke="none">1</tspan></tspan></tspan></text>
 <text class="TextShape"><tspan class="TextParagraph" font-family="Liberation Sans" font-size="353px" font-weight="400"><tspan class="TextPosition" x="1567" y="4776"><tspan fill="rgb(0,0,0)" stroke="none">10</tspan></tspan></tspan></text>
 <text class="TextShape"><tspan class="TextParagraph" font-family="Liberation Sans" font-size="353px" font-weight="400"><tspan class="TextPosition" x="1381" y="4046"><tspan fill="rgb(0,0,0)" stroke="none">100</tspan></tspan></tspan></text>
 <text class="TextShape"><tspan class="TextParagraph" font-family="Liberation Sans" font-size="353px" font-weight="400"><tspan class="TextPosition" x="1090" y="3316"><tspan fill="rgb(0,0,0)" stroke="none">1,000</tspan></tspan></tspan></text>
 <text class="TextShape"><tspan class="TextParagraph" font-family="Liberation Sans" font-size="353px" font-weight="400"><tspan class="TextPosition" x="905" y="2585"><tspan fill="rgb(0,0,0)" stroke="none">10,000</tspan></tspan></tspan></text>
 <text class="TextShape"><tspan class="TextParagraph" font-family="Liberation Sans" font-size="353px" font-weight="400"><tspan class="TextPosition" x="720" y="1855"><tspan fill="rgb(0,0,0)" stroke="none">100,000</tspan></tspan></tspan></text>
 <text class="TextShape"><tspan class="TextParagraph" font-family="Liberation Sans" font-size="353px" font-weight="400"><tspan class="TextPosition" x="429" y="1125"><tspan fill="rgb(0,0,0)" stroke="none">1,000,000</tspan></tspan></tspan></text>
 <text class="TextShape"><tspan class="TextParagraph" font-family="Liberation Sans" font-size="353px" font-weight="400"><tspan class="TextPosition" x="14013" y="5507"><tspan fill="rgb(0,0,0)" stroke="none">1</tspan></tspan></tspan></text>
 <text class="TextShape"><tspan class="TextParagraph" font-family="Liberation Sans" font-size="353px" font-weight="400"><tspan class="TextPosition" x="14013" y="4881"><tspan fill="rgb(0,0,0)" stroke="none">10</tspan></tspan></tspan></text>
 <text class="TextShape"><tspan class="TextParagraph" font-family="Liberation Sans" font-size="353px" font-weight="400"><tspan class="TextPosition" x="14013" y="4255"><tspan fill="rgb(0,0,0)" stroke="none">100</tspan></tspan></tspan></text>
 <text class="TextShape"><tspan class="TextParagraph" font-family="Liberation Sans" font-size="353px" font-weight="400"><tspan class="TextPosition" x="14013" y="3629"><tspan fill="rgb(0,0,0)" stroke="none">1,000</tspan></tspan></tspan></text>
 <text class="TextShape"><tspan class="TextParagraph" font-family="Liberation Sans" font-size="353px" font-weight="400"><tspan class="TextPosition" x="14013" y="3003"><tspan fill="rgb(0,0,0)" stroke="none">10,000</tspan></tspan></tspan></text>
 <text class="TextShape"><tspan class="TextParagraph" font-family="Liberation Sans" font-size="353px" font-weight="400"><tspan class="TextPosition" x="14013" y="2377"><tspan fill="rgb(0,0,0)" stroke="none">100,000</tspan></tspan></tspan></text>
 <text class="TextShape"><tspan class="TextParagraph" font-family="Liberation Sans" font-size="353px" font-weight="400"><tspan class="TextPosition" x="14013" y="1751"><tspan fill="rgb(0,0,0)" stroke="none">1,000,000</tspan></tspan></tspan></text>
 <text class="TextShape"><tspan class="TextParagraph" font-family="Liberation Sans" font-size="353px" font-weight="400"><tspan class="TextPosition" x="14013" y="1125"><tspan fill="rgb(0,0,0)" stroke="none">10,000,000</tspan></tspan></tspan></text>
 <path fill="rgb(0,69,134)" stroke="none" d="M 4758,589 L 4653,589 4653,378 4864,378 4864,589 4758,589 Z"/>
 <path fill="rgb(255,66,14)" stroke="none" d="M 7341,378 L 7341,589 7552,589 7552,378 7341,378 Z"/>
 <path fill="none" stroke="rgb(255,66,14)" stroke-linejoin="round" d="M 7341,378 L 7341,589 7552,589 7552,378 7341,378 Z"/>
 <path fill="rgb(255,211,32)" stroke="none" d="M 9367,483 L 9472,589 9578,483 9472,378 9367,483 Z"/>
 <path fill="none" stroke="rgb(255,211,32)" stroke-linejoin="round" d="M 9367,483 L 9472,589 9578,483 9472,378 9367,483 Z"/>
 <text class="TextShape"><tspan class="TextParagraph" font-family="Liberation Sans" font-size="353px" font-weight="400"><tspan class="TextPosition" x="4964" y="603"><tspan fill="rgb(0,0,0)" stroke="none">Querying time</tspan></tspan></tspan></text>
 <text class="TextShape"><tspan class="TextParagraph" font-family="Liberation Sans" font-size="353px" font-weight="400"><tspan class="TextPosition" x="7652" y="603"><tspan fill="rgb(0,0,0)" stroke="none">Violations</tspan></tspan></tspan></text>
 <text class="TextShape"><tspan class="TextParagraph" font-family="Liberation Sans" font-size="353px" font-weight="400"><tspan class="TextPosition" x="9678" y="603"><tspan fill="rgb(0,0,0)" stroke="none">Derivations</tspan></tspan></tspan></text>
 <text class="TextShape" transform="translate(480,5576) rotate(-90) translate(-480,-5576)"><tspan class="TextParagraph" font-family="Liberation Sans" font-size="318px" font-weight="400"><tspan class="TextPosition" x="480" y="5576"><tspan fill="rgb(0,0,0)" stroke="none">Querying time in ms</tspan></tspan></tspan></text>
 <text class="TextShape" transform="translate(15563,5765) rotate(-90) translate(-15563,-5765)"><tspan class="TextParagraph" font-family="Liberation Sans" font-size="318px" font-weight="400"><tspan class="TextPosition" x="15563" y="5765"><tspan fill="rgb(0,0,0)" stroke="none">Number of derivations</tspan></tspan></tspan></text>
</svg>