<?xml version="1.0" encoding="UTF-8"?>
<!DOCTYPE svg PUBLIC "-//W3C//DTD SVG 1.1//EN" "http://www.w3.org/Graphics/SVG/1.1/DTD/svg11.dtd">
<svg width="160mm" height="90mm" viewBox="0 0 16000 9000" version="1.1" xmlns="http://www.w3.org/2000/svg" stroke-width="28.222" stroke-linejoin="round" xml:space="preserve">
 <path fill="rgb(255,255,255)" stroke="none" d="M 8000,8999 L 0,8999 0,0 15999,0 15999,8999 8000,8999 Z"/>
 <path fill="none" stroke="rgb(179,179,179)" stroke-linejoin="round" d="M 8588,5396 L 1497,5396 1497,963 15679,963 15679,5396 8588,5396 Z"/>
 <path fill="none" stroke="rgb(179,179,179)" stroke-linejoin="round" d="M 15678,5395 L 1497,5395"/>
 <path fill="none" stroke="rgb(179,179,179)" stroke-linejoin="round" d="M 15678,4761 L 1497,4761"/>
 <path fill="none" stroke="rgb(179,179,179)" stroke-linejoin="round" d="M 15678,4129 L 1497,4129"/>
 <path fill="none" stroke="rgb(179,179,179)" stroke-linejoin="round" d="M 15678,3495 L 1497,3495"/>
 <path fill="none" stroke="rgb(179,179,179)" stroke-linejoin="round" d="M 15678,2862 L 1497,2862"/>
 <path fill="none" stroke="rgb(179,179,179)" stroke-linejoin="round" d="M 15678,2228 L 1497,2228"/>
 <path fill="none" stroke="rgb(179,179,179)" stroke-linejoin="round" d="M 15678,1595 L 1497,1595"/>
 <path fill="none" stroke="rgb(179,179,179)" stroke-linejoin="round" d="M 15678,962 L 1497,962"/>
 <path fill="none" stroke="rgb(179,179,179)" stroke-linejoin="round" d="M 1497,5545 L 1497,5395"/>
 <path fill="none" stroke="rgb(179,179,179)" stroke-linejoin="round" d="M 1497,5545 L 1497,5395"/>
 <path fill="none" stroke="rgb(179,179,179)" stroke-linejoin="round" d="M 2331,5545 L 2331,5395"/>
 <path fill="none" stroke="rgb(179,179,179)" stroke-linejoin="round" d="M 2331,5545 L 2331,5395"/>
 <path fill="none" stroke="rgb(179,179,179)" stroke-linejoin="round" d="M 3165,5545 L 3165,5395"/>
 <path fill="none" stroke="rgb(179,179,179)" stroke-linejoin="round" d="M 3165,5545 L 3165,5395"/>
 <path fill="none" stroke="rgb(179,179,179)" stroke-linejoin="round" d="M 3999,5545 L 3999,5395"/>
 <path fill="none" stroke="rgb(179,179,179)" stroke-linejoin="round" d="M 3999,5545 L 3999,5395"/>
 <path fill="none" stroke="rgb(179,179,179)" stroke-linejoin="round" d="M 4834,5545 L 4834,5395"/>
 <path fill="none" stroke="rgb(179,179,179)" stroke-linejoin="round" d="M 4834,5545 L 4834,5395"/>
 <path fill="none" stroke="rgb(179,179,179)" stroke-linejoin="round" d="M 5668,5545 L 5668,5395"/>
 <path fill="none" stroke="rgb(179,179,179)" stroke-linejoin="round" d="M 5668,5545 L 5668,5395"/>
 <path fill="none" stroke="rgb(179,179,179)" stroke-linejoin="round" d="M 6502,5545 L 6502,5395"/>
 <path fill="none" stroke="rgb(179,179,179)" stroke-linejoin="round" d="M 6502,5545 L 6502,5395"/>
 <path fill="none" stroke="rgb(179,179,179)" stroke-linejoin="round" d="M 7337,5545 L 7337,5395"/>
 <path fill="none" stroke="rgb(179,179,179)" stroke-linejoin="round" d="M 7337,5545 L 7337,5395"/>
 <path fill="none" stroke="rgb(179,179,179)" stroke-linejoin="round" d="M 8170,5545 L 8170,5395"/>
 <path fill="none" stroke="rgb(179,179,179)" stroke-linejoin="round" d="M 8170,5545 L 8170,5395"/>
 <path fill="none" stroke="rgb(179,179,179)" stroke-linejoin="round" d="M 9004,5545 L 9004,5395"/>
 <path fill="none" stroke="rgb(179,179,179)" stroke-linejoin="round" d="M 9004,5545 L 9004,5395"/>
 <path fill="none" stroke="rgb(179,179,179)" stroke-linejoin="round" d="M 9838,5545 L 9838,5395"/>
 <path fill="none" stroke="rgb(179,179,179)" stroke-linejoin="round" d="M 9838,5545 L 9838,5395"/>
 <path fill="none" stroke="rgb(179,179,179)" stroke-linejoin="round" d="M 10673,5545 L 10673,5395"/>
 <path fill="none" stroke="rgb(179,179,179)" stroke-linejoin="round" d="M 10673,5545 L 10673,5395"/>
 <path fill="none" stroke="rgb(179,179,179)" stroke-linejoin="round" d="M 11507,5545 L 11507,5395"/>
 <path fill="none" stroke="rgb(179,179,179)" stroke-linejoin="round" d="M 11507,5545 L 11507,5395"/>
 <path fill="none" stroke="rgb(179,179,179)" stroke-linejoin="round" d="M 12341,5545 L 12341,5395"/>
 <path fill="none" stroke="rgb(179,179,179)" stroke-linejoin="round" d="M 12341,5545 L 12341,5395"/>
 <path fill="none" stroke="rgb(179,179,179)" stroke-linejoin="round" d="M 13176,5545 L 13176,5395"/>
 <path fill="none" stroke="rgb(179,179,179)" stroke-linejoin="round" d="M 13176,5545 L 13176,5395"/>
 <path fill="none" stroke="rgb(179,179,179)" stroke-linejoin="round" d="M 14010,5545 L 14010,5395"/>
 <path fill="none" stroke="rgb(179,179,179)" stroke-linejoin="round" d="M 14010,5545 L 14010,5395"/>
 <path fill="none" stroke="rgb(179,179,179)" stroke-linejoin="round" d="M 14844,5545 L 14844,5395"/>
 <path fill="none" stroke="rgb(179,179,179)" stroke-linejoin="round" d="M 14844,5545 L 14844,5395"/>
 <path fill="none" stroke="rgb(179,179,179)" stroke-linejoin="round" d="M 15678,5545 L 15678,5395"/>
 <path fill="none" stroke="rgb(179,179,179)" stroke-linejoin="round" d="M 15678,5545 L 15678,5395"/>
 <path fill="none" stroke="rgb(179,179,179)" stroke-linejoin="round" d="M 1497,5395 L 15678,5395"/>
 <path fill="none" stroke="rgb(179,179,179)" stroke-linejoin="round" d="M 1347,5395 L 1497,5395"/>
 <path fill="none" stroke="rgb(179,179,179)" stroke-linejoin="round" d="M 1347,5395 L 1497,5395"/>
 <path fill="none" stroke="rgb(179,179,179)" stroke-linejoin="round" d="M 1347,4761 L 1497,4761"/>
 <path fill="none" stroke="rgb(179,179,179)" stroke-linejoin="round" d="M 1347,4761 L 1497,4761"/>
 <path fill="none" stroke="rgb(179,179,179)" stroke-linejoin="round" d="M 1347,4129 L 1497,4129"/>
 <path fill="none" stroke="rgb(179,179,179)" stroke-linejoin="round" d="M 1347,4129 L 1497,4129"/>
 <path fill="none" stroke="rgb(179,179,179)" stroke-linejoin="round" d="M 1347,3495 L 1497,3495"/>
 <path fill="none" stroke="rgb(179,179,179)" stroke-linejoin="round" d="M 1347,3495 L 1497,3495"/>
 <path fill="none" stroke="rgb(179,179,179)" stroke-linejoin="round" d="M 1347,2862 L 1497,2862"/>
 <path fill="none" stroke="rgb(179,179,179)" stroke-linejoin="round" d="M 1347,2862 L 1497,2862"/>
 <path fill="none" stroke="rgb(179,179,179)" stroke-linejoin="round" d="M 1347,2228 L 1497,2228"/>
 <path fill="none" stroke="rgb(179,179,179)" stroke-linejoin="round" d="M 1347,2228 L 1497,2228"/>
 <path fill="none" stroke="rgb(179,179,179)" stroke-linejoin="round" d="M 1347,1595 L 1497,1595"/>
 <path fill="none" stroke="rgb(179,179,179)" stroke-linejoin="round" d="M 1347,1595 L 1497,1595"/>
 <path fill="none" stroke="rgb(179,179,179)" stroke-linejoin="round" d="M 1347,962 L 1497,962"/>
 <path fill="none" stroke="rgb(179,179,179)" stroke-linejoin="round" d="M 1347,962 L 1497,962"/>
 <path fill="none" stroke="rgb(179,179,179)" stroke-linejoin="round" d="M 1497,5395 L 1497,962"/>
 <path fill="rgb(0,69,134)" stroke="none" d="M 15053,5395 L 15470,5395 15470,5394 15053,5394 15053,5395 Z"/>
 <path fill="rgb(0,69,134)" stroke="none" d="M 14218,5395 L 14636,5395 14636,5314 14218,5314 14218,5395 Z"/>
 <path fill="rgb(0,69,134)" stroke="none" d="M 13384,5395 L 13801,5395 13801,3856 13384,3856 13384,5395 Z"/>
 <path fill="rgb(0,69,134)" stroke="none" d="M 12550,5395 L 12967,5395 12967,5384 12550,5384 12550,5395 Z"/>
 <path fill="rgb(0,69,134)" stroke="none" d="M 11716,5395 L 12133,5395 12133,5373 11716,5373 11716,5395 Z"/>
 <path fill="rgb(0,69,134)" stroke="none" d="M 10881,5395 L 11298,5395 11298,5321 10881,5321 10881,5395 Z"/>
 <path fill="rgb(0,69,134)" stroke="none" d="M 10047,5395 L 10464,5395 10464,5286 10047,5286 10047,5395 Z"/>
 <path fill="rgb(0,69,134)" stroke="none" d="M 9213,5395 L 9630,5395 9630,3402 9213,3402 9213,5395 Z"/>
 <path fill="rgb(0,69,134)" stroke="none" d="M 8378,5395 L 8796,5395 8796,5394 8378,5394 8378,5395 Z"/>
 <path fill="rgb(0,69,134)" stroke="none" d="M 7545,5395 L 7962,5395 7962,5350 7545,5350 7545,5395 Z"/>
 <path fill="rgb(0,69,134)" stroke="none" d="M 6711,5395 L 7128,5395 7128,5355 6711,5355 6711,5395 Z"/>
 <path fill="rgb(0,69,134)" stroke="none" d="M 5877,5395 L 6294,5395 6294,5256 5877,5256 5877,5395 Z"/>
 <path fill="rgb(0,69,134)" stroke="none" d="M 5042,5395 L 5459,5395 5459,5012 5042,5012 5042,5395 Z"/>
 <path fill="rgb(0,69,134)" stroke="none" d="M 4208,5395 L 4625,5395 4625,5360 4208,5360 4208,5395 Z"/>
 <path fill="rgb(0,69,134)" stroke="none" d="M 3374,5395 L 3791,5395 3791,5386 3374,5386 3374,5395 Z"/>
 <path fill="rgb(0,69,134)" stroke="none" d="M 2539,5395 L 2957,5395 2957,5165 2539,5165 2539,5395 Z"/>
 <path fill="rgb(0,69,134)" stroke="none" d="M 1705,5395 L 2122,5395 2122,5070 1705,5070 1705,5395 Z"/>
 <path fill="rgb(255,66,14)" stroke="none" d="M 15053,5394 L 15470,5394 15470,5393 15053,5393 15053,5394 Z"/>
 <path fill="rgb(255,66,14)" stroke="none" d="M 14218,5314 L 14636,5314 14636,5260 14218,5260 14218,5314 Z"/>
 <path fill="rgb(255,66,14)" stroke="none" d="M 13384,3856 L 13801,3856 13801,2336 13384,2336 13384,3856 Z"/>
 <path fill="rgb(255,66,14)" stroke="none" d="M 12550,5384 L 12967,5384 12967,5376 12550,5376 12550,5384 Z"/>
 <path fill="rgb(255,66,14)" stroke="none" d="M 11716,5373 L 12133,5373 12133,5356 11716,5356 11716,5373 Z"/>
 <path fill="rgb(255,66,14)" stroke="none" d="M 10881,5321 L 11298,5321 11298,5262 10881,5262 10881,5321 Z"/>
 <path fill="rgb(255,66,14)" stroke="none" d="M 10047,5286 L 10464,5286 10464,5197 10047,5197 10047,5286 Z"/>
 <path fill="rgb(255,66,14)" stroke="none" d="M 9213,3402 L 9630,3402 9630,1745 9213,1745 9213,3402 Z"/>
 <path fill="rgb(255,66,14)" stroke="none" d="M 8378,5394 L 8796,5394 8796,5394 8378,5394 Z"/>
 <path fill="rgb(255,66,14)" stroke="none" d="M 7545,5350 L 7962,5350 7962,4791 7545,4791 7545,5350 Z"/>
 <path fill="rgb(255,66,14)" stroke="none" d="M 6711,5355 L 7128,5355 7128,5179 6711,5179 6711,5355 Z"/>
 <path fill="rgb(255,66,14)" stroke="none" d="M 5877,5256 L 6294,5256 6294,4940 5877,4940 5877,5256 Z"/>
 <path fill="rgb(255,66,14)" stroke="none" d="M 5042,5012 L 5459,5012 5459,4629 5042,4629 5042,5012 Z"/>
 <text class="TextShape" transform="translate(1305,6562) rotate(-44.9) translate(-1305,-6562)"><tspan class="TextParagraph" font-family="Liberation Sans" font-size="353px" font-weight="400"><tspan class="TextPosition" x="1305" y="6562"><tspan fill="rgb(0,0,0)" stroke="none">Scope</tspan></tspan></tspan></text>
 <text class="TextShape" transform="translate(1371,7330) rotate(-44.9) translate(-1371,-7330)"><tspan class="TextParagraph" font-family="Liberation Sans" font-size="353px" font-weight="400"><tspan class="TextPosition" x="1371" y="7330"><tspan fill="rgb(0,0,0)" stroke="none">Conflicts with</tspan></tspan></tspan></text>
 <text class="TextShape" transform="translate(1607,7928) rotate(-44.9) translate(-1607,-7928)"><tspan class="TextParagraph" font-family="Liberation Sans" font-size="353px" font-weight="400"><tspan class="TextPosition" x="1607" y="7928"><tspan fill="rgb(0,0,0)" stroke="none">Allowed entity type</tspan></tspan></tspan></text>
 <text class="TextShape" transform="translate(3658,6712) rotate(-44.9) translate(-3658,-6712)"><tspan class="TextParagraph" font-family="Liberation Sans" font-size="353px" font-weight="400"><tspan class="TextPosition" x="3658" y="6712"><tspan fill="rgb(0,0,0)" stroke="none">None of</tspan></tspan></tspan></text>
 <text class="TextShape" transform="translate(3725,7480) rotate(-44.9) translate(-3725,-7480)"><tspan class="TextParagraph" font-family="Liberation Sans" font-size="353px" font-weight="400"><tspan class="TextPosition" x="3725" y="7480"><tspan fill="rgb(0,0,0)" stroke="none">Distinct values</tspan></tspan></tspan></text>
 <text class="TextShape" transform="translate(4727,7311) rotate(-44.9) translate(-4727,-7311)"><tspan class="TextParagraph" font-family="Liberation Sans" font-size="353px" font-weight="400"><tspan class="TextPosition" x="4727" y="7311"><tspan fill="rgb(0,0,0)" stroke="none">Allowed units</tspan></tspan></tspan></text>
 <text class="TextShape" transform="translate(5112,7760) rotate(-44.9) translate(-5112,-7760)"><tspan class="TextParagraph" font-family="Liberation Sans" font-size="353px" font-weight="400"><tspan class="TextPosition" x="5112" y="7760"><tspan fill="rgb(0,0,0)" stroke="none">Allowed qualifiers</tspan></tspan></tspan></text>
 <text class="TextShape" transform="translate(7107,6600) rotate(-44.9) translate(-7107,-6600)"><tspan class="TextParagraph" font-family="Liberation Sans" font-size="353px" font-weight="400"><tspan class="TextPosition" x="7107" y="6600"><tspan fill="rgb(0,0,0)" stroke="none">One-of</tspan></tspan></tspan></text>
 <text class="TextShape" transform="translate(6371,8171) rotate(-44.9) translate(-6371,-8171)"><tspan class="TextParagraph" font-family="Liberation Sans" font-size="353px" font-weight="400"><tspan class="TextPosition" x="6371" y="8171"><tspan fill="rgb(0,0,0)" stroke="none">One-of qualifier value</tspan></tspan></tspan></text>
 <text class="TextShape" transform="translate(6923,8452) rotate(-44.9) translate(-6923,-8452)"><tspan class="TextParagraph" font-family="Liberation Sans" font-size="353px" font-weight="400"><tspan class="TextPosition" x="6923" y="8452"><tspan fill="rgb(0,0,0)" stroke="none">Item requires statement</tspan></tspan></tspan></text>
 <text class="TextShape" transform="translate(7646,8564) rotate(-44.9) translate(-7646,-8564)"><tspan class="TextParagraph" font-family="Liberation Sans" font-size="353px" font-weight="400"><tspan class="TextPosition" x="7646" y="8564"><tspan fill="rgb(0,0,0)" stroke="none">Value requires statement</tspan></tspan></tspan></text>
 <text class="TextShape" transform="translate(10370,6675) rotate(-44.9) translate(-10370,-6675)"><tspan class="TextParagraph" font-family="Liberation Sans" font-size="353px" font-weight="400"><tspan class="TextPosition" x="10370" y="6675"><tspan fill="rgb(0,0,0)" stroke="none">Inverse</tspan></tspan></tspan></text>
 <text class="TextShape" transform="translate(10829,7050) rotate(-44.9) translate(-10829,-7050)"><tspan class="TextParagraph" font-family="Liberation Sans" font-size="353px" font-weight="400"><tspan class="TextPosition" x="10829" y="7050"><tspan fill="rgb(0,0,0)" stroke="none">Symmetric</tspan></tspan></tspan></text>
 <text class="TextShape" transform="translate(11662,7050) rotate(-44.9) translate(-11662,-7050)"><tspan class="TextParagraph" font-family="Liberation Sans" font-size="353px" font-weight="400"><tspan class="TextPosition" x="11662" y="7050"><tspan fill="rgb(0,0,0)" stroke="none">Multi-value</tspan></tspan></tspan></text>
 <text class="TextShape" transform="translate(12347,7200) rotate(-44.9) translate(-12347,-7200)"><tspan class="TextParagraph" font-family="Liberation Sans" font-size="353px" font-weight="400"><tspan class="TextPosition" x="12347" y="7200"><tspan fill="rgb(0,0,0)" stroke="none">Single value</tspan></tspan></tspan></text>
 <text class="TextShape" transform="translate(12452,7928) rotate(-44.9) translate(-12452,-7928)"><tspan class="TextParagraph" font-family="Liberation Sans" font-size="353px" font-weight="400"><tspan class="TextPosition" x="12452" y="7928"><tspan fill="rgb(0,0,0)" stroke="none">Mandatory qualifier</tspan></tspan></tspan></text>
 <text class="TextShape" transform="translate(13473,7742) rotate(-44.9) translate(-13473,-7742)"><tspan class="TextParagraph" font-family="Liberation Sans" font-size="353px" font-weight="400"><tspan class="TextPosition" x="13473" y="7742"><tspan fill="rgb(0,0,0)" stroke="none">Single best value</tspan></tspan></tspan></text>
 <text class="TextShape"><tspan class="TextParagraph" font-family="Liberation Sans" font-size="353px" font-weight="400"><tspan class="TextPosition" x="1062" y="5516"><tspan fill="rgb(0,0,0)" stroke="none">0</tspan></tspan></tspan></text>
 <text class="TextShape"><tspan class="TextParagraph" font-family="Liberation Sans" font-size="353px" font-weight="400"><tspan class="TextPosition" x="506" y="4882"><tspan fill="rgb(0,0,0)" stroke="none">5000</tspan></tspan></tspan></text>
 <text class="TextShape"><tspan class="TextParagraph" font-family="Liberation Sans" font-size="353px" font-weight="400"><tspan class="TextPosition" x="321" y="4249"><tspan fill="rgb(0,0,0)" stroke="none">10000</tspan></tspan></tspan></text>
 <text class="TextShape"><tspan class="TextParagraph" font-family="Liberation Sans" font-size="353px" font-weight="400"><tspan class="TextPosition" x="321" y="3615"><tspan fill="rgb(0,0,0)" stroke="none">15000</tspan></tspan></tspan></text>
 <text class="TextShape"><tspan class="TextParagraph" font-family="Liberation Sans" font-size="353px" font-weight="400"><tspan class="TextPosition" x="321" y="2982"><tspan fill="rgb(0,0,0)" stroke="none">20000</tspan></tspan></tspan></text>
 <text class="TextShape"><tspan class="TextParagraph" font-family="Liberation Sans" font-size="353px" font-weight="400"><tspan class="TextPosition" x="321" y="2348"><tspan fill="rgb(0,0,0)" stroke="none">25000</tspan></tspan></tspan></text>
 <text class="TextShape"><tspan class="TextParagraph" font-family="Liberation Sans" font-size="353px" font-weight="400"><tspan class="TextPosition" x="321" y="1715"><tspan fill="rgb(0,0,0)" stroke="none">30000</tspan></tspan></tspan></text>
 <text class="TextShape"><tspan class="TextParagraph" font-family="Liberation Sans" font-size="353px" font-weight="400"><tspan class="TextPosition" x="321" y="1082"><tspan fill="rgb(0,0,0)" stroke="none">35000</tspan></tspan></tspan></text>
 <path fill="rgb(0,69,134)" stroke="none" d="M 6181,589 L 6076,589 6076,378 6287,378 6287,589 6181,589 Z"/>
 <path fill="rgb(255,66,14)" stroke="none" d="M 7599,589 L 7494,589 7494,378 7705,378 7705,589 7599,589 Z"/>
 <text class="TextShape"><tspan class="TextParagraph" font-family="Liberation Sans" font-size="353px" font-weight="400"><tspan class="TextPosition" x="6387" y="603"><tspan fill="rgb(0,0,0)" stroke="none">Rules</tspan></tspan></tspan></text>
 <text class="TextShape"><tspan class="TextParagraph" font-family="Liberation Sans" font-size="353px" font-weight="400"><tspan class="TextPosition" x="7805" y="603"><tspan fill="rgb(0,0,0)" stroke="none">Demand rules</tspan></tspan></tspan></text>
</svg>