<?xml version="1.0" encoding="UTF-8"?>
<!DOCTYPE svg PUBLIC "-//W3C//DTD SVG 1.1//EN" "http://www.w3.org/Graphics/SVG/1.1/DTD/svg11.dtd">
<svg width="160mm" height="90mm" viewBox="0 0 16000 9000" version="1.1" xmlns="http://www.w3.org/2000/svg" stroke-width="28.222" stroke-linejoin="round" xml:space="preserve">
 <path fill="rgb(255,255,255)" stroke="none" d="M 8000,8998 L 0,8998 0,-1 15999,-1 15999,8998 8000,8998 Z"/>
 <path fill="none" stroke="rgb(179,179,179)" stroke-linejoin="round" d="M 8530,8172 L 2799,8172 2799,1162 14261,1162 14261,8172 8530,8172 Z"/>
 <path fill="none" stroke="rgb(179,179,179)" stroke-linejoin="round" d="M 14261,8170 L 2799,8170"/>
 <path fill="none" stroke="rgb(179,179,179)" stroke-linejoin="round" d="M 14261,6768 L 2799,6768"/>
 <path fill="none" stroke="rgb(179,179,179)" stroke-linejoin="round" d="M 14261,5366 L 2799,5366"/>
 <path fill="none" stroke="rgb(179,179,179)" stroke-linejoin="round" d="M 14261,3965 L 2799,3965"/>
 <path fill="none" stroke="rgb(179,179,179)" stroke-linejoin="round" d="M 14261,2563 L 2799,2563"/>
 <path fill="none" stroke="rgb(179,179,179)" stroke-linejoin="round" d="M 14261,1161 L 2799,1161"/>
 <path fill="none" stroke="rgb(179,179,179)" stroke-linejoin="round" d="M 2799,8321 L 2799,8171"/>
 <path fill="none" stroke="rgb(179,179,179)" stroke-linejoin="round" d="M 2799,8321 L 2799,8171"/>
 <path fill="none" stroke="rgb(179,179,179)" stroke-linejoin="round" d="M 6620,8321 L 6620,8171"/>
 <path fill="none" stroke="rgb(179,179,179)" stroke-linejoin="round" d="M 6620,8321 L 6620,8171"/>
 <path fill="none" stroke="rgb(179,179,179)" stroke-linejoin="round" d="M 10440,8321 L 10440,8171"/>
 <path fill="none" stroke="rgb(179,179,179)" stroke-linejoin="round" d="M 10440,8321 L 10440,8171"/>
 <path fill="none" stroke="rgb(179,179,179)" stroke-linejoin="round" d="M 14261,8321 L 14261,8171"/>
 <path fill="none" stroke="rgb(179,179,179)" stroke-linejoin="round" d="M 14261,8321 L 14261,8171"/>
 <path fill="none" stroke="rgb(179,179,179)" stroke-linejoin="round" d="M 2799,8171 L 14261,8171"/>
 <path fill="none" stroke="rgb(179,179,179)" stroke-linejoin="round" d="M 2649,8170 L 2799,8170"/>
 <path fill="none" stroke="rgb(179,179,179)" stroke-linejoin="round" d="M 2649,8170 L 2799,8170"/>
 <path fill="none" stroke="rgb(179,179,179)" stroke-linejoin="round" d="M 2649,6768 L 2799,6768"/>
 <path fill="none" stroke="rgb(179,179,179)" stroke-linejoin="round" d="M 2649,6768 L 2799,6768"/>
 <path fill="none" stroke="rgb(179,179,179)" stroke-linejoin="round" d="M 2649,5366 L 2799,5366"/>
 <path fill="none" stroke="rgb(179,179,179)" stroke-linejoin="round" d="M 2649,5366 L 2799,5366"/>
 <path fill="none" stroke="rgb(179,179,179)" stroke-linejoin="round" d="M 2649,3965 L 2799,3965"/>
 <path fill="none" stroke="rgb(179,179,179)" stroke-linejoin="round" d="M 2649,3965 L 2799,3965"/>
 <path fill="none" stroke="rgb(179,179,179)" stroke-linejoin="round" d="M 2649,2563 L 2799,2563"/>
 <path fill="none" stroke="rgb(179,179,179)" stroke-linejoin="round" d="M 2649,2563 L 2799,2563"/>
 <path fill="none" stroke="rgb(179,179,179)" stroke-linejoin="round" d="M 2649,1161 L 2799,1161"/>
 <path fill="none" stroke="rgb(179,179,179)" stroke-linejoin="round" d="M 2649,1161 L 2799,1161"/>
 <path fill="none" stroke="rgb(179,179,179)" stroke-linejoin="round" d="M 2799,8171 L 2799,1161"/>
 <path fill="none" stroke="rgb(0,132,209)" stroke-width="80" stroke-linejoin="round" d="M 2799,7019 L 6620,5041 10440,3064 14261,1282"/>
 <path fill="rgb(0,132,209)" stroke="none" d="M 2674,6894 L 2674,7144 2924,7144 2924,6894 2674,6894 Z"/>
 <path fill="none" stroke="rgb(0,132,209)" stroke-linejoin="round" d="M 2674,6894 L 2674,7144 2924,7144 2924,6894 2674,6894 Z"/>
 <path fill="rgb(0,132,209)" stroke="none" d="M 6495,4916 L 6495,5166 6745,5166 6745,4916 6495,4916 Z"/>
 <path fill="none" stroke="rgb(0,132,209)" stroke-linejoin="round" d="M 6495,4916 L 6495,5166 6745,5166 6745,4916 6495,4916 Z"/>
 <path fill="rgb(0,132,209)" stroke="none" d="M 10315,2939 L 10315,3189 10565,3189 10565,2939 10315,2939 Z"/>
 <path fill="none" stroke="rgb(0,132,209)" stroke-linejoin="round" d="M 10315,2939 L 10315,3189 10565,3189 10565,2939 10315,2939 Z"/>
 <path fill="rgb(0,132,209)" stroke="none" d="M 14136,1157 L 14136,1407 14386,1407 14386,1157 14136,1157 Z"/>
 <path fill="none" stroke="rgb(0,132,209)" stroke-linejoin="round" d="M 14136,1157 L 14136,1407 14386,1407 14386,1157 14136,1157 Z"/>
 <path fill="none" stroke="rgb(255,66,14)" stroke-width="80" stroke-linejoin="round" d="M 2799,6194 L 6620,4317 10440,2657"/>
 <path fill="rgb(255,66,14)" stroke="none" d="M 2674,6194 L 2799,6319 2924,6194 2799,6069 2674,6194 Z"/>
 <path fill="none" stroke="rgb(255,66,14)" stroke-linejoin="round" d="M 2674,6194 L 2799,6319 2924,6194 2799,6069 2674,6194 Z"/>
 <path fill="rgb(255,66,14)" stroke="none" d="M 6495,4317 L 6620,4442 6745,4317 6620,4192 6495,4317 Z"/>
 <path fill="none" stroke="rgb(255,66,14)" stroke-linejoin="round" d="M 6495,4317 L 6620,4442 6745,4317 6620,4192 6495,4317 Z"/>
 <path fill="rgb(255,66,14)" stroke="none" d="M 10315,2657 L 10440,2782 10565,2657 10440,2532 10315,2657 Z"/>
 <path fill="none" stroke="rgb(255,66,14)" stroke-linejoin="round" d="M 10315,2657 L 10440,2782 10565,2657 10440,2532 10315,2657 Z"/>
 <path fill="none" stroke="rgb(255,211,32)" stroke-width="80" stroke-linejoin="round" d="M 2799,6669 L 6620,4317 10440,2308"/>
 <path fill="rgb(255,211,32)" stroke="none" d="M 2674,6544 L 2799,6794 2924,6544 2674,6544 Z"/>
 <path fill="none" stroke="rgb(255,211,32)" stroke-linejoin="round" d="M 2674,6544 L 2799,6794 2924,6544 2674,6544 Z"/>
 <path fill="rgb(255,211,32)" stroke="none" d="M 6495,4192 L 6620,4442 6745,4192 6495,4192 Z"/>
 <path fill="none" stroke="rgb(255,211,32)" stroke-linejoin="round" d="M 6495,4192 L 6620,4442 6745,4192 6495,4192 Z"/>
 <path fill="rgb(255,211,32)" stroke="none" d="M 10315,2183 L 10440,2433 10565,2183 10315,2183 Z"/>
 <path fill="none" stroke="rgb(255,211,32)" stroke-linejoin="round" d="M 10315,2183 L 10440,2433 10565,2183 10315,2183 Z"/>
 <text class="TextShape"><tspan class="TextParagraph" font-family="Liberation Sans" font-size="353px" font-weight="400"><tspan class="TextPosition" x="2375" y="8739"><tspan fill="rgb(0,0,0)" stroke="none">1,000</tspan></tspan></tspan></text>
 <text class="TextShape"><tspan class="TextParagraph" font-family="Liberation Sans" font-size="353px" font-weight="400"><tspan class="TextPosition" x="6104" y="8739"><tspan fill="rgb(0,0,0)" stroke="none">10,000</tspan></tspan></tspan></text>
 <text class="TextShape"><tspan class="TextParagraph" font-family="Liberation Sans" font-size="353px" font-weight="400"><tspan class="TextPosition" x="9832" y="8739"><tspan fill="rgb(0,0,0)" stroke="none">100,000</tspan></tspan></tspan></text>
 <text class="TextShape"><tspan class="TextParagraph" font-family="Liberation Sans" font-size="353px" font-weight="400"><tspan class="TextPosition" x="13508" y="8739"><tspan fill="rgb(0,0,0)" stroke="none">1,000,000</tspan></tspan></tspan></text>
 <text class="TextShape"><tspan class="TextParagraph" font-family="Liberation Sans" font-size="353px" font-weight="400"><tspan class="TextPosition" x="1702" y="8291"><tspan fill="rgb(0,0,0)" stroke="none">1,000</tspan></tspan></tspan></text>
 <text class="TextShape"><tspan class="TextParagraph" font-family="Liberation Sans" font-size="353px" font-weight="400"><tspan class="TextPosition" x="1517" y="6889"><tspan fill="rgb(0,0,0)" stroke="none">10,000</tspan></tspan></tspan></text>
 <text class="TextShape"><tspan class="TextParagraph" font-family="Liberation Sans" font-size="353px" font-weight="400"><tspan class="TextPosition" x="1332" y="5487"><tspan fill="rgb(0,0,0)" stroke="none">100,000</tspan></tspan></tspan></text>
 <text class="TextShape"><tspan class="TextParagraph" font-family="Liberation Sans" font-size="353px" font-weight="400"><tspan class="TextPosition" x="1041" y="4085"><tspan fill="rgb(0,0,0)" stroke="none">1,000,000</tspan></tspan></tspan></text>
 <text class="TextShape"><tspan class="TextParagraph" font-family="Liberation Sans" font-size="353px" font-weight="400"><tspan class="TextPosition" x="856" y="2683"><tspan fill="rgb(0,0,0)" stroke="none">10,000,000</tspan></tspan></tspan></text>
 <text class="TextShape"><tspan class="TextParagraph" font-family="Liberation Sans" font-size="353px" font-weight="400"><tspan class="TextPosition" x="670" y="1281"><tspan fill="rgb(0,0,0)" stroke="none">100,000,000</tspan></tspan></tspan></text>
 <path fill="none" stroke="rgb(0,132,209)" stroke-width="80" stroke-linejoin="round" d="M 2512,482 L 3312,482"/>
 <path fill="rgb(0,132,209)" stroke="none" d="M 2806,377 L 2806,588 3017,588 3017,377 2806,377 Z"/>
 <path fill="none" stroke="rgb(0,132,209)" stroke-linejoin="round" d="M 2806,377 L 2806,588 3017,588 3017,377 2806,377 Z"/>
 <path fill="none" stroke="rgb(255,66,14)" stroke-width="80" stroke-linejoin="round" d="M 5921,482 L 6721,482"/>
 <path fill="rgb(255,66,14)" stroke="none" d="M 6215,482 L 6321,588 6426,482 6321,377 6215,482 Z"/>
 <path fill="none" stroke="rgb(255,66,14)" stroke-linejoin="round" d="M 6215,482 L 6321,588 6426,482 6321,377 6215,482 Z"/>
 <path fill="none" stroke="rgb(255,211,32)" stroke-width="80" stroke-linejoin="round" d="M 10705,482 L 11505,482"/>
 <path fill="rgb(255,211,32)" stroke="none" d="M 10999,377 L 11105,588 11210,377 10999,377 Z"/>
 <path fill="none" stroke="rgb(255,211,32)" stroke-linejoin="round" d="M 10999,377 L 11105,588 11210,377 10999,377 Z"/>
 <text class="TextShape"><tspan class="TextParagraph" font-family="Liberation Sans" font-size="353px" font-weight="400"><tspan class="TextPosition" x="3412" y="602"><tspan fill="rgb(0,0,0)" stroke="none">Distinct values</tspan></tspan></tspan></text>
 <text class="TextShape"><tspan class="TextParagraph" font-family="Liberation Sans" font-size="353px" font-weight="400"><tspan class="TextPosition" x="6821" y="602"><tspan fill="rgb(0,0,0)" stroke="none">Item requires statement</tspan></tspan></tspan></text>
 <text class="TextShape"><tspan class="TextParagraph" font-family="Liberation Sans" font-size="353px" font-weight="400"><tspan class="TextPosition" x="11605" y="602"><tspan fill="rgb(0,0,0)" stroke="none">Single value</tspan></tspan></tspan></text>
 <text class="TextShape" transform="translate(837,7019) rotate(-90) translate(-837,-7019)"><tspan class="TextParagraph" font-family="Liberation Sans" font-size="318px" font-weight="400"><tspan class="TextPosition" x="837" y="7019"><tspan fill="rgb(0,0,0)" stroke="none">Runtime materialization in ms</tspan></tspan></tspan></text>
</svg>