<?xml version="1.0" encoding="UTF-8"?>
<!DOCTYPE svg PUBLIC "-//W3C//DTD SVG 1.1//EN" "http://www.w3.org/Graphics/SVG/1.1/DTD/svg11.dtd">
<svg width="160mm" height="90mm" viewBox="0 0 16000 9000" version="1.1" xmlns="http://www.w3.org/2000/svg" stroke-width="28.222" stroke-linejoin="round" xml:space="preserve">
 <path fill="rgb(255,255,255)" stroke="none" d="M 8000,8999 L 0,8999 0,20 15999,20 15999,8999 8000,8999 Z"/>
 <path fill="none" stroke="rgb(179,179,179)" stroke-linejoin="round" d="M 9492,5404 L 3383,5404 3383,200 15601,200 15601,5404 9492,5404 Z"/>
 <path fill="none" stroke="rgb(179,179,179)" stroke-linejoin="round" d="M 15601,5403 L 3383,5403"/>
 <path fill="none" stroke="rgb(179,179,179)" stroke-linejoin="round" d="M 15601,4535 L 3383,4535"/>
 <path fill="none" stroke="rgb(179,179,179)" stroke-linejoin="round" d="M 15601,3667 L 3383,3667"/>
 <path fill="none" stroke="rgb(179,179,179)" stroke-linejoin="round" d="M 15601,2800 L 3383,2800"/>
 <path fill="none" stroke="rgb(179,179,179)" stroke-linejoin="round" d="M 15601,1932 L 3383,1932"/>
 <path fill="none" stroke="rgb(179,179,179)" stroke-linejoin="round" d="M 15601,1066 L 3383,1066"/>
 <path fill="none" stroke="rgb(179,179,179)" stroke-linejoin="round" d="M 15601,198 L 3383,198"/>
 <path fill="none" stroke="rgb(179,179,179)" stroke-linejoin="round" d="M 3383,5553 L 3383,5403"/>
 <path fill="none" stroke="rgb(179,179,179)" stroke-linejoin="round" d="M 3383,5553 L 3383,5403"/>
 <path fill="none" stroke="rgb(179,179,179)" stroke-linejoin="round" d="M 4101,5553 L 4101,5403"/>
 <path fill="none" stroke="rgb(179,179,179)" stroke-linejoin="round" d="M 4101,5553 L 4101,5403"/>
 <path fill="none" stroke="rgb(179,179,179)" stroke-linejoin="round" d="M 4820,5553 L 4820,5403"/>
 <path fill="none" stroke="rgb(179,179,179)" stroke-linejoin="round" d="M 4820,5553 L 4820,5403"/>
 <path fill="none" stroke="rgb(179,179,179)" stroke-linejoin="round" d="M 5539,5553 L 5539,5403"/>
 <path fill="none" stroke="rgb(179,179,179)" stroke-linejoin="round" d="M 5539,5553 L 5539,5403"/>
 <path fill="none" stroke="rgb(179,179,179)" stroke-linejoin="round" d="M 6258,5553 L 6258,5403"/>
 <path fill="none" stroke="rgb(179,179,179)" stroke-linejoin="round" d="M 6258,5553 L 6258,5403"/>
 <path fill="none" stroke="rgb(179,179,179)" stroke-linejoin="round" d="M 6976,5553 L 6976,5403"/>
 <path fill="none" stroke="rgb(179,179,179)" stroke-linejoin="round" d="M 6976,5553 L 6976,5403"/>
 <path fill="none" stroke="rgb(179,179,179)" stroke-linejoin="round" d="M 7695,5553 L 7695,5403"/>
 <path fill="none" stroke="rgb(179,179,179)" stroke-linejoin="round" d="M 7695,5553 L 7695,5403"/>
 <path fill="none" stroke="rgb(179,179,179)" stroke-linejoin="round" d="M 8413,5553 L 8413,5403"/>
 <path fill="none" stroke="rgb(179,179,179)" stroke-linejoin="round" d="M 8413,5553 L 8413,5403"/>
 <path fill="none" stroke="rgb(179,179,179)" stroke-linejoin="round" d="M 9132,5553 L 9132,5403"/>
 <path fill="none" stroke="rgb(179,179,179)" stroke-linejoin="round" d="M 9132,5553 L 9132,5403"/>
 <path fill="none" stroke="rgb(179,179,179)" stroke-linejoin="round" d="M 9850,5553 L 9850,5403"/>
 <path fill="none" stroke="rgb(179,179,179)" stroke-linejoin="round" d="M 9850,5553 L 9850,5403"/>
 <path fill="none" stroke="rgb(179,179,179)" stroke-linejoin="round" d="M 10569,5553 L 10569,5403"/>
 <path fill="none" stroke="rgb(179,179,179)" stroke-linejoin="round" d="M 10569,5553 L 10569,5403"/>
 <path fill="none" stroke="rgb(179,179,179)" stroke-linejoin="round" d="M 11288,5553 L 11288,5403"/>
 <path fill="none" stroke="rgb(179,179,179)" stroke-linejoin="round" d="M 11288,5553 L 11288,5403"/>
 <path fill="none" stroke="rgb(179,179,179)" stroke-linejoin="round" d="M 12007,5553 L 12007,5403"/>
 <path fill="none" stroke="rgb(179,179,179)" stroke-linejoin="round" d="M 12007,5553 L 12007,5403"/>
 <path fill="none" stroke="rgb(179,179,179)" stroke-linejoin="round" d="M 12725,5553 L 12725,5403"/>
 <path fill="none" stroke="rgb(179,179,179)" stroke-linejoin="round" d="M 12725,5553 L 12725,5403"/>
 <path fill="none" stroke="rgb(179,179,179)" stroke-linejoin="round" d="M 13444,5553 L 13444,5403"/>
 <path fill="none" stroke="rgb(179,179,179)" stroke-linejoin="round" d="M 13444,5553 L 13444,5403"/>
 <path fill="none" stroke="rgb(179,179,179)" stroke-linejoin="round" d="M 14163,5553 L 14163,5403"/>
 <path fill="none" stroke="rgb(179,179,179)" stroke-linejoin="round" d="M 14163,5553 L 14163,5403"/>
 <path fill="none" stroke="rgb(179,179,179)" stroke-linejoin="round" d="M 14882,5553 L 14882,5403"/>
 <path fill="none" stroke="rgb(179,179,179)" stroke-linejoin="round" d="M 14882,5553 L 14882,5403"/>
 <path fill="none" stroke="rgb(179,179,179)" stroke-linejoin="round" d="M 15601,5553 L 15601,5403"/>
 <path fill="none" stroke="rgb(179,179,179)" stroke-linejoin="round" d="M 15601,5553 L 15601,5403"/>
 <path fill="none" stroke="rgb(179,179,179)" stroke-linejoin="round" d="M 3383,5403 L 15601,5403"/>
 <path fill="none" stroke="rgb(179,179,179)" stroke-linejoin="round" d="M 3233,5403 L 3383,5403"/>
 <path fill="none" stroke="rgb(179,179,179)" stroke-linejoin="round" d="M 3233,5403 L 3383,5403"/>
 <path fill="none" stroke="rgb(179,179,179)" stroke-linejoin="round" d="M 3233,4535 L 3383,4535"/>
 <path fill="none" stroke="rgb(179,179,179)" stroke-linejoin="round" d="M 3233,4535 L 3383,4535"/>
 <path fill="none" stroke="rgb(179,179,179)" stroke-linejoin="round" d="M 3233,3668 L 3383,3668"/>
 <path fill="none" stroke="rgb(179,179,179)" stroke-linejoin="round" d="M 3233,3668 L 3383,3668"/>
 <path fill="none" stroke="rgb(179,179,179)" stroke-linejoin="round" d="M 3233,2800 L 3383,2800"/>
 <path fill="none" stroke="rgb(179,179,179)" stroke-linejoin="round" d="M 3233,2800 L 3383,2800"/>
 <path fill="none" stroke="rgb(179,179,179)" stroke-linejoin="round" d="M 3233,1932 L 3383,1932"/>
 <path fill="none" stroke="rgb(179,179,179)" stroke-linejoin="round" d="M 3233,1932 L 3383,1932"/>
 <path fill="none" stroke="rgb(179,179,179)" stroke-linejoin="round" d="M 3233,1066 L 3383,1066"/>
 <path fill="none" stroke="rgb(179,179,179)" stroke-linejoin="round" d="M 3233,1066 L 3383,1066"/>
 <path fill="none" stroke="rgb(179,179,179)" stroke-linejoin="round" d="M 3233,198 L 3383,198"/>
 <path fill="none" stroke="rgb(179,179,179)" stroke-linejoin="round" d="M 3233,198 L 3383,198"/>
 <path fill="none" stroke="rgb(179,179,179)" stroke-linejoin="round" d="M 3383,5403 L 3383,198"/>
 <path fill="rgb(0,132,209)" stroke="none" d="M 15061,5403 L 15421,5403 15421,4678 15061,4678 15061,5403 Z"/>
 <path fill="rgb(0,132,209)" stroke="none" d="M 14343,5403 L 14702,5403 14702,4129 14343,4129 14343,5403 Z"/>
 <path fill="rgb(0,132,209)" stroke="none" d="M 13624,5403 L 13983,5403 13983,908 13624,908 13624,5403 Z"/>
 <path fill="none" stroke="rgb(0,69,134)" stroke-width="100" stroke-linejoin="round" d="M 13624,5403 L 13983,5403 13983,908 13624,908 13624,5403 Z"/>
 <path fill="rgb(0,132,209)" stroke="none" d="M 12905,5403 L 13265,5403 13265,3046 12905,3046 12905,5403 Z"/>
 <path fill="rgb(0,132,209)" stroke="none" d="M 12186,5403 L 12546,5403 12546,3587 12186,3587 12186,5403 Z"/>
 <path fill="rgb(0,132,209)" stroke="none" d="M 11468,5403 L 11827,5403 11827,4034 11468,4034 11468,5403 Z"/>
 <path fill="rgb(0,132,209)" stroke="none" d="M 10749,5403 L 11108,5403 11108,3113 10749,3113 10749,5403 Z"/>
 <path fill="rgb(0,132,209)" stroke="none" d="M 10030,5403 L 10389,5403 10389,1124 10030,1124 10030,5403 Z"/>
 <path fill="none" stroke="rgb(0,69,134)" stroke-width="100" stroke-linejoin="round" d="M 10030,5403 L 10389,5403 10389,1124 10030,1124 10030,5403 Z"/>
 <path fill="rgb(0,132,209)" stroke="none" d="M 9311,5403 L 9671,5403 9671,5053 9311,5053 9311,5403 Z"/>
 <path fill="rgb(0,132,209)" stroke="none" d="M 8593,5403 L 8952,5403 8952,3059 8593,3059 8593,5403 Z"/>
 <path fill="rgb(0,132,209)" stroke="none" d="M 7875,5403 L 8233,5403 8233,3434 7875,3434 7875,5403 Z"/>
 <path fill="rgb(0,132,209)" stroke="none" d="M 7156,5403 L 7515,5403 7515,4216 7156,4216 7156,5403 Z"/>
 <path fill="rgb(0,132,209)" stroke="none" d="M 6437,5403 L 6797,5403 6797,1376 6437,1376 6437,5403 Z"/>
 <path fill="none" stroke="rgb(0,69,134)" stroke-width="100" stroke-linejoin="round" d="M 6437,5403 L 6797,5403 6797,1376 6437,1376 6437,5403 Z"/>
 <path fill="rgb(0,132,209)" stroke="none" d="M 5718,5403 L 6078,5403 6078,4603 5718,4603 5718,5403 Z"/>
 <path fill="rgb(0,132,209)" stroke="none" d="M 5000,5403 L 5359,5403 5359,4900 5000,4900 5000,5403 Z"/>
 <path fill="rgb(0,132,209)" stroke="none" d="M 4281,5403 L 4640,5403 4640,3757 4281,3757 4281,5403 Z"/>
 <path fill="rgb(0,132,209)" stroke="none" d="M 3562,5403 L 3922,5403 3922,4686 3562,4686 3562,5403 Z"/>
 <text class="TextShape" transform="translate(3133,6567) rotate(-44.9) translate(-3133,-6567)"><tspan class="TextParagraph" font-family="Liberation Sans" font-size="353px" font-weight="400"><tspan class="TextPosition" x="3133" y="6567"><tspan fill="rgb(0,0,0)" stroke="none">Scope</tspan></tspan></tspan></text>
 <text class="TextShape" transform="translate(3084,7333) rotate(-44.9) translate(-3084,-7333)"><tspan class="TextParagraph" font-family="Liberation Sans" font-size="353px" font-weight="400"><tspan class="TextPosition" x="3084" y="7333"><tspan fill="rgb(0,0,0)" stroke="none">Conflicts with</tspan></tspan></tspan></text>
 <text class="TextShape" transform="translate(3204,7930) rotate(-44.9) translate(-3204,-7930)"><tspan class="TextParagraph" font-family="Liberation Sans" font-size="353px" font-weight="400"><tspan class="TextPosition" x="3204" y="7930"><tspan fill="rgb(0,0,0)" stroke="none">Allowed entity type</tspan></tspan></tspan></text>
 <text class="TextShape" transform="translate(5139,6717) rotate(-44.9) translate(-5139,-6717)"><tspan class="TextParagraph" font-family="Liberation Sans" font-size="353px" font-weight="400"><tspan class="TextPosition" x="5139" y="6717"><tspan fill="rgb(0,0,0)" stroke="none">None of</tspan></tspan></tspan></text>
 <text class="TextShape" transform="translate(5091,7483) rotate(-44.9) translate(-5091,-7483)"><tspan class="TextParagraph" font-family="Liberation Sans" font-size="353px" font-weight="400"><tspan class="TextPosition" x="5091" y="7483"><tspan fill="rgb(0,0,0)" stroke="none">Distinct values</tspan></tspan></tspan></text>
 <text class="TextShape" transform="translate(5978,7314) rotate(-44.9) translate(-5978,-7314)"><tspan class="TextParagraph" font-family="Liberation Sans" font-size="353px" font-weight="400"><tspan class="TextPosition" x="5978" y="7314"><tspan fill="rgb(0,0,0)" stroke="none">Allowed units</tspan></tspan></tspan></text>
 <text class="TextShape" transform="translate(6247,7762) rotate(-44.9) translate(-6247,-7762)"><tspan class="TextParagraph" font-family="Liberation Sans" font-size="353px" font-weight="400"><tspan class="TextPosition" x="6247" y="7762"><tspan fill="rgb(0,0,0)" stroke="none">Allowed qualifiers</tspan></tspan></tspan></text>
 <text class="TextShape" transform="translate(8126,6605) rotate(-44.9) translate(-8126,-6605)"><tspan class="TextParagraph" font-family="Liberation Sans" font-size="353px" font-weight="400"><tspan class="TextPosition" x="8126" y="6605"><tspan fill="rgb(0,0,0)" stroke="none">One-of</tspan></tspan></tspan></text>
 <text class="TextShape" transform="translate(7275,8172) rotate(-44.9) translate(-7275,-8172)"><tspan class="TextParagraph" font-family="Liberation Sans" font-size="353px" font-weight="400"><tspan class="TextPosition" x="7275" y="8172"><tspan fill="rgb(0,0,0)" stroke="none">One-of qualifier value</tspan></tspan></tspan></text>
 <text class="TextShape" transform="translate(7712,8453) rotate(-44.9) translate(-7712,-8453)"><tspan class="TextParagraph" font-family="Liberation Sans" font-size="353px" font-weight="400"><tspan class="TextPosition" x="7712" y="8453"><tspan fill="rgb(0,0,0)" stroke="none">Item requires statement</tspan></tspan></tspan></text>
 <text class="TextShape" transform="translate(8319,8565) rotate(-44.9) translate(-8319,-8565)"><tspan class="TextParagraph" font-family="Liberation Sans" font-size="353px" font-weight="400"><tspan class="TextPosition" x="8319" y="8565"><tspan fill="rgb(0,0,0)" stroke="none">Value requires statement</tspan></tspan></tspan></text>
 <text class="TextShape" transform="translate(10927,6680) rotate(-44.9) translate(-10927,-6680)"><tspan class="TextParagraph" font-family="Liberation Sans" font-size="353px" font-weight="400"><tspan class="TextPosition" x="10927" y="6680"><tspan fill="rgb(0,0,0)" stroke="none">Inverse</tspan></tspan></tspan></text>
 <text class="TextShape" transform="translate(11271,7054) rotate(-44.9) translate(-11271,-7054)"><tspan class="TextParagraph" font-family="Liberation Sans" font-size="353px" font-weight="400"><tspan class="TextPosition" x="11271" y="7054"><tspan fill="rgb(0,0,0)" stroke="none">Symmetric</tspan></tspan></tspan></text>
 <text class="TextShape" transform="translate(11989,7054) rotate(-44.9) translate(-11989,-7054)"><tspan class="TextParagraph" font-family="Liberation Sans" font-size="353px" font-weight="400"><tspan class="TextPosition" x="11989" y="7054"><tspan fill="rgb(0,0,0)" stroke="none">Multi-value</tspan></tspan></tspan></text>
 <text class="TextShape" transform="translate(12558,7204) rotate(-44.9) translate(-12558,-7204)"><tspan class="TextParagraph" font-family="Liberation Sans" font-size="353px" font-weight="400"><tspan class="TextPosition" x="12558" y="7204"><tspan fill="rgb(0,0,0)" stroke="none">Single value</tspan></tspan></tspan></text>
 <text class="TextShape" transform="translate(12547,7930) rotate(-44.9) translate(-12547,-7930)"><tspan class="TextParagraph" font-family="Liberation Sans" font-size="353px" font-weight="400"><tspan class="TextPosition" x="12547" y="7930"><tspan fill="rgb(0,0,0)" stroke="none">Mandatory qualifier</tspan></tspan></tspan></text>
 <text class="TextShape" transform="translate(13453,7744) rotate(-44.9) translate(-13453,-7744)"><tspan class="TextParagraph" font-family="Liberation Sans" font-size="353px" font-weight="400"><tspan class="TextPosition" x="13453" y="7744"><tspan fill="rgb(0,0,0)" stroke="none">Single best value</tspan></tspan></tspan></text>
 <text class="TextShape"><tspan class="TextParagraph" font-family="Liberation Sans" font-size="352px" font-weight="400"><tspan class="TextPosition" x="2577" y="5524"><tspan fill="rgb(0,0,0)" stroke="none">100</tspan></tspan></tspan></text>
 <text class="TextShape"><tspan class="TextParagraph" font-family="Liberation Sans" font-size="352px" font-weight="400"><tspan class="TextPosition" x="2286" y="4656"><tspan fill="rgb(0,0,0)" stroke="none">1,000</tspan></tspan></tspan></text>
 <text class="TextShape"><tspan class="TextParagraph" font-family="Liberation Sans" font-size="352px" font-weight="400"><tspan class="TextPosition" x="2101" y="3789"><tspan fill="rgb(0,0,0)" stroke="none">10,000</tspan></tspan></tspan></text>
 <text class="TextShape"><tspan class="TextParagraph" font-family="Liberation Sans" font-size="352px" font-weight="400"><tspan class="TextPosition" x="1916" y="2921"><tspan fill="rgb(0,0,0)" stroke="none">100,000</tspan></tspan></tspan></text>
 <text class="TextShape"><tspan class="TextParagraph" font-family="Liberation Sans" font-size="352px" font-weight="400"><tspan class="TextPosition" x="1625" y="2053"><tspan fill="rgb(0,0,0)" stroke="none">1,000,000</tspan></tspan></tspan></text>
 <text class="TextShape"><tspan class="TextParagraph" font-family="Liberation Sans" font-size="352px" font-weight="400"><tspan class="TextPosition" x="1440" y="1186"><tspan fill="rgb(0,0,0)" stroke="none">10,000,000</tspan></tspan></tspan></text>
 <text class="TextShape"><tspan class="TextParagraph" font-family="Liberation Sans" font-size="352px" font-weight="400"><tspan class="TextPosition" x="1254" y="318"><tspan fill="rgb(0,0,0)" stroke="none">100,000,000</tspan></tspan></tspan></text>
 <text class="TextShape" transform="translate(837,6634) rotate(-90) translate(-837,-6634)"><tspan class="TextParagraph" font-family="Liberation Sans" font-size="318px" font-weight="400"><tspan class="TextPosition" x="837" y="6634"><tspan fill="rgb(0,0,0)" stroke="none">Runtime materialization in ms</tspan></tspan></tspan></text>
</svg>