<?xml version="1.0" encoding="UTF-8"?>
<!DOCTYPE svg PUBLIC "-//W3C//DTD SVG 1.1//EN" "http://www.w3.org/Graphics/SVG/1.1/DTD/svg11.dtd">
<svg width="160mm" height="90mm" viewBox="0 0 16000 9000" version="1.1" xmlns="http://www.w3.org/2000/svg" stroke-width="28.222" stroke-linejoin="round" xml:space="preserve">
 <path fill="rgb(255,255,255)" stroke="none" d="M 8000,8999 L 0,8999 0,20 15999,20 15999,8999 8000,8999 Z"/>
 <path fill="none" stroke="rgb(179,179,179)" stroke-linejoin="round" d="M 9399,5404 L 3197,5404 3197,200 15601,200 15601,5404 9399,5404 Z"/>
 <path fill="none" stroke="rgb(179,179,179)" stroke-linejoin="round" d="M 15601,5403 L 3197,5403"/>
 <path fill="none" stroke="rgb(179,179,179)" stroke-linejoin="round" d="M 15601,4659 L 3197,4659"/>
 <path fill="none" stroke="rgb(179,179,179)" stroke-linejoin="round" d="M 15601,3916 L 3197,3916"/>
 <path fill="none" stroke="rgb(179,179,179)" stroke-linejoin="round" d="M 15601,3173 L 3197,3173"/>
 <path fill="none" stroke="rgb(179,179,179)" stroke-linejoin="round" d="M 15601,2428 L 3197,2428"/>
 <path fill="none" stroke="rgb(179,179,179)" stroke-linejoin="round" d="M 15601,1685 L 3197,1685"/>
 <path fill="none" stroke="rgb(179,179,179)" stroke-linejoin="round" d="M 15601,942 L 3197,942"/>
 <path fill="none" stroke="rgb(179,179,179)" stroke-linejoin="round" d="M 15601,198 L 3197,198"/>
 <path fill="none" stroke="rgb(179,179,179)" stroke-linejoin="round" d="M 3197,5553 L 3197,5403"/>
 <path fill="none" stroke="rgb(179,179,179)" stroke-linejoin="round" d="M 3197,5553 L 3197,5403"/>
 <path fill="none" stroke="rgb(179,179,179)" stroke-linejoin="round" d="M 3926,5553 L 3926,5403"/>
 <path fill="none" stroke="rgb(179,179,179)" stroke-linejoin="round" d="M 3926,5553 L 3926,5403"/>
 <path fill="none" stroke="rgb(179,179,179)" stroke-linejoin="round" d="M 4656,5553 L 4656,5403"/>
 <path fill="none" stroke="rgb(179,179,179)" stroke-linejoin="round" d="M 4656,5553 L 4656,5403"/>
 <path fill="none" stroke="rgb(179,179,179)" stroke-linejoin="round" d="M 5386,5553 L 5386,5403"/>
 <path fill="none" stroke="rgb(179,179,179)" stroke-linejoin="round" d="M 5386,5553 L 5386,5403"/>
 <path fill="none" stroke="rgb(179,179,179)" stroke-linejoin="round" d="M 6115,5553 L 6115,5403"/>
 <path fill="none" stroke="rgb(179,179,179)" stroke-linejoin="round" d="M 6115,5553 L 6115,5403"/>
 <path fill="none" stroke="rgb(179,179,179)" stroke-linejoin="round" d="M 6845,5553 L 6845,5403"/>
 <path fill="none" stroke="rgb(179,179,179)" stroke-linejoin="round" d="M 6845,5553 L 6845,5403"/>
 <path fill="none" stroke="rgb(179,179,179)" stroke-linejoin="round" d="M 7575,5553 L 7575,5403"/>
 <path fill="none" stroke="rgb(179,179,179)" stroke-linejoin="round" d="M 7575,5553 L 7575,5403"/>
 <path fill="none" stroke="rgb(179,179,179)" stroke-linejoin="round" d="M 8303,5553 L 8303,5403"/>
 <path fill="none" stroke="rgb(179,179,179)" stroke-linejoin="round" d="M 8303,5553 L 8303,5403"/>
 <path fill="none" stroke="rgb(179,179,179)" stroke-linejoin="round" d="M 9033,5553 L 9033,5403"/>
 <path fill="none" stroke="rgb(179,179,179)" stroke-linejoin="round" d="M 9033,5553 L 9033,5403"/>
 <path fill="none" stroke="rgb(179,179,179)" stroke-linejoin="round" d="M 9763,5553 L 9763,5403"/>
 <path fill="none" stroke="rgb(179,179,179)" stroke-linejoin="round" d="M 9763,5553 L 9763,5403"/>
 <path fill="none" stroke="rgb(179,179,179)" stroke-linejoin="round" d="M 10493,5553 L 10493,5403"/>
 <path fill="none" stroke="rgb(179,179,179)" stroke-linejoin="round" d="M 10493,5553 L 10493,5403"/>
 <path fill="none" stroke="rgb(179,179,179)" stroke-linejoin="round" d="M 11222,5553 L 11222,5403"/>
 <path fill="none" stroke="rgb(179,179,179)" stroke-linejoin="round" d="M 11222,5553 L 11222,5403"/>
 <path fill="none" stroke="rgb(179,179,179)" stroke-linejoin="round" d="M 11952,5553 L 11952,5403"/>
 <path fill="none" stroke="rgb(179,179,179)" stroke-linejoin="round" d="M 11952,5553 L 11952,5403"/>
 <path fill="none" stroke="rgb(179,179,179)" stroke-linejoin="round" d="M 12682,5553 L 12682,5403"/>
 <path fill="none" stroke="rgb(179,179,179)" stroke-linejoin="round" d="M 12682,5553 L 12682,5403"/>
 <path fill="none" stroke="rgb(179,179,179)" stroke-linejoin="round" d="M 13411,5553 L 13411,5403"/>
 <path fill="none" stroke="rgb(179,179,179)" stroke-linejoin="round" d="M 13411,5553 L 13411,5403"/>
 <path fill="none" stroke="rgb(179,179,179)" stroke-linejoin="round" d="M 14141,5553 L 14141,5403"/>
 <path fill="none" stroke="rgb(179,179,179)" stroke-linejoin="round" d="M 14141,5553 L 14141,5403"/>
 <path fill="none" stroke="rgb(179,179,179)" stroke-linejoin="round" d="M 14871,5553 L 14871,5403"/>
 <path fill="none" stroke="rgb(179,179,179)" stroke-linejoin="round" d="M 14871,5553 L 14871,5403"/>
 <path fill="none" stroke="rgb(179,179,179)" stroke-linejoin="round" d="M 15601,5553 L 15601,5403"/>
 <path fill="none" stroke="rgb(179,179,179)" stroke-linejoin="round" d="M 15601,5553 L 15601,5403"/>
 <path fill="none" stroke="rgb(179,179,179)" stroke-linejoin="round" d="M 3197,5403 L 15601,5403"/>
 <path fill="none" stroke="rgb(179,179,179)" stroke-linejoin="round" d="M 3047,5403 L 3197,5403"/>
 <path fill="none" stroke="rgb(179,179,179)" stroke-linejoin="round" d="M 3047,5403 L 3197,5403"/>
 <path fill="none" stroke="rgb(179,179,179)" stroke-linejoin="round" d="M 3047,4659 L 3197,4659"/>
 <path fill="none" stroke="rgb(179,179,179)" stroke-linejoin="round" d="M 3047,4659 L 3197,4659"/>
 <path fill="none" stroke="rgb(179,179,179)" stroke-linejoin="round" d="M 3047,3916 L 3197,3916"/>
 <path fill="none" stroke="rgb(179,179,179)" stroke-linejoin="round" d="M 3047,3916 L 3197,3916"/>
 <path fill="none" stroke="rgb(179,179,179)" stroke-linejoin="round" d="M 3047,3173 L 3197,3173"/>
 <path fill="none" stroke="rgb(179,179,179)" stroke-linejoin="round" d="M 3047,3173 L 3197,3173"/>
 <path fill="none" stroke="rgb(179,179,179)" stroke-linejoin="round" d="M 3047,2428 L 3197,2428"/>
 <path fill="none" stroke="rgb(179,179,179)" stroke-linejoin="round" d="M 3047,2428 L 3197,2428"/>
 <path fill="none" stroke="rgb(179,179,179)" stroke-linejoin="round" d="M 3047,1685 L 3197,1685"/>
 <path fill="none" stroke="rgb(179,179,179)" stroke-linejoin="round" d="M 3047,1685 L 3197,1685"/>
 <path fill="none" stroke="rgb(179,179,179)" stroke-linejoin="round" d="M 3047,942 L 3197,942"/>
 <path fill="none" stroke="rgb(179,179,179)" stroke-linejoin="round" d="M 3047,942 L 3197,942"/>
 <path fill="none" stroke="rgb(179,179,179)" stroke-linejoin="round" d="M 3047,198 L 3197,198"/>
 <path fill="none" stroke="rgb(179,179,179)" stroke-linejoin="round" d="M 3047,198 L 3197,198"/>
 <path fill="none" stroke="rgb(179,179,179)" stroke-linejoin="round" d="M 3197,5403 L 3197,198"/>
 <path fill="rgb(0,69,134)" stroke="none" d="M 12864,5403 L 13229,5403 13229,1880 12864,1880 12864,5403 Z"/>
 <path fill="rgb(0,69,134)" stroke="none" d="M 12134,5403 L 12499,5403 12499,1809 12134,1809 12134,5403 Z"/>
 <path fill="rgb(0,69,134)" stroke="none" d="M 11405,5403 L 11770,5403 11770,2096 11405,2096 11405,5403 Z"/>
 <path fill="rgb(0,69,134)" stroke="none" d="M 10675,5403 L 11040,5403 11040,1474 10675,1474 10675,5403 Z"/>
 <path fill="rgb(0,69,134)" stroke="none" d="M 9945,5403 L 10310,5403 10310,263 9945,263 9945,5403 Z"/>
 <path fill="rgb(0,69,134)" stroke="none" d="M 9216,5403 L 9580,5403 9580,2543 9216,2543 9216,5403 Z"/>
 <path fill="rgb(0,69,134)" stroke="none" d="M 8486,5403 L 8851,5403 8851,1572 8486,1572 8486,5403 Z"/>
 <path fill="rgb(0,69,134)" stroke="none" d="M 7757,5403 L 8121,5403 8121,2159 7757,2159 7757,5403 Z"/>
 <path fill="rgb(0,69,134)" stroke="none" d="M 7027,5403 L 7392,5403 7392,2150 7027,2150 7027,5403 Z"/>
 <path fill="rgb(0,69,134)" stroke="none" d="M 6298,5403 L 6663,5403 6663,455 6298,455 6298,5403 Z"/>
 <path fill="rgb(0,69,134)" stroke="none" d="M 5568,5403 L 5933,5403 5933,2424 5568,2424 5568,5403 Z"/>
 <path fill="rgb(0,69,134)" stroke="none" d="M 4838,5403 L 5203,5403 5203,2679 4838,2679 4838,5403 Z"/>
 <path fill="rgb(0,69,134)" stroke="none" d="M 4109,5403 L 4473,5403 4473,2255 4109,2255 4109,5403 Z"/>
 <path fill="rgb(0,69,134)" stroke="none" d="M 3379,5403 L 3744,5403 3744,2376 3379,2376 3379,5403 Z"/>
 <text class="TextShape" transform="translate(1998,7519) rotate(-44.9) translate(-1998,-7519)"><tspan class="TextParagraph" font-family="Liberation Sans, sans-serif" font-size="353px" font-weight="400"><tspan class="TextPosition" x="1998" y="7519"><tspan fill="rgb(0,0,0)" stroke="none">Property scope</tspan></tspan></tspan></text>
 <text class="TextShape" transform="translate(2914,7333) rotate(-44.9) translate(-2914,-7333)"><tspan class="TextParagraph" font-family="Liberation Sans, sans-serif" font-size="353px" font-weight="400"><tspan class="TextPosition" x="2914" y="7333"><tspan fill="rgb(0,0,0)" stroke="none">Conflicts with</tspan></tspan></tspan></text>
 <text class="TextShape" transform="translate(3046,7930) rotate(-44.9) translate(-3046,-7930)"><tspan class="TextParagraph" font-family="Liberation Sans, sans-serif" font-size="353px" font-weight="400"><tspan class="TextPosition" x="3046" y="7930"><tspan fill="rgb(0,0,0)" stroke="none">Allowed entity type</tspan></tspan></tspan></text>
 <text class="TextShape" transform="translate(4991,6717) rotate(-44.9) translate(-4991,-6717)"><tspan class="TextParagraph" font-family="Liberation Sans, sans-serif" font-size="353px" font-weight="400"><tspan class="TextPosition" x="4991" y="6717"><tspan fill="rgb(0,0,0)" stroke="none">None of</tspan></tspan></tspan></text>
 <text class="TextShape" transform="translate(4954,7483) rotate(-44.9) translate(-4954,-7483)"><tspan class="TextParagraph" font-family="Liberation Sans, sans-serif" font-size="353px" font-weight="400"><tspan class="TextPosition" x="4954" y="7483"><tspan fill="rgb(0,0,0)" stroke="none">Distinct values</tspan></tspan></tspan></text>
 <text class="TextShape" transform="translate(5852,7314) rotate(-44.9) translate(-5852,-7314)"><tspan class="TextParagraph" font-family="Liberation Sans, sans-serif" font-size="353px" font-weight="400"><tspan class="TextPosition" x="5852" y="7314"><tspan fill="rgb(0,0,0)" stroke="none">Allowed units</tspan></tspan></tspan></text>
 <text class="TextShape" transform="translate(6133,7762) rotate(-44.9) translate(-6133,-7762)"><tspan class="TextParagraph" font-family="Liberation Sans, sans-serif" font-size="353px" font-weight="400"><tspan class="TextPosition" x="6133" y="7762"><tspan fill="rgb(0,0,0)" stroke="none">Allowed qualifiers</tspan></tspan></tspan></text>
 <text class="TextShape" transform="translate(8022,6605) rotate(-44.9) translate(-8022,-6605)"><tspan class="TextParagraph" font-family="Liberation Sans, sans-serif" font-size="353px" font-weight="400"><tspan class="TextPosition" x="8022" y="6605"><tspan fill="rgb(0,0,0)" stroke="none">One-of</tspan></tspan></tspan></text>
 <text class="TextShape" transform="translate(7182,8172) rotate(-44.9) translate(-7182,-8172)"><tspan class="TextParagraph" font-family="Liberation Sans, sans-serif" font-size="353px" font-weight="400"><tspan class="TextPosition" x="7182" y="8172"><tspan fill="rgb(0,0,0)" stroke="none">One-of qualifier value</tspan></tspan></tspan></text>
 <text class="TextShape" transform="translate(7630,8453) rotate(-44.9) translate(-7630,-8453)"><tspan class="TextParagraph" font-family="Liberation Sans, sans-serif" font-size="353px" font-weight="400"><tspan class="TextPosition" x="7630" y="8453"><tspan fill="rgb(0,0,0)" stroke="none">Item requires statement</tspan></tspan></tspan></text>
 <text class="TextShape" transform="translate(8247,8565) rotate(-44.9) translate(-8247,-8565)"><tspan class="TextParagraph" font-family="Liberation Sans, sans-serif" font-size="353px" font-weight="400"><tspan class="TextPosition" x="8247" y="8565"><tspan fill="rgb(0,0,0)" stroke="none">Value requires statement</tspan></tspan></tspan></text>
 <text class="TextShape" transform="translate(10867,6680) rotate(-44.9) translate(-10867,-6680)"><tspan class="TextParagraph" font-family="Liberation Sans, sans-serif" font-size="353px" font-weight="400"><tspan class="TextPosition" x="10867" y="6680"><tspan fill="rgb(0,0,0)" stroke="none">Inverse</tspan></tspan></tspan></text>
 <text class="TextShape" transform="translate(11222,7054) rotate(-44.9) translate(-11222,-7054)"><tspan class="TextParagraph" font-family="Liberation Sans, sans-serif" font-size="353px" font-weight="400"><tspan class="TextPosition" x="11222" y="7054"><tspan fill="rgb(0,0,0)" stroke="none">Symmetric</tspan></tspan></tspan></text>
 <text class="TextShape" transform="translate(11951,7054) rotate(-44.9) translate(-11951,-7054)"><tspan class="TextParagraph" font-family="Liberation Sans, sans-serif" font-size="353px" font-weight="400"><tspan class="TextPosition" x="11951" y="7054"><tspan fill="rgb(0,0,0)" stroke="none">Multi-value</tspan></tspan></tspan></text>
 <text class="TextShape" transform="translate(12530,7204) rotate(-44.9) translate(-12530,-7204)"><tspan class="TextParagraph" font-family="Liberation Sans, sans-serif" font-size="353px" font-weight="400"><tspan class="TextPosition" x="12530" y="7204"><tspan fill="rgb(0,0,0)" stroke="none">Single value</tspan></tspan></tspan></text>
 <text class="TextShape" transform="translate(12531,7930) rotate(-44.9) translate(-12531,-7930)"><tspan class="TextParagraph" font-family="Liberation Sans, sans-serif" font-size="353px" font-weight="400"><tspan class="TextPosition" x="12531" y="7930"><tspan fill="rgb(0,0,0)" stroke="none">Mandatory qualifier</tspan></tspan></tspan></text>
 <text class="TextShape" transform="translate(13448,7744) rotate(-44.9) translate(-13448,-7744)"><tspan class="TextParagraph" font-family="Liberation Sans, sans-serif" font-size="353px" font-weight="400"><tspan class="TextPosition" x="13448" y="7744"><tspan fill="rgb(0,0,0)" stroke="none">Single best value</tspan></tspan></tspan></text>
 <text class="TextShape"><tspan class="TextParagraph" font-family="Liberation Sans, sans-serif" font-size="352px" font-weight="400"><tspan class="TextPosition" x="2762" y="5524"><tspan fill="rgb(0,0,0)" stroke="none">1</tspan></tspan></tspan></text>
 <text class="TextShape"><tspan class="TextParagraph" font-family="Liberation Sans, sans-serif" font-size="352px" font-weight="400"><tspan class="TextPosition" x="2577" y="4779"><tspan fill="rgb(0,0,0)" stroke="none">10</tspan></tspan></tspan></text>
 <text class="TextShape"><tspan class="TextParagraph" font-family="Liberation Sans, sans-serif" font-size="352px" font-weight="400"><tspan class="TextPosition" x="2391" y="4036"><tspan fill="rgb(0,0,0)" stroke="none">100</tspan></tspan></tspan></text>
 <text class="TextShape"><tspan class="TextParagraph" font-family="Liberation Sans, sans-serif" font-size="352px" font-weight="400"><tspan class="TextPosition" x="2100" y="3293"><tspan fill="rgb(0,0,0)" stroke="none">1,000</tspan></tspan></tspan></text>
 <text class="TextShape"><tspan class="TextParagraph" font-family="Liberation Sans, sans-serif" font-size="352px" font-weight="400"><tspan class="TextPosition" x="1915" y="2549"><tspan fill="rgb(0,0,0)" stroke="none">10,000</tspan></tspan></tspan></text>
 <text class="TextShape"><tspan class="TextParagraph" font-family="Liberation Sans, sans-serif" font-size="352px" font-weight="400"><tspan class="TextPosition" x="1730" y="1805"><tspan fill="rgb(0,0,0)" stroke="none">100,000</tspan></tspan></tspan></text>
 <text class="TextShape"><tspan class="TextParagraph" font-family="Liberation Sans, sans-serif" font-size="352px" font-weight="400"><tspan class="TextPosition" x="1439" y="1062"><tspan fill="rgb(0,0,0)" stroke="none">1,000,000</tspan></tspan></tspan></text>
 <text class="TextShape"><tspan class="TextParagraph" font-family="Liberation Sans, sans-serif" font-size="352px" font-weight="400"><tspan class="TextPosition" x="1254" y="318"><tspan fill="rgb(0,0,0)" stroke="none">10,000,000</tspan></tspan></tspan></text>
 <text class="TextShape" transform="translate(837,5604) rotate(-90) translate(-837,-5604)"><tspan class="TextParagraph" font-family="Liberation Sans, sans-serif" font-size="318px" font-weight="400"><tspan class="TextPosition" x="837" y="5604"><tspan fill="rgb(0,0,0)" stroke="none">Total time in ms</tspan></tspan></tspan></text>
</svg>